<svg width="1048" height="250" viewBox="0 0 1048 250" fill="none" xmlns="http://www.w3.org/2000/svg">
<rect x="828" width="220" height="250" fill="#C2C2C2"/>
<rect width="220" height="250" fill="#D9D9D9"/>
<rect x="224" width="600" height="250" fill="#A0A0A0"/>
<rect x="565" y="44" width="60" height="29" transform="rotate(-180 565 44)" fill="#3D3D3D"/>
<rect x="691" y="80" width="60" height="60" transform="rotate(-180 691 80)" fill="#3D3D3D"/>
<rect x="343" y="109" width="60" height="60" transform="rotate(-180 343 109)" fill="#3D3D3D"/>
<rect x="469" y="109" width="60" height="60" transform="rotate(-180 469 109)" fill="#D9D9D9" fill-opacity="0.6"/>
<rect x="627" y="109" width="60" height="60" transform="rotate(-180 627 109)" fill="#3D3D3D"/>
<rect x="809" y="116" width="20" height="60" transform="rotate(-180 809 116)" fill="#D9D9D9" fill-opacity="0.6"/>
<rect x="532" y="174" width="60" height="60" transform="rotate(-180 532 174)" fill="#3D3D3D"/>
<rect x="691" y="174" width="60" height="60" transform="rotate(-180 691 174)" fill="#D9D9D9" fill-opacity="0.6"/>
<rect x="785" y="174" width="60" height="60" transform="rotate(-180 785 174)" fill="#3D3D3D"/>
<rect x="406" y="175" width="60" height="60" transform="rotate(-180 406 175)" fill="#D9D9D9" fill-opacity="0.6"/>
<rect x="249" y="203" width="10" height="60" transform="rotate(-180 249 203)" fill="#D9D9D9" fill-opacity="0.6"/>
<rect x="343" y="203" width="60" height="60" transform="rotate(-180 343 203)" fill="#3D3D3D"/>
<rect x="408" y="144" width="30" height="2" fill="#3D3D3D"/>
<rect x="628" y="235" width="60" height="56" transform="rotate(-180 628 235)" fill="#D9D9D9" fill-opacity="0.6"/>
<rect x="469" y="235" width="60" height="55" transform="rotate(-180 469 235)" fill="#D9D9D9" fill-opacity="0.6"/>
<rect x="785" y="235" width="60" height="27" transform="rotate(-180 785 235)" fill="#D9D9D9" fill-opacity="0.6"/>
<rect x="312" y="47" width="30" height="2" transform="rotate(-90 312 47)" fill="#3D3D3D"/>
<rect x="438" y="47" width="30" height="2" transform="rotate(-90 438 47)" fill="#3D3D3D"/>
<rect x="757" y="17" width="30" height="2" transform="rotate(90 757 17)" fill="#3D3D3D"/>
<rect x="535" y="46" width="30" height="2" transform="rotate(90 535 46)" fill="#3D3D3D"/>
<rect x="693" y="49" width="30" height="2" fill="#3D3D3D"/>
<rect x="725" y="49" width="30" height="2" fill="#3D3D3D"/>
<rect x="757" y="53" width="30" height="2" transform="rotate(90 757 53)" fill="#3D3D3D"/>
<rect x="239" y="78" width="10" height="2" fill="#3D3D3D"/>
<rect x="251" y="78" width="30" height="2" fill="#3D3D3D"/>
<rect x="345" y="78" width="30" height="2" fill="#3D3D3D"/>
<rect x="377" y="78" width="30" height="2" fill="#3D3D3D"/>
<rect x="471" y="78" width="30" height="2" fill="#3D3D3D"/>
<rect x="503" y="78" width="30" height="2" fill="#3D3D3D"/>
<rect x="535" y="78" width="30" height="2" fill="#3D3D3D"/>
<rect x="503" y="82" width="30" height="2" transform="rotate(90 503 82)" fill="#3D3D3D"/>
<rect x="662" y="82" width="30" height="2" transform="rotate(90 662 82)" fill="#3D3D3D"/>
<rect x="757" y="85" width="30" height="2" fill="#3D3D3D"/>
<rect x="312" y="141" width="30" height="2" transform="rotate(-90 312 141)" fill="#3D3D3D"/>
<rect x="535" y="143" width="30" height="2" fill="#3D3D3D"/>
<rect x="567" y="143" width="30" height="2" fill="#3D3D3D"/>
<rect x="599" y="143" width="30" height="2" fill="#3D3D3D"/>
<rect x="693" y="143" width="30" height="2" fill="#3D3D3D"/>
<rect x="440" y="144" width="30" height="2" fill="#3D3D3D"/>
<rect x="599" y="147" width="30" height="2" transform="rotate(90 599 147)" fill="#3D3D3D"/>
<rect x="440" y="148" width="30" height="2" transform="rotate(90 440 148)" fill="#3D3D3D"/>
<rect x="251" y="172" width="30" height="2" fill="#3D3D3D"/>
<rect x="756" y="176" width="30" height="2" transform="rotate(90 756 176)" fill="#3D3D3D"/>
<rect x="312" y="235" width="30" height="2" transform="rotate(-90 312 235)" fill="#3D3D3D"/>
<rect x="660" y="210" width="30" height="2" transform="rotate(-180 660 210)" fill="#3D3D3D"/>
<rect x="377" y="209" width="30" height="2" fill="#3D3D3D"/>
<rect x="471" y="209" width="30" height="2" fill="#3D3D3D"/>
<rect x="503" y="209" width="30" height="2" fill="#3D3D3D"/>
<rect x="662" y="212" width="23" height="2" transform="rotate(90 662 212)" fill="#3D3D3D"/>
<rect x="377" y="213" width="22" height="2" transform="rotate(90 377 213)" fill="#3D3D3D"/>
<rect x="535" y="213" width="22" height="2" transform="rotate(90 535 213)" fill="#3D3D3D"/>
</svg>
