<svg width="1048" height="668" viewBox="0 0 1048 668" fill="none" xmlns="http://www.w3.org/2000/svg">
<rect y="254" width="444" height="414" fill="#D9D9D9"/>
<rect x="943" width="105" height="668" fill="#D9D9D9"/>
<rect x="448" y="254" width="491" height="414" fill="#D9D9D9"/>
<rect width="335" height="250" fill="#C2C2C2"/>
<rect x="339" width="600" height="250" fill="#A0A0A0"/>
<rect x="680" y="44" width="60" height="29" transform="rotate(-180 680 44)" fill="#3D3D3D"/>
<rect x="806" y="80" width="60" height="60" transform="rotate(-180 806 80)" fill="#3D3D3D"/>
<rect x="458" y="109" width="60" height="60" transform="rotate(-180 458 109)" fill="#3D3D3D"/>
<rect x="584" y="109" width="60" height="60" transform="rotate(-180 584 109)" fill="#3D3D3D"/>
<rect x="742" y="109" width="60" height="60" transform="rotate(-180 742 109)" fill="#3D3D3D"/>
<rect x="924" y="116" width="20" height="60" transform="rotate(-180 924 116)" fill="#3D3D3D"/>
<rect x="647" y="174" width="60" height="60" transform="rotate(-180 647 174)" fill="#3D3D3D"/>
<rect x="806" y="174" width="60" height="60" transform="rotate(-180 806 174)" fill="#3D3D3D"/>
<path d="M900 174L840 174L840 114L900 114L900 174Z" fill="#3D3D3D"/>
<rect x="521" y="175" width="60" height="60" transform="rotate(-180 521 175)" fill="#3D3D3D"/>
<rect x="364" y="203" width="10" height="60" transform="rotate(-180 364 203)" fill="#3D3D3D"/>
<rect x="458" y="203" width="60" height="60" transform="rotate(-180 458 203)" fill="#3D3D3D"/>
<rect x="523" y="144" width="30" height="2" fill="#3D3D3D"/>
<rect x="743" y="235" width="60" height="56" transform="rotate(-180 743 235)" fill="#3D3D3D"/>
<rect x="584" y="235" width="60" height="55" transform="rotate(-180 584 235)" fill="#3D3D3D"/>
<rect x="900" y="235" width="60" height="27" transform="rotate(-180 900 235)" fill="#3D3D3D"/>
<rect x="427" y="47" width="30" height="2" transform="rotate(-90 427 47)" fill="#3D3D3D"/>
<rect x="553" y="47" width="30" height="2" transform="rotate(-90 553 47)" fill="#3D3D3D"/>
<rect x="872" y="17" width="30" height="2" transform="rotate(90 872 17)" fill="#3D3D3D"/>
<rect x="650" y="46" width="30" height="2" transform="rotate(90 650 46)" fill="#3D3D3D"/>
<rect x="808" y="49" width="30" height="2" fill="#3D3D3D"/>
<rect x="840" y="49" width="30" height="2" fill="#3D3D3D"/>
<rect x="872" y="53" width="30" height="2" transform="rotate(90 872 53)" fill="#3D3D3D"/>
<rect x="354" y="78" width="10" height="2" fill="#3D3D3D"/>
<rect x="366" y="78" width="30" height="2" fill="#3D3D3D"/>
<rect x="460" y="78" width="30" height="2" fill="#3D3D3D"/>
<rect x="492" y="78" width="30" height="2" fill="#3D3D3D"/>
<rect x="586" y="78" width="30" height="2" fill="#3D3D3D"/>
<rect x="618" y="78" width="30" height="2" fill="#3D3D3D"/>
<rect x="650" y="78" width="30" height="2" fill="#3D3D3D"/>
<rect x="618" y="82" width="30" height="2" transform="rotate(90 618 82)" fill="#3D3D3D"/>
<rect x="777" y="82" width="30" height="2" transform="rotate(90 777 82)" fill="#3D3D3D"/>
<rect x="872" y="85" width="30" height="2" fill="#3D3D3D"/>
<rect x="427" y="141" width="30" height="2" transform="rotate(-90 427 141)" fill="#3D3D3D"/>
<rect x="650" y="143" width="30" height="2" fill="#3D3D3D"/>
<rect x="682" y="143" width="30" height="2" fill="#3D3D3D"/>
<rect x="714" y="143" width="30" height="2" fill="#3D3D3D"/>
<rect x="808" y="143" width="30" height="2" fill="#3D3D3D"/>
<rect x="555" y="144" width="30" height="2" fill="#3D3D3D"/>
<rect x="714" y="147" width="30" height="2" transform="rotate(90 714 147)" fill="#3D3D3D"/>
<rect x="555" y="148" width="30" height="2" transform="rotate(90 555 148)" fill="#3D3D3D"/>
<rect x="366" y="172" width="30" height="2" fill="#3D3D3D"/>
<rect x="871" y="176" width="30" height="2" transform="rotate(90 871 176)" fill="#3D3D3D"/>
<rect x="427" y="235" width="30" height="2" transform="rotate(-90 427 235)" fill="#3D3D3D"/>
<rect x="775" y="210" width="30" height="2" transform="rotate(-180 775 210)" fill="#3D3D3D"/>
<rect x="492" y="209" width="30" height="2" fill="#3D3D3D"/>
<rect x="586" y="209" width="30" height="2" fill="#3D3D3D"/>
<rect x="618" y="209" width="30" height="2" fill="#3D3D3D"/>
<rect x="777" y="212" width="23" height="2" transform="rotate(90 777 212)" fill="#3D3D3D"/>
<rect x="492" y="213" width="22" height="2" transform="rotate(90 492 213)" fill="#3D3D3D"/>
<rect x="650" y="213" width="22" height="2" transform="rotate(90 650 213)" fill="#3D3D3D"/>
</svg>
