<svg width="1050" height="668" viewBox="0 0 1050 668" fill="none" xmlns="http://www.w3.org/2000/svg">
<rect y="221" width="220" height="447" fill="#DAD9D9"/>
<rect x="224" y="475" width="220" height="193" fill="#DAD9D9"/>
<rect x="501" width="323" height="217" fill="#DAD9D9"/>
<rect x="448" y="475" width="376" height="193" fill="#D9D9D9"/>
<rect width="497" height="217" fill="#DAD9D9"/>
<rect x="224" y="221" width="600" height="250" fill="#A0A0A0"/>
<rect x="565" y="265" width="60" height="29" transform="rotate(-180 565 265)" fill="#3D3D3D"/>
<rect x="691" y="301" width="60" height="60" transform="rotate(-180 691 301)" fill="#3D3D3D"/>
<rect x="343" y="330" width="60" height="60" transform="rotate(-180 343 330)" fill="#3D3D3D"/>
<rect x="469" y="330" width="60" height="60" transform="rotate(-180 469 330)" fill="#D9D9D9" fill-opacity="0.6"/>
<rect x="627" y="330" width="60" height="60" transform="rotate(-180 627 330)" fill="#3D3D3D"/>
<rect x="809" y="337" width="20" height="60" transform="rotate(-180 809 337)" fill="#D9D9D9" fill-opacity="0.6"/>
<rect x="532" y="395" width="60" height="60" transform="rotate(-180 532 395)" fill="#3D3D3D"/>
<rect x="691" y="395" width="60" height="60" transform="rotate(-180 691 395)" fill="#D9D9D9" fill-opacity="0.6"/>
<rect x="785" y="395" width="60" height="60" transform="rotate(-180 785 395)" fill="#3D3D3D"/>
<rect x="406" y="396" width="60" height="60" transform="rotate(-180 406 396)" fill="#D9D9D9" fill-opacity="0.6"/>
<rect x="249" y="424" width="10" height="60" transform="rotate(-180 249 424)" fill="#D9D9D9" fill-opacity="0.6"/>
<rect x="343" y="424" width="60" height="60" transform="rotate(-180 343 424)" fill="#3D3D3D"/>
<rect x="408" y="365" width="30" height="2" fill="#3D3D3D"/>
<rect x="628" y="456" width="60" height="56" transform="rotate(-180 628 456)" fill="#D9D9D9" fill-opacity="0.6"/>
<rect x="469" y="456" width="60" height="55" transform="rotate(-180 469 456)" fill="#D9D9D9" fill-opacity="0.6"/>
<rect x="785" y="456" width="60" height="27" transform="rotate(-180 785 456)" fill="#D9D9D9" fill-opacity="0.6"/>
<rect x="312" y="268" width="30" height="2" transform="rotate(-90 312 268)" fill="#3D3D3D"/>
<rect x="438" y="268" width="30" height="2" transform="rotate(-90 438 268)" fill="#3D3D3D"/>
<rect x="757" y="238" width="30" height="2" transform="rotate(90 757 238)" fill="#3D3D3D"/>
<rect x="535" y="267" width="30" height="2" transform="rotate(90 535 267)" fill="#3D3D3D"/>
<rect x="693" y="270" width="30" height="2" fill="#3D3D3D"/>
<rect x="725" y="270" width="30" height="2" fill="#3D3D3D"/>
<rect x="757" y="274" width="30" height="2" transform="rotate(90 757 274)" fill="#3D3D3D"/>
<rect x="239" y="299" width="10" height="2" fill="#3D3D3D"/>
<rect x="251" y="299" width="30" height="2" fill="#3D3D3D"/>
<rect x="345" y="299" width="30" height="2" fill="#3D3D3D"/>
<rect x="377" y="299" width="30" height="2" fill="#3D3D3D"/>
<rect x="471" y="299" width="30" height="2" fill="#3D3D3D"/>
<rect x="503" y="299" width="30" height="2" fill="#3D3D3D"/>
<rect x="535" y="299" width="30" height="2" fill="#3D3D3D"/>
<rect x="503" y="303" width="30" height="2" transform="rotate(90 503 303)" fill="#3D3D3D"/>
<rect x="662" y="303" width="30" height="2" transform="rotate(90 662 303)" fill="#3D3D3D"/>
<rect x="757" y="306" width="30" height="2" fill="#3D3D3D"/>
<rect x="312" y="362" width="30" height="2" transform="rotate(-90 312 362)" fill="#3D3D3D"/>
<rect x="535" y="364" width="30" height="2" fill="#3D3D3D"/>
<rect x="567" y="364" width="30" height="2" fill="#3D3D3D"/>
<rect x="599" y="364" width="30" height="2" fill="#3D3D3D"/>
<rect x="693" y="364" width="30" height="2" fill="#3D3D3D"/>
<rect x="440" y="365" width="30" height="2" fill="#3D3D3D"/>
<rect x="599" y="368" width="30" height="2" transform="rotate(90 599 368)" fill="#3D3D3D"/>
<rect x="440" y="369" width="30" height="2" transform="rotate(90 440 369)" fill="#3D3D3D"/>
<rect x="251" y="393" width="30" height="2" fill="#3D3D3D"/>
<rect x="756" y="397" width="30" height="2" transform="rotate(90 756 397)" fill="#3D3D3D"/>
<rect x="312" y="456" width="30" height="2" transform="rotate(-90 312 456)" fill="#3D3D3D"/>
<rect x="660" y="431" width="30" height="2" transform="rotate(-180 660 431)" fill="#3D3D3D"/>
<rect x="377" y="430" width="30" height="2" fill="#3D3D3D"/>
<rect x="471" y="430" width="30" height="2" fill="#3D3D3D"/>
<rect x="503" y="430" width="30" height="2" fill="#3D3D3D"/>
<rect x="662" y="433" width="23" height="2" transform="rotate(90 662 433)" fill="#3D3D3D"/>
<rect x="377" y="434" width="22" height="2" transform="rotate(90 377 434)" fill="#3D3D3D"/>
<rect x="535" y="434" width="22" height="2" transform="rotate(90 535 434)" fill="#3D3D3D"/>
<rect x="828" width="109" height="668" fill="#D9D9D9"/>
<rect x="941" width="109" height="668" fill="#D9D9D9"/>
</svg>
