<svg width="600" height="600" viewBox="0 0 600 600" fill="none" xmlns="http://www.w3.org/2000/svg">
<rect width="600" height="600" fill="#969696"/>
<rect width="119" height="50" transform="translate(14 18)" fill="#A0A0A0"/>
<path d="M31.1591 51.2727C29.9773 51.2727 28.9403 50.9915 28.0483 50.429C27.1619 49.8665 26.4688 49.0795 25.9688 48.0682C25.4744 47.0568 25.2273 45.875 25.2273 44.5227C25.2273 43.1591 25.4744 41.9687 25.9688 40.9517C26.4688 39.9347 27.1619 39.1449 28.0483 38.5824C28.9403 38.0199 29.9773 37.7386 31.1591 37.7386C32.3409 37.7386 33.375 38.0199 34.2614 38.5824C35.1534 39.1449 35.8466 39.9347 36.3409 40.9517C36.8409 41.9687 37.0909 43.1591 37.0909 44.5227C37.0909 45.875 36.8409 47.0568 36.3409 48.0682C35.8466 49.0795 35.1534 49.8665 34.2614 50.429C33.375 50.9915 32.3409 51.2727 31.1591 51.2727ZM31.1591 49.4659C32.0568 49.4659 32.7955 49.2358 33.375 48.7756C33.9545 48.3153 34.3835 47.7102 34.6619 46.9602C34.9403 46.2102 35.0795 45.3977 35.0795 44.5227C35.0795 43.6477 34.9403 42.8324 34.6619 42.0767C34.3835 41.321 33.9545 40.7102 33.375 40.2443C32.7955 39.7784 32.0568 39.5455 31.1591 39.5455C30.2614 39.5455 29.5227 39.7784 28.9432 40.2443C28.3636 40.7102 27.9347 41.321 27.6562 42.0767C27.3778 42.8324 27.2386 43.6477 27.2386 44.5227C27.2386 45.3977 27.3778 46.2102 27.6562 46.9602C27.9347 47.7102 28.3636 48.3153 28.9432 48.7756C29.5227 49.2358 30.2614 49.4659 31.1591 49.4659ZM48.4112 45.6477V37.9091H50.4226V51H48.4112V48.7841H48.2749C47.968 49.4489 47.4908 50.0142 46.843 50.4801C46.1953 50.9403 45.3771 51.1705 44.3885 51.1705C43.5703 51.1705 42.843 50.9915 42.2067 50.6335C41.5703 50.2699 41.0703 49.7244 40.7067 48.9972C40.343 48.2642 40.1612 47.3409 40.1612 46.2273V37.9091H42.1726V46.0909C42.1726 47.0455 42.4396 47.8068 42.9737 48.375C43.5135 48.9432 44.201 49.2273 45.0362 49.2273C45.5362 49.2273 46.0447 49.0994 46.5618 48.8438C47.0845 48.5881 47.522 48.196 47.8743 47.6676C48.2322 47.1392 48.4112 46.4659 48.4112 45.6477ZM59.7997 37.9091V39.6136H53.0156V37.9091H59.7997ZM54.9929 34.7727H57.0043V47.25C57.0043 47.8182 57.0866 48.2443 57.2514 48.5284C57.4219 48.8068 57.6378 48.9943 57.8991 49.0909C58.1662 49.1818 58.4474 49.2273 58.7429 49.2273C58.9645 49.2273 59.1463 49.2159 59.2884 49.1932C59.4304 49.1648 59.544 49.142 59.6293 49.125L60.0384 50.9318C59.902 50.983 59.7116 51.0341 59.4673 51.0852C59.223 51.142 58.9134 51.1705 58.5384 51.1705C57.9702 51.1705 57.4134 51.0483 56.8679 50.804C56.3281 50.5597 55.8793 50.1875 55.5213 49.6875C55.169 49.1875 54.9929 48.5568 54.9929 47.7955V34.7727ZM71.8636 40.8409L70.0568 41.3523C69.9432 41.0511 69.7756 40.7585 69.554 40.4744C69.3381 40.1847 69.0426 39.946 68.6676 39.7585C68.2926 39.571 67.8125 39.4773 67.2273 39.4773C66.4261 39.4773 65.7585 39.6619 65.2244 40.0312C64.696 40.3949 64.4318 40.858 64.4318 41.4205C64.4318 41.9205 64.6136 42.3153 64.9773 42.6051C65.3409 42.8949 65.9091 43.1364 66.6818 43.3295L68.625 43.8068C69.7955 44.0909 70.6676 44.5256 71.2415 45.1108C71.8153 45.6903 72.1023 46.4375 72.1023 47.3523C72.1023 48.1023 71.8864 48.7727 71.4545 49.3636C71.0284 49.9545 70.4318 50.4205 69.6648 50.7614C68.8977 51.1023 68.0057 51.2727 66.9886 51.2727C65.6534 51.2727 64.5483 50.983 63.6733 50.4034C62.7983 49.8239 62.2443 48.9773 62.0114 47.8636L63.9205 47.3864C64.1023 48.0909 64.446 48.6193 64.9517 48.9716C65.4631 49.3239 66.1307 49.5 66.9545 49.5C67.892 49.5 68.6364 49.3011 69.1875 48.9034C69.7443 48.5 70.0227 48.017 70.0227 47.4545C70.0227 47 69.8636 46.6193 69.5455 46.3125C69.2273 46 68.7386 45.767 68.0795 45.6136L65.8977 45.1023C64.6989 44.8182 63.8182 44.3778 63.2557 43.7812C62.6989 43.179 62.4205 42.4261 62.4205 41.5227C62.4205 40.7841 62.6278 40.1307 63.0426 39.5625C63.4631 38.9943 64.0341 38.5483 64.7557 38.2244C65.483 37.9006 66.3068 37.7386 67.2273 37.7386C68.5227 37.7386 69.5398 38.0227 70.2784 38.5909C71.0227 39.1591 71.5511 39.9091 71.8636 40.8409ZM77.005 46.2273L76.9709 43.7386H77.38L83.1072 37.9091H85.5959L79.4936 44.0795H79.3232L77.005 46.2273ZM75.13 51V33.5455H77.1413V51H75.13ZM83.4482 51L78.3345 44.5227L79.7663 43.125L86.005 51H83.4482ZM88.1847 51V37.9091H90.196V51H88.1847ZM89.2074 35.7273C88.8153 35.7273 88.4773 35.5938 88.1932 35.3267C87.9148 35.0597 87.7756 34.7386 87.7756 34.3636C87.7756 33.9886 87.9148 33.6676 88.1932 33.4006C88.4773 33.1335 88.8153 33 89.2074 33C89.5994 33 89.9347 33.1335 90.2131 33.4006C90.4972 33.6676 90.6392 33.9886 90.6392 34.3636C90.6392 34.7386 90.4972 35.0597 90.2131 35.3267C89.9347 35.5938 89.5994 35.7273 89.2074 35.7273ZM93.88 51V37.9091H95.8232V39.8864H95.9595C96.1982 39.2386 96.63 38.7131 97.255 38.3097C97.88 37.9062 98.5845 37.7045 99.3686 37.7045C99.5163 37.7045 99.701 37.7074 99.9226 37.7131C100.144 37.7187 100.312 37.7273 100.425 37.7386V39.7841C100.357 39.767 100.201 39.7415 99.9567 39.7074C99.718 39.6676 99.4652 39.6477 99.1982 39.6477C98.5618 39.6477 97.9936 39.7812 97.4936 40.0483C96.9993 40.3097 96.6072 40.6733 96.3175 41.1392C96.0334 41.5994 95.8913 42.125 95.8913 42.7159V51H93.88ZM109.323 37.9091V39.6136H102.539V37.9091H109.323ZM104.516 34.7727H106.528V47.25C106.528 47.8182 106.61 48.2443 106.775 48.5284C106.945 48.8068 107.161 48.9943 107.423 49.0909C107.69 49.1818 107.971 49.2273 108.266 49.2273C108.488 49.2273 108.67 49.2159 108.812 49.1932C108.954 49.1648 109.067 49.142 109.153 49.125L109.562 50.9318C109.425 50.983 109.235 51.0341 108.991 51.0852C108.746 51.142 108.437 51.1705 108.062 51.1705C107.494 51.1705 106.937 51.0483 106.391 50.804C105.852 50.5597 105.403 50.1875 105.045 49.6875C104.692 49.1875 104.516 48.5568 104.516 47.7955V34.7727ZM121.387 40.8409L119.58 41.3523C119.467 41.0511 119.299 40.7585 119.077 40.4744C118.862 40.1847 118.566 39.946 118.191 39.7585C117.816 39.571 117.336 39.4773 116.751 39.4773C115.95 39.4773 115.282 39.6619 114.748 40.0312C114.219 40.3949 113.955 40.858 113.955 41.4205C113.955 41.9205 114.137 42.3153 114.501 42.6051C114.864 42.8949 115.433 43.1364 116.205 43.3295L118.148 43.8068C119.319 44.0909 120.191 44.5256 120.765 45.1108C121.339 45.6903 121.626 46.4375 121.626 47.3523C121.626 48.1023 121.41 48.7727 120.978 49.3636C120.552 49.9545 119.955 50.4205 119.188 50.7614C118.421 51.1023 117.529 51.2727 116.512 51.2727C115.177 51.2727 114.072 50.983 113.197 50.4034C112.322 49.8239 111.768 48.9773 111.535 47.8636L113.444 47.3864C113.626 48.0909 113.969 48.6193 114.475 48.9716C114.987 49.3239 115.654 49.5 116.478 49.5C117.415 49.5 118.16 49.3011 118.711 48.9034C119.268 48.5 119.546 48.017 119.546 47.4545C119.546 47 119.387 46.6193 119.069 46.3125C118.751 46 118.262 45.767 117.603 45.6136L115.421 45.1023C114.222 44.8182 113.342 44.3778 112.779 43.7812C112.222 43.179 111.944 42.4261 111.944 41.5227C111.944 40.7841 112.151 40.1307 112.566 39.5625C112.987 38.9943 113.558 38.5483 114.279 38.2244C115.006 37.9006 115.83 37.7386 116.751 37.7386C118.046 37.7386 119.063 38.0227 119.802 38.5909C120.546 39.1591 121.075 39.9091 121.387 40.8409Z" fill="white"/>
<rect width="56" height="50" transform="translate(139 18)" fill="#A0A0A0"/>
<path d="M156.159 51.2727C154.932 51.2727 153.875 50.983 152.989 50.4034C152.102 49.8239 151.42 49.0256 150.943 48.0085C150.466 46.9915 150.227 45.8295 150.227 44.5227C150.227 43.1932 150.472 42.0199 150.96 41.0028C151.455 39.9801 152.142 39.1818 153.023 38.608C153.909 38.0284 154.943 37.7386 156.125 37.7386C157.045 37.7386 157.875 37.9091 158.614 38.25C159.352 38.5909 159.957 39.0682 160.429 39.6818C160.901 40.2955 161.193 41.0114 161.307 41.8295H159.295C159.142 41.233 158.801 40.7045 158.273 40.2443C157.75 39.7784 157.045 39.5455 156.159 39.5455C155.375 39.5455 154.688 39.75 154.097 40.1591C153.511 40.5625 153.054 41.1335 152.724 41.8722C152.401 42.6051 152.239 43.4659 152.239 44.4545C152.239 45.4659 152.398 46.3466 152.716 47.0966C153.04 47.8466 153.494 48.429 154.08 48.8438C154.67 49.2585 155.364 49.4659 156.159 49.4659C156.682 49.4659 157.156 49.375 157.582 49.1932C158.009 49.0114 158.369 48.75 158.665 48.4091C158.96 48.0682 159.17 47.6591 159.295 47.1818H161.307C161.193 47.9545 160.912 48.6506 160.463 49.2699C160.02 49.8835 159.432 50.3722 158.699 50.7358C157.972 51.0938 157.125 51.2727 156.159 51.2727ZM168.099 51.3068C167.27 51.3068 166.517 51.1506 165.841 50.8381C165.165 50.5199 164.628 50.0625 164.23 49.4659C163.832 48.8636 163.634 48.1364 163.634 47.2841C163.634 46.5341 163.781 45.9261 164.077 45.4602C164.372 44.9886 164.767 44.6193 165.261 44.3523C165.756 44.0852 166.301 43.8864 166.898 43.7557C167.5 43.6193 168.105 43.5114 168.713 43.4318C169.509 43.3295 170.153 43.2528 170.648 43.2017C171.148 43.1449 171.511 43.0511 171.739 42.9205C171.972 42.7898 172.088 42.5625 172.088 42.2386V42.1705C172.088 41.3295 171.858 40.6761 171.398 40.2102C170.943 39.7443 170.253 39.5114 169.327 39.5114C168.366 39.5114 167.614 39.7216 167.068 40.142C166.523 40.5625 166.139 41.0114 165.918 41.4886L164.009 40.8068C164.349 40.0114 164.804 39.392 165.372 38.9489C165.946 38.5 166.571 38.1875 167.247 38.0114C167.929 37.8295 168.599 37.7386 169.259 37.7386C169.679 37.7386 170.162 37.7898 170.707 37.892C171.259 37.9886 171.79 38.1903 172.301 38.4972C172.818 38.804 173.247 39.267 173.588 39.8864C173.929 40.5057 174.099 41.3352 174.099 42.375V51H172.088V49.2273H171.986C171.849 49.5114 171.622 49.8153 171.304 50.1392C170.986 50.4631 170.563 50.7386 170.034 50.9659C169.506 51.1932 168.861 51.3068 168.099 51.3068ZM168.406 49.5C169.202 49.5 169.872 49.3438 170.418 49.0312C170.969 48.7188 171.384 48.3153 171.662 47.821C171.946 47.3267 172.088 46.8068 172.088 46.2614V44.4205C172.003 44.5227 171.815 44.6165 171.526 44.7017C171.241 44.7812 170.912 44.8523 170.537 44.9148C170.168 44.9716 169.807 45.0227 169.455 45.0682C169.108 45.108 168.827 45.142 168.611 45.1705C168.088 45.2386 167.599 45.3494 167.145 45.5028C166.696 45.6506 166.332 45.875 166.054 46.1761C165.781 46.4716 165.645 46.875 165.645 47.3864C165.645 48.0852 165.903 48.6136 166.42 48.9716C166.943 49.3239 167.605 49.5 168.406 49.5ZM183.464 37.9091V39.6136H176.68V37.9091H183.464ZM178.657 34.7727H180.668V47.25C180.668 47.8182 180.751 48.2443 180.915 48.5284C181.086 48.8068 181.302 48.9943 181.563 49.0909C181.83 49.1818 182.112 49.2273 182.407 49.2273C182.629 49.2273 182.81 49.2159 182.952 49.1932C183.094 49.1648 183.208 49.142 183.293 49.125L183.702 50.9318C183.566 50.983 183.376 51.0341 183.131 51.0852C182.887 51.142 182.577 51.1705 182.202 51.1705C181.634 51.1705 181.077 51.0483 180.532 50.804C179.992 50.5597 179.543 50.1875 179.185 49.6875C178.833 49.1875 178.657 48.5568 178.657 47.7955V34.7727Z" fill="white"/>
<rect width="128" height="50" transform="translate(201 18)" fill="#A0A0A0"/>
<path d="M218.534 37.9091V39.6136H211.75V37.9091H218.534ZM213.727 34.7727H215.739V47.25C215.739 47.8182 215.821 48.2443 215.986 48.5284C216.156 48.8068 216.372 48.9943 216.634 49.0909C216.901 49.1818 217.182 49.2273 217.477 49.2273C217.699 49.2273 217.881 49.2159 218.023 49.1932C218.165 49.1648 218.278 49.142 218.364 49.125L218.773 50.9318C218.636 50.983 218.446 51.0341 218.202 51.0852C217.957 51.142 217.648 51.1705 217.273 51.1705C216.705 51.1705 216.148 51.0483 215.602 50.804C215.063 50.5597 214.614 50.1875 214.256 49.6875C213.903 49.1875 213.727 48.5568 213.727 47.7955V34.7727ZM223.852 43.125V51H221.841V33.5455H223.852V39.9545H224.023C224.33 39.2784 224.79 38.7415 225.403 38.3438C226.023 37.9403 226.847 37.7386 227.875 37.7386C228.767 37.7386 229.548 37.9176 230.219 38.2756C230.889 38.6278 231.409 39.1705 231.778 39.9034C232.153 40.6307 232.341 41.5568 232.341 42.6818V51H230.33V42.8182C230.33 41.7784 230.06 40.9744 229.52 40.4062C228.986 39.8324 228.244 39.5455 227.295 39.5455C226.636 39.5455 226.045 39.6847 225.523 39.9631C225.006 40.2415 224.597 40.6477 224.295 41.1818C224 41.7159 223.852 42.3636 223.852 43.125ZM236.021 51V37.9091H237.964V39.8864H238.1C238.339 39.2386 238.771 38.7131 239.396 38.3097C240.021 37.9062 240.725 37.7045 241.509 37.7045C241.657 37.7045 241.842 37.7074 242.063 37.7131C242.285 37.7187 242.452 37.7273 242.566 37.7386V39.7841C242.498 39.767 242.342 39.7415 242.097 39.7074C241.859 39.6676 241.606 39.6477 241.339 39.6477C240.702 39.6477 240.134 39.7812 239.634 40.0483C239.14 40.3097 238.748 40.6733 238.458 41.1392C238.174 41.5994 238.032 42.125 238.032 42.7159V51H236.021ZM250.04 51.2727C248.779 51.2727 247.691 50.9943 246.776 50.4375C245.867 49.875 245.165 49.0909 244.671 48.0852C244.183 47.0739 243.938 45.8977 243.938 44.5568C243.938 43.2159 244.183 42.0341 244.671 41.0114C245.165 39.983 245.853 39.1818 246.734 38.608C247.62 38.0284 248.654 37.7386 249.836 37.7386C250.518 37.7386 251.191 37.8523 251.856 38.0795C252.521 38.3068 253.126 38.6761 253.671 39.1875C254.217 39.6932 254.651 40.3636 254.975 41.1989C255.299 42.0341 255.461 43.0625 255.461 44.2841V45.1364H245.37V43.3977H253.415C253.415 42.6591 253.268 42 252.972 41.4205C252.683 40.8409 252.268 40.3835 251.728 40.0483C251.194 39.7131 250.563 39.5455 249.836 39.5455C249.035 39.5455 248.342 39.7443 247.756 40.142C247.177 40.5341 246.731 41.0455 246.418 41.6761C246.106 42.3068 245.95 42.983 245.95 43.7045V44.8636C245.95 45.8523 246.12 46.6903 246.461 47.3778C246.808 48.0597 247.288 48.5795 247.901 48.9375C248.515 49.2898 249.228 49.4659 250.04 49.4659C250.569 49.4659 251.046 49.392 251.472 49.2443C251.904 49.0909 252.276 48.8636 252.589 48.5625C252.901 48.2557 253.143 47.875 253.313 47.4205L255.256 47.9659C255.052 48.625 254.708 49.2045 254.225 49.7045C253.742 50.1989 253.146 50.5852 252.435 50.8636C251.725 51.1364 250.927 51.2727 250.04 51.2727ZM267.793 40.8409L265.987 41.3523C265.873 41.0511 265.705 40.7585 265.484 40.4744C265.268 40.1847 264.972 39.946 264.597 39.7585C264.222 39.571 263.742 39.4773 263.157 39.4773C262.356 39.4773 261.688 39.6619 261.154 40.0312C260.626 40.3949 260.362 40.858 260.362 41.4205C260.362 41.9205 260.543 42.3153 260.907 42.6051C261.271 42.8949 261.839 43.1364 262.612 43.3295L264.555 43.8068C265.725 44.0909 266.597 44.5256 267.171 45.1108C267.745 45.6903 268.032 46.4375 268.032 47.3523C268.032 48.1023 267.816 48.7727 267.384 49.3636C266.958 49.9545 266.362 50.4205 265.594 50.7614C264.827 51.1023 263.935 51.2727 262.918 51.2727C261.583 51.2727 260.478 50.983 259.603 50.4034C258.728 49.8239 258.174 48.9773 257.941 47.8636L259.85 47.3864C260.032 48.0909 260.376 48.6193 260.881 48.9716C261.393 49.3239 262.06 49.5 262.884 49.5C263.822 49.5 264.566 49.3011 265.117 48.9034C265.674 48.5 265.952 48.017 265.952 47.4545C265.952 47 265.793 46.6193 265.475 46.3125C265.157 46 264.668 45.767 264.009 45.6136L261.827 45.1023C260.629 44.8182 259.748 44.3778 259.185 43.7812C258.629 43.179 258.35 42.4261 258.35 41.5227C258.35 40.7841 258.558 40.1307 258.972 39.5625C259.393 38.9943 259.964 38.5483 260.685 38.2244C261.413 37.9006 262.237 37.7386 263.157 37.7386C264.452 37.7386 265.469 38.0227 266.208 38.5909C266.952 39.1591 267.481 39.9091 267.793 40.8409ZM273.071 43.125V51H271.06V33.5455H273.071V39.9545H273.241C273.548 39.2784 274.009 38.7415 274.622 38.3438C275.241 37.9403 276.065 37.7386 277.094 37.7386C277.986 37.7386 278.767 37.9176 279.438 38.2756C280.108 38.6278 280.628 39.1705 280.997 39.9034C281.372 40.6307 281.56 41.5568 281.56 42.6818V51H279.548V42.8182C279.548 41.7784 279.278 40.9744 278.739 40.4062C278.205 39.8324 277.463 39.5455 276.514 39.5455C275.855 39.5455 275.264 39.6847 274.741 39.9631C274.224 40.2415 273.815 40.6477 273.514 41.1818C273.219 41.7159 273.071 42.3636 273.071 43.125ZM290.558 51.2727C289.376 51.2727 288.339 50.9915 287.447 50.429C286.56 49.8665 285.867 49.0795 285.367 48.0682C284.873 47.0568 284.626 45.875 284.626 44.5227C284.626 43.1591 284.873 41.9687 285.367 40.9517C285.867 39.9347 286.56 39.1449 287.447 38.5824C288.339 38.0199 289.376 37.7386 290.558 37.7386C291.739 37.7386 292.773 38.0199 293.66 38.5824C294.552 39.1449 295.245 39.9347 295.739 40.9517C296.239 41.9687 296.489 43.1591 296.489 44.5227C296.489 45.875 296.239 47.0568 295.739 48.0682C295.245 49.0795 294.552 49.8665 293.66 50.429C292.773 50.9915 291.739 51.2727 290.558 51.2727ZM290.558 49.4659C291.455 49.4659 292.194 49.2358 292.773 48.7756C293.353 48.3153 293.782 47.7102 294.06 46.9602C294.339 46.2102 294.478 45.3977 294.478 44.5227C294.478 43.6477 294.339 42.8324 294.06 42.0767C293.782 41.321 293.353 40.7102 292.773 40.2443C292.194 39.7784 291.455 39.5455 290.558 39.5455C289.66 39.5455 288.921 39.7784 288.342 40.2443C287.762 40.7102 287.333 41.321 287.055 42.0767C286.776 42.8324 286.637 43.6477 286.637 44.5227C286.637 45.3977 286.776 46.2102 287.055 46.9602C287.333 47.7102 287.762 48.3153 288.342 48.7756C288.921 49.2358 289.66 49.4659 290.558 49.4659ZM301.571 33.5455V51H299.56V33.5455H301.571ZM310.198 51.2727C309.107 51.2727 308.144 50.9972 307.309 50.446C306.474 49.8892 305.82 49.1051 305.349 48.0938C304.877 47.0767 304.641 45.875 304.641 44.4886C304.641 43.1136 304.877 41.9205 305.349 40.9091C305.82 39.8977 306.477 39.1165 307.317 38.5653C308.158 38.0142 309.13 37.7386 310.232 37.7386C311.085 37.7386 311.758 37.8807 312.252 38.1648C312.752 38.4432 313.133 38.7614 313.394 39.1193C313.661 39.4716 313.869 39.7614 314.016 39.9886H314.187V33.5455H316.198V51H314.255V48.9886H314.016C313.869 49.2273 313.658 49.5284 313.386 49.892C313.113 50.25 312.724 50.571 312.218 50.8551C311.712 51.1335 311.039 51.2727 310.198 51.2727ZM310.471 49.4659C311.278 49.4659 311.96 49.2557 312.516 48.8352C313.073 48.4091 313.496 47.821 313.786 47.071C314.076 46.3153 314.221 45.4432 314.221 44.4545C314.221 43.4773 314.079 42.6222 313.795 41.8892C313.511 41.1506 313.09 40.5767 312.533 40.1676C311.977 39.7528 311.289 39.5455 310.471 39.5455C309.619 39.5455 308.908 39.7642 308.34 40.2017C307.778 40.6335 307.354 41.2216 307.07 41.9659C306.792 42.7045 306.653 43.5341 306.653 44.4545C306.653 45.3864 306.795 46.233 307.079 46.9943C307.369 47.75 307.795 48.3523 308.357 48.8011C308.925 49.2443 309.63 49.4659 310.471 49.4659Z" fill="white"/>
</svg>
