<svg width="600" height="600" viewBox="0 0 600 600" fill="none" xmlns="http://www.w3.org/2000/svg">
<rect width="600" height="600" fill="#969696"/>
<rect width="119" height="50" transform="translate(14 18)" fill="#A0A0A0"/>
<path d="M31.1591 51.2727C29.9773 51.2727 28.9403 50.9915 28.0483 50.429C27.1619 49.8665 26.4688 49.0795 25.9688 48.0682C25.4744 47.0568 25.2273 45.875 25.2273 44.5227C25.2273 43.1591 25.4744 41.9687 25.9688 40.9517C26.4688 39.9347 27.1619 39.1449 28.0483 38.5824C28.9403 38.0199 29.9773 37.7386 31.1591 37.7386C32.3409 37.7386 33.375 38.0199 34.2614 38.5824C35.1534 39.1449 35.8466 39.9347 36.3409 40.9517C36.8409 41.9687 37.0909 43.1591 37.0909 44.5227C37.0909 45.875 36.8409 47.0568 36.3409 48.0682C35.8466 49.0795 35.1534 49.8665 34.2614 50.429C33.375 50.9915 32.3409 51.2727 31.1591 51.2727ZM31.1591 49.4659C32.0568 49.4659 32.7955 49.2358 33.375 48.7756C33.9545 48.3153 34.3835 47.7102 34.6619 46.9602C34.9403 46.2102 35.0795 45.3977 35.0795 44.5227C35.0795 43.6477 34.9403 42.8324 34.6619 42.0767C34.3835 41.321 33.9545 40.7102 33.375 40.2443C32.7955 39.7784 32.0568 39.5455 31.1591 39.5455C30.2614 39.5455 29.5227 39.7784 28.9432 40.2443C28.3636 40.7102 27.9347 41.321 27.6562 42.0767C27.3778 42.8324 27.2386 43.6477 27.2386 44.5227C27.2386 45.3977 27.3778 46.2102 27.6562 46.9602C27.9347 47.7102 28.3636 48.3153 28.9432 48.7756C29.5227 49.2358 30.2614 49.4659 31.1591 49.4659ZM48.4112 45.6477V37.9091H50.4226V51H48.4112V48.7841H48.2749C47.968 49.4489 47.4908 50.0142 46.843 50.4801C46.1953 50.9403 45.3771 51.1705 44.3885 51.1705C43.5703 51.1705 42.843 50.9915 42.2067 50.6335C41.5703 50.2699 41.0703 49.7244 40.7067 48.9972C40.343 48.2642 40.1612 47.3409 40.1612 46.2273V37.9091H42.1726V46.0909C42.1726 47.0455 42.4396 47.8068 42.9737 48.375C43.5135 48.9432 44.201 49.2273 45.0362 49.2273C45.5362 49.2273 46.0447 49.0994 46.5618 48.8438C47.0845 48.5881 47.522 48.196 47.8743 47.6676C48.2322 47.1392 48.4112 46.4659 48.4112 45.6477ZM59.7997 37.9091V39.6136H53.0156V37.9091H59.7997ZM54.9929 34.7727H57.0043V47.25C57.0043 47.8182 57.0866 48.2443 57.2514 48.5284C57.4219 48.8068 57.6378 48.9943 57.8991 49.0909C58.1662 49.1818 58.4474 49.2273 58.7429 49.2273C58.9645 49.2273 59.1463 49.2159 59.2884 49.1932C59.4304 49.1648 59.544 49.142 59.6293 49.125L60.0384 50.9318C59.902 50.983 59.7116 51.0341 59.4673 51.0852C59.223 51.142 58.9134 51.1705 58.5384 51.1705C57.9702 51.1705 57.4134 51.0483 56.8679 50.804C56.3281 50.5597 55.8793 50.1875 55.5213 49.6875C55.169 49.1875 54.9929 48.5568 54.9929 47.7955V34.7727ZM71.8636 40.8409L70.0568 41.3523C69.9432 41.0511 69.7756 40.7585 69.554 40.4744C69.3381 40.1847 69.0426 39.946 68.6676 39.7585C68.2926 39.571 67.8125 39.4773 67.2273 39.4773C66.4261 39.4773 65.7585 39.6619 65.2244 40.0312C64.696 40.3949 64.4318 40.858 64.4318 41.4205C64.4318 41.9205 64.6136 42.3153 64.9773 42.6051C65.3409 42.8949 65.9091 43.1364 66.6818 43.3295L68.625 43.8068C69.7955 44.0909 70.6676 44.5256 71.2415 45.1108C71.8153 45.6903 72.1023 46.4375 72.1023 47.3523C72.1023 48.1023 71.8864 48.7727 71.4545 49.3636C71.0284 49.9545 70.4318 50.4205 69.6648 50.7614C68.8977 51.1023 68.0057 51.2727 66.9886 51.2727C65.6534 51.2727 64.5483 50.983 63.6733 50.4034C62.7983 49.8239 62.2443 48.9773 62.0114 47.8636L63.9205 47.3864C64.1023 48.0909 64.446 48.6193 64.9517 48.9716C65.4631 49.3239 66.1307 49.5 66.9545 49.5C67.892 49.5 68.6364 49.3011 69.1875 48.9034C69.7443 48.5 70.0227 48.017 70.0227 47.4545C70.0227 47 69.8636 46.6193 69.5455 46.3125C69.2273 46 68.7386 45.767 68.0795 45.6136L65.8977 45.1023C64.6989 44.8182 63.8182 44.3778 63.2557 43.7812C62.6989 43.179 62.4205 42.4261 62.4205 41.5227C62.4205 40.7841 62.6278 40.1307 63.0426 39.5625C63.4631 38.9943 64.0341 38.5483 64.7557 38.2244C65.483 37.9006 66.3068 37.7386 67.2273 37.7386C68.5227 37.7386 69.5398 38.0227 70.2784 38.5909C71.0227 39.1591 71.5511 39.9091 71.8636 40.8409ZM77.005 46.2273L76.9709 43.7386H77.38L83.1072 37.9091H85.5959L79.4936 44.0795H79.3232L77.005 46.2273ZM75.13 51V33.5455H77.1413V51H75.13ZM83.4482 51L78.3345 44.5227L79.7663 43.125L86.005 51H83.4482ZM88.1847 51V37.9091H90.196V51H88.1847ZM89.2074 35.7273C88.8153 35.7273 88.4773 35.5938 88.1932 35.3267C87.9148 35.0597 87.7756 34.7386 87.7756 34.3636C87.7756 33.9886 87.9148 33.6676 88.1932 33.4006C88.4773 33.1335 88.8153 33 89.2074 33C89.5994 33 89.9347 33.1335 90.2131 33.4006C90.4972 33.6676 90.6392 33.9886 90.6392 34.3636C90.6392 34.7386 90.4972 35.0597 90.2131 35.3267C89.9347 35.5938 89.5994 35.7273 89.2074 35.7273ZM93.88 51V37.9091H95.8232V39.8864H95.9595C96.1982 39.2386 96.63 38.7131 97.255 38.3097C97.88 37.9062 98.5845 37.7045 99.3686 37.7045C99.5163 37.7045 99.701 37.7074 99.9226 37.7131C100.144 37.7187 100.312 37.7273 100.425 37.7386V39.7841C100.357 39.767 100.201 39.7415 99.9567 39.7074C99.718 39.6676 99.4652 39.6477 99.1982 39.6477C98.5618 39.6477 97.9936 39.7812 97.4936 40.0483C96.9993 40.3097 96.6072 40.6733 96.3175 41.1392C96.0334 41.5994 95.8913 42.125 95.8913 42.7159V51H93.88ZM109.323 37.9091V39.6136H102.539V37.9091H109.323ZM104.516 34.7727H106.528V47.25C106.528 47.8182 106.61 48.2443 106.775 48.5284C106.945 48.8068 107.161 48.9943 107.423 49.0909C107.69 49.1818 107.971 49.2273 108.266 49.2273C108.488 49.2273 108.67 49.2159 108.812 49.1932C108.954 49.1648 109.067 49.142 109.153 49.125L109.562 50.9318C109.425 50.983 109.235 51.0341 108.991 51.0852C108.746 51.142 108.437 51.1705 108.062 51.1705C107.494 51.1705 106.937 51.0483 106.391 50.804C105.852 50.5597 105.403 50.1875 105.045 49.6875C104.692 49.1875 104.516 48.5568 104.516 47.7955V34.7727ZM121.387 40.8409L119.58 41.3523C119.467 41.0511 119.299 40.7585 119.077 40.4744C118.862 40.1847 118.566 39.946 118.191 39.7585C117.816 39.571 117.336 39.4773 116.751 39.4773C115.95 39.4773 115.282 39.6619 114.748 40.0312C114.219 40.3949 113.955 40.858 113.955 41.4205C113.955 41.9205 114.137 42.3153 114.501 42.6051C114.864 42.8949 115.433 43.1364 116.205 43.3295L118.148 43.8068C119.319 44.0909 120.191 44.5256 120.765 45.1108C121.339 45.6903 121.626 46.4375 121.626 47.3523C121.626 48.1023 121.41 48.7727 120.978 49.3636C120.552 49.9545 119.955 50.4205 119.188 50.7614C118.421 51.1023 117.529 51.2727 116.512 51.2727C115.177 51.2727 114.072 50.983 113.197 50.4034C112.322 49.8239 111.768 48.9773 111.535 47.8636L113.444 47.3864C113.626 48.0909 113.969 48.6193 114.475 48.9716C114.987 49.3239 115.654 49.5 116.478 49.5C117.415 49.5 118.16 49.3011 118.711 48.9034C119.268 48.5 119.546 48.017 119.546 47.4545C119.546 47 119.387 46.6193 119.069 46.3125C118.751 46 118.262 45.767 117.603 45.6136L115.421 45.1023C114.222 44.8182 113.342 44.3778 112.779 43.7812C112.222 43.179 111.944 42.4261 111.944 41.5227C111.944 40.7841 112.151 40.1307 112.566 39.5625C112.987 38.9943 113.558 38.5483 114.279 38.2244C115.006 37.9006 115.83 37.7386 116.751 37.7386C118.046 37.7386 119.063 38.0227 119.802 38.5909C120.546 39.1591 121.075 39.9091 121.387 40.8409Z" fill="white"/>
</svg>
