<svg width="616" height="948" viewBox="0 0 616 948" fill="none" xmlns="http://www.w3.org/2000/svg">
<rect x="616" y="627" width="72.0001" height="616" transform="rotate(90 616 627)" fill="#969696"/>
<rect x="616" y="710" width="238" height="616" transform="rotate(90 616 710)" fill="#969696"/>
<rect x="616" y="9.15527e-05" width="616" height="616" transform="rotate(90 616 9.15527e-05)" fill="#969696"/>
<rect x="247" y="881" width="63" height="63" transform="rotate(-180 247 881)" fill="#3D3D3D"/>
<rect x="81" y="780" width="63" height="63" transform="rotate(-180 81 780)" fill="#3D3D3D"/>
<rect x="547" y="908" width="63" height="63" transform="rotate(-180 547 908)" fill="#3D3D3D"/>
<rect x="605" y="808" width="20" height="63" transform="rotate(-180 605 808)" fill="#3D3D3D"/>
<rect x="479" y="941" width="63" height="21" transform="rotate(-180 479 941)" fill="#3D3D3D"/>
<rect x="247" y="939" width="63" height="19" transform="rotate(-180 247 939)" fill="#3D3D3D"/>
<rect x="147" y="882" width="63" height="63" transform="rotate(-180 147 882)" fill="#3D3D3D"/>
<rect x="346" y="810" width="63" height="63" transform="rotate(-180 346 810)" fill="#3D3D3D"/>
<rect x="247" y="781" width="63" height="63" transform="rotate(-180 247 781)" fill="#CCCCCC"/>
<rect x="48" y="881" width="40" height="63" transform="rotate(-180 48 881)" fill="#CCCCCC"/>
<rect x="413" y="880" width="63" height="63" transform="rotate(-180 413 880)" fill="#CCCCCC"/>
<rect x="346" y="939" width="63" height="52" transform="rotate(-180 346 939)" fill="#CCCCCC"/>
<rect x="546" y="808" width="63" height="63" transform="rotate(-180 546 808)" fill="#CCCCCC"/>
<rect x="413" y="744" width="63" height="24" transform="rotate(-180 413 744)" fill="#CCCCCC"/>
<rect x="605" y="908" width="20" height="63" transform="rotate(-180 605 908)" fill="#CCCCCC"/>
<rect x="217" y="785" width="29" height="2" transform="rotate(90 217 785)" fill="#3D3D3D"/>
<rect x="116" y="785" width="29" height="2" transform="rotate(90 116 785)" fill="#3D3D3D"/>
<rect x="116" y="886" width="29" height="2" transform="rotate(90 116 886)" fill="#3D3D3D"/>
<rect x="116" y="919" width="18" height="2" transform="rotate(90 116 919)" fill="#3D3D3D"/>
<rect x="116" y="752" width="29" height="2" transform="rotate(90 116 752)" fill="#3D3D3D"/>
<rect x="116" y="717" width="29" height="2" transform="rotate(90 116 717)" fill="#3D3D3D"/>
<rect x="151" y="748" width="29" height="2" fill="#3D3D3D"/>
<rect x="118" y="748" width="29" height="2" fill="#3D3D3D"/>
<rect x="83" y="748" width="29" height="2" fill="#3D3D3D"/>
<rect x="8" y="748" width="6" height="2" fill="#3D3D3D"/>
<rect x="217" y="889" width="29" height="2" transform="rotate(90 217 889)" fill="#3D3D3D"/>
<rect x="280" y="850" width="29" height="2" transform="rotate(-180 280 850)" fill="#3D3D3D"/>
<rect x="180" y="851" width="29" height="2" transform="rotate(-180 180 851)" fill="#3D3D3D"/>
<rect x="80" y="851" width="29" height="2" transform="rotate(-180 80 851)" fill="#3D3D3D"/>
<rect x="313" y="850" width="29" height="2" transform="rotate(-180 313 850)" fill="#3D3D3D"/>
<rect x="346" y="850" width="29" height="2" transform="rotate(-180 346 850)" fill="#3D3D3D"/>
<rect x="379" y="779" width="29" height="2" transform="rotate(-180 379 779)" fill="#3D3D3D"/>
<rect x="479" y="778" width="29" height="2" transform="rotate(-180 479 778)" fill="#3D3D3D"/>
<rect x="579" y="778" width="29" height="2" transform="rotate(-180 579 778)" fill="#3D3D3D"/>
<rect x="580" y="877" width="29" height="2" transform="rotate(-180 580 877)" fill="#3D3D3D"/>
<rect x="446" y="850" width="29" height="2" transform="rotate(-180 446 850)" fill="#3D3D3D"/>
<rect x="447" y="916" width="29" height="2" transform="rotate(-90 447 916)" fill="#3D3D3D"/>
<rect x="314" y="844" width="29" height="2" transform="rotate(-90 314 844)" fill="#3D3D3D"/>
<rect x="314" y="745" width="25" height="2" transform="rotate(-90 314 745)" fill="#3D3D3D"/>
<rect x="314" y="883" width="29" height="2" transform="rotate(-90 314 883)" fill="#3D3D3D"/>
<rect x="447" y="844" width="29" height="2" transform="rotate(-90 447 844)" fill="#3D3D3D"/>
<rect x="447" y="883" width="29" height="2" transform="rotate(-90 447 883)" fill="#3D3D3D"/>
<rect x="515" y="841" width="29" height="2" transform="rotate(-90 515 841)" fill="#3D3D3D"/>
<rect x="515" y="941" width="29" height="2" transform="rotate(-90 515 941)" fill="#3D3D3D"/>
<rect x="447" y="811" width="29" height="2" transform="rotate(-90 447 811)" fill="#3D3D3D"/>
<rect x="380" y="775" width="29" height="2" transform="rotate(-90 380 775)" fill="#3D3D3D"/>
<rect x="608" y="636" width="25" height="63" transform="rotate(90 608 636)" fill="#CCCCCC"/>
<path d="M568.023 646C567.929 645.713 567.805 645.456 567.652 645.229C567.501 644.999 567.321 644.803 567.111 644.641C566.903 644.479 566.668 644.355 566.403 644.27C566.139 644.185 565.849 644.142 565.534 644.142C565.017 644.142 564.547 644.276 564.124 644.543C563.7 644.81 563.364 645.203 563.114 645.723C562.864 646.243 562.739 646.881 562.739 647.636C562.739 648.392 562.865 649.03 563.118 649.55C563.371 650.07 563.713 650.463 564.145 650.73C564.577 650.997 565.063 651.131 565.602 651.131C566.102 651.131 566.543 651.024 566.923 650.811C567.307 650.595 567.605 650.291 567.818 649.899C568.034 649.504 568.142 649.04 568.142 648.506L568.466 648.574H565.841V647.636H569.165V648.574C569.165 649.293 569.011 649.918 568.705 650.449C568.401 650.98 567.98 651.392 567.443 651.685C566.909 651.975 566.295 652.119 565.602 652.119C564.83 652.119 564.151 651.938 563.565 651.574C562.983 651.21 562.528 650.693 562.202 650.023C561.878 649.352 561.716 648.557 561.716 647.636C561.716 646.946 561.808 646.325 561.993 645.774C562.18 645.22 562.445 644.749 562.786 644.359C563.126 643.97 563.53 643.672 563.996 643.465C564.462 643.257 564.974 643.154 565.534 643.154C565.994 643.154 566.423 643.223 566.821 643.362C567.222 643.499 567.578 643.693 567.891 643.946C568.206 644.196 568.469 644.496 568.679 644.845C568.889 645.192 569.034 645.577 569.114 646H568.023ZM573.583 652.136C572.952 652.136 572.408 651.997 571.951 651.719C571.496 651.438 571.145 651.046 570.898 650.543C570.654 650.037 570.532 649.449 570.532 648.779C570.532 648.108 570.654 647.517 570.898 647.006C571.145 646.492 571.489 646.091 571.929 645.804C572.373 645.514 572.89 645.369 573.48 645.369C573.821 645.369 574.158 645.426 574.49 645.54C574.823 645.654 575.125 645.838 575.398 646.094C575.671 646.347 575.888 646.682 576.05 647.1C576.212 647.517 576.293 648.031 576.293 648.642V649.068H571.248V648.199H575.27C575.27 647.83 575.196 647.5 575.049 647.21C574.904 646.921 574.696 646.692 574.426 646.524C574.159 646.357 573.844 646.273 573.48 646.273C573.08 646.273 572.733 646.372 572.441 646.571C572.151 646.767 571.928 647.023 571.772 647.338C571.615 647.654 571.537 647.992 571.537 648.352V648.932C571.537 649.426 571.623 649.845 571.793 650.189C571.966 650.53 572.206 650.79 572.513 650.969C572.82 651.145 573.176 651.233 573.583 651.233C573.847 651.233 574.086 651.196 574.299 651.122C574.515 651.046 574.701 650.932 574.857 650.781C575.013 650.628 575.134 650.438 575.219 650.21L576.191 650.483C576.088 650.813 575.917 651.102 575.675 651.352C575.434 651.6 575.135 651.793 574.78 651.932C574.425 652.068 574.026 652.136 573.583 652.136ZM578.828 648.063V652H577.823V645.455H578.794V646.477H578.88C579.033 646.145 579.266 645.878 579.578 645.676C579.891 645.472 580.294 645.369 580.789 645.369C581.232 645.369 581.62 645.46 581.952 645.642C582.284 645.821 582.543 646.094 582.728 646.46C582.912 646.824 583.005 647.284 583.005 647.841V652H581.999V647.909C581.999 647.395 581.865 646.994 581.598 646.708C581.331 646.418 580.965 646.273 580.499 646.273C580.178 646.273 579.891 646.342 579.638 646.482C579.388 646.621 579.191 646.824 579.046 647.091C578.901 647.358 578.828 647.682 578.828 648.063ZM584.842 652V645.455H585.814V646.443H585.882C586.001 646.119 586.217 645.857 586.53 645.655C586.842 645.453 587.195 645.352 587.587 645.352C587.661 645.352 587.753 645.354 587.864 645.357C587.974 645.359 588.058 645.364 588.115 645.369V646.392C588.081 646.384 588.003 646.371 587.881 646.354C587.761 646.334 587.635 646.324 587.501 646.324C587.183 646.324 586.899 646.391 586.649 646.524C586.402 646.655 586.206 646.837 586.061 647.07C585.919 647.3 585.848 647.563 585.848 647.858V652H584.842ZM591.852 652.136C591.222 652.136 590.678 651.997 590.22 651.719C589.766 651.438 589.415 651.046 589.168 650.543C588.923 650.037 588.801 649.449 588.801 648.779C588.801 648.108 588.923 647.517 589.168 647.006C589.415 646.492 589.759 646.091 590.199 645.804C590.642 645.514 591.159 645.369 591.75 645.369C592.091 645.369 592.428 645.426 592.76 645.54C593.092 645.654 593.395 645.838 593.668 646.094C593.94 646.347 594.158 646.682 594.32 647.1C594.482 647.517 594.562 648.031 594.562 648.642V649.068H589.517V648.199H593.54C593.54 647.83 593.466 647.5 593.318 647.21C593.173 646.921 592.966 646.692 592.696 646.524C592.429 646.357 592.114 646.273 591.75 646.273C591.349 646.273 591.003 646.372 590.71 646.571C590.42 646.767 590.197 647.023 590.041 647.338C589.885 647.654 589.807 647.992 589.807 648.352V648.932C589.807 649.426 589.892 649.845 590.062 650.189C590.236 650.53 590.476 650.79 590.783 650.969C591.089 651.145 591.446 651.233 591.852 651.233C592.116 651.233 592.355 651.196 592.568 651.122C592.784 651.046 592.97 650.932 593.126 650.781C593.283 650.628 593.403 650.438 593.489 650.21L594.46 650.483C594.358 650.813 594.186 651.102 593.945 651.352C593.703 651.6 593.405 651.793 593.05 651.932C592.695 652.068 592.295 652.136 591.852 652.136Z" fill="white"/>
<rect x="30" y="681" width="4" height="4" transform="rotate(-180 30 681)" fill="#3D3D3D"/>
<rect x="44" y="681" width="4" height="4" transform="rotate(-180 44 681)" fill="#3D3D3D"/>
<rect x="58" y="681" width="4" height="4" transform="rotate(-180 58 681)" fill="#3D3D3D"/>
<rect x="72" y="681" width="4" height="4" transform="rotate(-180 72 681)" fill="#3D3D3D"/>
<rect x="549" y="681" width="4" height="4" transform="rotate(-180 549 681)" fill="#3D3D3D"/>
<rect x="563" y="681" width="4" height="4" transform="rotate(-180 563 681)" fill="#A0A0A0"/>
<rect x="501" y="681" width="4" height="4" transform="rotate(-180 501 681)" fill="#3D3D3D"/>
<rect x="577" y="681" width="4" height="4" transform="rotate(-180 577 681)" fill="#3D3D3D"/>
<rect x="515" y="681" width="4" height="4" transform="rotate(-180 515 681)" fill="#3D3D3D"/>
<rect x="591" y="681" width="4" height="4" transform="rotate(-180 591 681)" fill="#3D3D3D"/>
<rect x="529" y="681" width="4" height="4" transform="rotate(-180 529 681)" fill="#A0A0A0"/>
<rect x="301" y="636" width="25" height="139" transform="rotate(90 301 636)" fill="#CCCCCC"/>
<rect x="148" y="636" width="25" height="140" transform="rotate(90 148 636)" fill="#CCCCCC"/>
<rect x="608" y="666" width="25.0001" height="600" transform="rotate(90 608 666)" fill="#CCCCCC"/>
<rect x="379" y="636" width="25" height="64" transform="rotate(90 379 636)" fill="#CCCCCC"/>
<rect x="455" y="636" width="25" height="64" transform="rotate(90 455 636)" fill="#CCCCCC"/>
<rect x="532" y="636" width="25" height="64" transform="rotate(90 532 636)" fill="#CCCCCC"/>
<rect x="608" y="636" width="25" height="64" transform="rotate(90 608 636)" fill="#CCCCCC"/>
<path d="M224.08 647H223.023C222.96 646.696 222.851 646.429 222.695 646.199C222.541 645.969 222.354 645.776 222.132 645.619C221.913 645.46 221.67 645.341 221.403 645.261C221.136 645.182 220.858 645.142 220.568 645.142C220.04 645.142 219.561 645.276 219.132 645.543C218.706 645.81 218.366 646.203 218.114 646.723C217.864 647.243 217.739 647.881 217.739 648.636C217.739 649.392 217.864 650.03 218.114 650.55C218.366 651.07 218.706 651.463 219.132 651.73C219.561 651.997 220.04 652.131 220.568 652.131C220.858 652.131 221.136 652.091 221.403 652.011C221.67 651.932 221.913 651.814 222.132 651.658C222.354 651.499 222.541 651.304 222.695 651.074C222.851 650.841 222.96 650.574 223.023 650.273H224.08C224 650.719 223.855 651.118 223.645 651.47C223.435 651.823 223.173 652.122 222.861 652.369C222.548 652.614 222.197 652.8 221.808 652.928C221.422 653.056 221.009 653.119 220.568 653.119C219.824 653.119 219.162 652.938 218.582 652.574C218.003 652.21 217.547 651.693 217.214 651.023C216.882 650.352 216.716 649.557 216.716 648.636C216.716 647.716 216.882 646.921 217.214 646.25C217.547 645.58 218.003 645.063 218.582 644.699C219.162 644.335 219.824 644.154 220.568 644.154C221.009 644.154 221.422 644.217 221.808 644.345C222.197 644.473 222.548 644.661 222.861 644.908C223.173 645.152 223.435 645.45 223.645 645.803C223.855 646.152 224 646.551 224.08 647ZM226.657 644.273V653H225.651V644.273H226.657ZM230.425 653.154C230.01 653.154 229.634 653.075 229.295 652.919C228.957 652.76 228.689 652.531 228.49 652.233C228.291 651.932 228.192 651.568 228.192 651.142C228.192 650.767 228.266 650.463 228.413 650.23C228.561 649.994 228.759 649.81 229.006 649.676C229.253 649.543 229.526 649.443 229.824 649.378C230.125 649.31 230.428 649.256 230.732 649.216C231.129 649.165 231.452 649.127 231.699 649.101C231.949 649.073 232.131 649.026 232.244 648.96C232.361 648.895 232.419 648.781 232.419 648.619V648.585C232.419 648.165 232.304 647.838 232.074 647.605C231.847 647.372 231.501 647.256 231.038 647.256C230.558 647.256 230.182 647.361 229.909 647.571C229.636 647.781 229.445 648.006 229.334 648.244L228.379 647.904C228.55 647.506 228.777 647.196 229.061 646.975C229.348 646.75 229.661 646.594 229.999 646.506C230.339 646.415 230.675 646.369 231.004 646.369C231.214 646.369 231.456 646.395 231.729 646.446C232.004 646.494 232.27 646.595 232.526 646.749C232.784 646.902 232.999 647.134 233.169 647.443C233.339 647.753 233.425 648.168 233.425 648.688V653H232.419V652.114H232.368C232.3 652.256 232.186 652.408 232.027 652.57C231.868 652.732 231.656 652.869 231.392 652.983C231.128 653.097 230.805 653.154 230.425 653.154ZM230.578 652.25C230.976 652.25 231.311 652.172 231.584 652.016C231.859 651.859 232.067 651.658 232.206 651.411C232.348 651.163 232.419 650.904 232.419 650.631V649.71C232.376 649.761 232.283 649.808 232.138 649.851C231.996 649.891 231.831 649.926 231.643 649.958C231.459 649.986 231.278 650.011 231.102 650.034C230.929 650.054 230.788 650.071 230.68 650.085C230.419 650.119 230.175 650.175 229.947 650.252C229.723 650.325 229.541 650.438 229.402 650.588C229.266 650.736 229.197 650.938 229.197 651.193C229.197 651.543 229.327 651.807 229.585 651.986C229.847 652.162 230.178 652.25 230.578 652.25ZM239.897 647.921L238.993 648.176C238.936 648.026 238.853 647.879 238.742 647.737C238.634 647.592 238.486 647.473 238.299 647.379C238.111 647.286 237.871 647.239 237.578 647.239C237.178 647.239 236.844 647.331 236.577 647.516C236.313 647.698 236.181 647.929 236.181 648.21C236.181 648.46 236.272 648.658 236.453 648.803C236.635 648.948 236.919 649.068 237.306 649.165L238.277 649.404C238.863 649.546 239.299 649.763 239.586 650.056C239.873 650.345 240.016 650.719 240.016 651.176C240.016 651.551 239.908 651.886 239.692 652.182C239.479 652.477 239.181 652.71 238.797 652.881C238.414 653.051 237.968 653.136 237.459 653.136C236.792 653.136 236.239 652.992 235.801 652.702C235.364 652.412 235.087 651.989 234.971 651.432L235.925 651.193C236.016 651.546 236.188 651.81 236.441 651.986C236.696 652.162 237.03 652.25 237.442 652.25C237.911 652.25 238.283 652.151 238.559 651.952C238.837 651.75 238.976 651.509 238.976 651.227C238.976 651 238.897 650.81 238.738 650.656C238.578 650.5 238.334 650.384 238.005 650.307L236.914 650.051C236.314 649.909 235.874 649.689 235.593 649.391C235.314 649.09 235.175 648.713 235.175 648.261C235.175 647.892 235.279 647.565 235.486 647.281C235.696 646.997 235.982 646.774 236.343 646.612C236.706 646.45 237.118 646.369 237.578 646.369C238.226 646.369 238.735 646.511 239.104 646.796C239.476 647.08 239.74 647.455 239.897 647.921ZM246.166 647.921L245.263 648.176C245.206 648.026 245.122 647.879 245.011 647.737C244.903 647.592 244.756 647.473 244.568 647.379C244.381 647.286 244.141 647.239 243.848 647.239C243.447 647.239 243.114 647.331 242.847 647.516C242.582 647.698 242.45 647.929 242.45 648.21C242.45 648.46 242.541 648.658 242.723 648.803C242.905 648.948 243.189 649.068 243.575 649.165L244.547 649.404C245.132 649.546 245.568 649.763 245.855 650.056C246.142 650.345 246.286 650.719 246.286 651.176C246.286 651.551 246.178 651.886 245.962 652.182C245.749 652.477 245.45 652.71 245.067 652.881C244.683 653.051 244.237 653.136 243.729 653.136C243.061 653.136 242.509 652.992 242.071 652.702C241.634 652.412 241.357 651.989 241.24 651.432L242.195 651.193C242.286 651.546 242.457 651.81 242.71 651.986C242.966 652.162 243.3 652.25 243.712 652.25C244.18 652.25 244.553 652.151 244.828 651.952C245.107 651.75 245.246 651.509 245.246 651.227C245.246 651 245.166 650.81 245.007 650.656C244.848 650.5 244.604 650.384 244.274 650.307L243.183 650.051C242.584 649.909 242.143 649.689 241.862 649.391C241.584 649.09 241.445 648.713 241.445 648.261C241.445 647.892 241.548 647.565 241.756 647.281C241.966 646.997 242.251 646.774 242.612 646.612C242.976 646.45 243.388 646.369 243.848 646.369C244.496 646.369 245.004 646.511 245.374 646.796C245.746 647.08 246.01 647.455 246.166 647.921Z" fill="#3D3D3D"/>
<path d="M72.0795 646H71.0227C70.9602 645.696 70.8509 645.429 70.6946 645.199C70.5412 644.969 70.3537 644.776 70.1321 644.619C69.9134 644.46 69.6705 644.341 69.4034 644.261C69.1364 644.182 68.858 644.142 68.5682 644.142C68.0398 644.142 67.5611 644.276 67.1321 644.543C66.706 644.81 66.3665 645.203 66.1136 645.723C65.8636 646.243 65.7386 646.881 65.7386 647.636C65.7386 648.392 65.8636 649.03 66.1136 649.55C66.3665 650.07 66.706 650.463 67.1321 650.73C67.5611 650.997 68.0398 651.131 68.5682 651.131C68.858 651.131 69.1364 651.091 69.4034 651.011C69.6705 650.932 69.9134 650.814 70.1321 650.658C70.3537 650.499 70.5412 650.304 70.6946 650.074C70.8509 649.841 70.9602 649.574 71.0227 649.273H72.0795C72 649.719 71.8551 650.118 71.6449 650.47C71.4347 650.823 71.1733 651.122 70.8608 651.369C70.5483 651.614 70.1974 651.8 69.8082 651.928C69.4219 652.056 69.0085 652.119 68.5682 652.119C67.8239 652.119 67.1619 651.938 66.5824 651.574C66.0028 651.21 65.5469 650.693 65.2145 650.023C64.8821 649.352 64.7159 648.557 64.7159 647.636C64.7159 646.716 64.8821 645.921 65.2145 645.25C65.5469 644.58 66.0028 644.063 66.5824 643.699C67.1619 643.335 67.8239 643.154 68.5682 643.154C69.0085 643.154 69.4219 643.217 69.8082 643.345C70.1974 643.473 70.5483 643.661 70.8608 643.908C71.1733 644.152 71.4347 644.45 71.6449 644.803C71.8551 645.152 72 645.551 72.0795 646ZM76.31 652.136C75.7191 652.136 75.2006 651.996 74.7546 651.715C74.3114 651.433 73.9648 651.04 73.7148 650.534C73.4677 650.029 73.3441 649.438 73.3441 648.761C73.3441 648.08 73.4677 647.484 73.7148 646.976C73.9648 646.467 74.3114 646.073 74.7546 645.791C75.2006 645.51 75.7191 645.369 76.31 645.369C76.9009 645.369 77.418 645.51 77.8612 645.791C78.3072 646.073 78.6538 646.467 78.9009 646.976C79.1509 647.484 79.2759 648.08 79.2759 648.761C79.2759 649.438 79.1509 650.029 78.9009 650.534C78.6538 651.04 78.3072 651.433 77.8612 651.715C77.418 651.996 76.9009 652.136 76.31 652.136ZM76.31 651.233C76.7589 651.233 77.1282 651.118 77.418 650.888C77.7077 650.658 77.9222 650.355 78.0614 649.98C78.2006 649.605 78.2702 649.199 78.2702 648.761C78.2702 648.324 78.2006 647.916 78.0614 647.538C77.9222 647.161 77.7077 646.855 77.418 646.622C77.1282 646.389 76.7589 646.273 76.31 646.273C75.8612 646.273 75.4918 646.389 75.2021 646.622C74.9123 646.855 74.6978 647.161 74.5586 647.538C74.4194 647.916 74.3498 648.324 74.3498 648.761C74.3498 649.199 74.4194 649.605 74.5586 649.98C74.6978 650.355 74.9123 650.658 75.2021 650.888C75.4918 651.118 75.8612 651.233 76.31 651.233ZM80.8111 652V645.455H81.7827V646.443H81.8509C81.9702 646.119 82.1861 645.857 82.4986 645.655C82.8111 645.453 83.1634 645.352 83.5554 645.352C83.6293 645.352 83.7216 645.354 83.8324 645.357C83.9432 645.359 84.027 645.364 84.0838 645.369V646.392C84.0497 646.384 83.9716 646.371 83.8494 646.354C83.7301 646.334 83.6037 646.324 83.4702 646.324C83.152 646.324 82.8679 646.391 82.6179 646.524C82.3707 646.655 82.1747 646.837 82.0298 647.07C81.8878 647.3 81.8168 647.563 81.8168 647.858V652H80.8111ZM87.821 652.136C87.1903 652.136 86.6463 651.997 86.1889 651.719C85.7344 651.438 85.3835 651.046 85.1364 650.543C84.892 650.037 84.7699 649.449 84.7699 648.779C84.7699 648.108 84.892 647.517 85.1364 647.006C85.3835 646.492 85.7273 646.091 86.1676 645.804C86.6108 645.514 87.1278 645.369 87.7188 645.369C88.0597 645.369 88.3963 645.426 88.7287 645.54C89.0611 645.654 89.3636 645.838 89.6364 646.094C89.9091 646.347 90.1264 646.682 90.2884 647.1C90.4503 647.517 90.5312 648.031 90.5312 648.642V649.068H85.4858V648.199H89.5085C89.5085 647.83 89.4347 647.5 89.2869 647.21C89.142 646.921 88.9347 646.692 88.6648 646.524C88.3977 646.357 88.0824 646.273 87.7188 646.273C87.3182 646.273 86.9716 646.372 86.679 646.571C86.3892 646.767 86.1662 647.023 86.0099 647.338C85.8537 647.654 85.7756 647.992 85.7756 648.352V648.932C85.7756 649.426 85.8608 649.845 86.0312 650.189C86.2045 650.53 86.4446 650.79 86.7514 650.969C87.0582 651.145 87.4148 651.233 87.821 651.233C88.0852 651.233 88.3239 651.196 88.5369 651.122C88.7528 651.046 88.9389 650.932 89.0952 650.781C89.2514 650.628 89.3722 650.438 89.4574 650.21L90.429 650.483C90.3267 650.813 90.1548 651.102 89.9134 651.352C89.6719 651.6 89.3736 651.793 89.0185 651.932C88.6634 652.068 88.2642 652.136 87.821 652.136Z" fill="#3D3D3D"/>
<path d="M338.057 653V644.273H343.324V645.21H339.114V648.159H343.051V649.097H339.114V652.063H343.392V653H338.057ZM346.098 649.063V653H345.092V646.455H346.064V647.477H346.149C346.303 647.145 346.536 646.878 346.848 646.676C347.161 646.472 347.564 646.369 348.058 646.369C348.501 646.369 348.889 646.46 349.222 646.642C349.554 646.821 349.813 647.094 349.997 647.46C350.182 647.824 350.274 648.284 350.274 648.841V653H349.268V648.909C349.268 648.395 349.135 647.994 348.868 647.708C348.601 647.418 348.234 647.273 347.768 647.273C347.447 647.273 347.161 647.342 346.908 647.482C346.658 647.621 346.46 647.824 346.315 648.091C346.17 648.358 346.098 648.682 346.098 649.063ZM357.23 646.455L354.809 653H353.787L351.366 646.455H352.457L354.264 651.671H354.332L356.139 646.455H357.23Z" fill="#3D3D3D"/>
<path d="M401.057 653V644.273H406.324V645.21H402.114V648.159H406.051V649.097H402.114V652.063H406.392V653H401.057ZM408.092 653V646.455H409.064V647.477H409.149C409.286 647.128 409.506 646.857 409.81 646.663C410.114 646.467 410.479 646.369 410.905 646.369C411.337 646.369 411.696 646.467 411.983 646.663C412.273 646.857 412.499 647.128 412.661 647.477H412.729C412.896 647.139 413.148 646.871 413.483 646.672C413.818 646.47 414.22 646.369 414.689 646.369C415.274 646.369 415.753 646.553 416.125 646.919C416.497 647.283 416.683 647.85 416.683 648.619V653H415.678V648.619C415.678 648.136 415.545 647.791 415.281 647.584C415.017 647.377 414.706 647.273 414.348 647.273C413.888 647.273 413.531 647.412 413.278 647.69C413.026 647.966 412.899 648.315 412.899 648.739V653H411.876V648.517C411.876 648.145 411.756 647.845 411.514 647.618C411.273 647.388 410.962 647.273 410.581 647.273C410.32 647.273 410.075 647.342 409.848 647.482C409.624 647.621 409.442 647.814 409.303 648.061C409.166 648.306 409.098 648.588 409.098 648.909V653H408.092ZM421.181 653.136C420.59 653.136 420.072 652.996 419.626 652.715C419.183 652.433 418.836 652.04 418.586 651.534C418.339 651.029 418.215 650.438 418.215 649.761C418.215 649.08 418.339 648.484 418.586 647.976C418.836 647.467 419.183 647.073 419.626 646.791C420.072 646.51 420.59 646.369 421.181 646.369C421.772 646.369 422.289 646.51 422.732 646.791C423.178 647.073 423.525 647.467 423.772 647.976C424.022 648.484 424.147 649.08 424.147 649.761C424.147 650.438 424.022 651.029 423.772 651.534C423.525 652.04 423.178 652.433 422.732 652.715C422.289 652.996 421.772 653.136 421.181 653.136ZM421.181 652.233C421.63 652.233 421.999 652.118 422.289 651.888C422.579 651.658 422.793 651.355 422.933 650.98C423.072 650.605 423.141 650.199 423.141 649.761C423.141 649.324 423.072 648.916 422.933 648.538C422.793 648.161 422.579 647.855 422.289 647.622C421.999 647.389 421.63 647.273 421.181 647.273C420.732 647.273 420.363 647.389 420.073 647.622C419.783 647.855 419.569 648.161 419.43 648.538C419.29 648.916 419.221 649.324 419.221 649.761C419.221 650.199 419.29 650.605 419.43 650.98C419.569 651.355 419.783 651.658 420.073 651.888C420.363 652.118 420.732 652.233 421.181 652.233ZM428.529 646.455V647.307H425.137V646.455H428.529ZM426.125 644.886H427.131V651.125C427.131 651.409 427.172 651.622 427.255 651.764C427.34 651.904 427.448 651.997 427.578 652.046C427.712 652.091 427.853 652.114 428 652.114C428.111 652.114 428.202 652.108 428.273 652.097C428.344 652.083 428.401 652.071 428.444 652.063L428.648 652.966C428.58 652.992 428.485 653.017 428.363 653.043C428.24 653.071 428.086 653.085 427.898 653.085C427.614 653.085 427.336 653.024 427.063 652.902C426.793 652.78 426.569 652.594 426.39 652.344C426.213 652.094 426.125 651.779 426.125 651.398V644.886ZM430.042 653V646.455H431.047V653H430.042ZM430.553 645.364C430.357 645.364 430.188 645.297 430.046 645.163C429.907 645.03 429.837 644.869 429.837 644.682C429.837 644.494 429.907 644.334 430.046 644.2C430.188 644.067 430.357 644 430.553 644C430.749 644 430.917 644.067 431.056 644.2C431.198 644.334 431.269 644.494 431.269 644.682C431.269 644.869 431.198 645.03 431.056 645.163C430.917 645.297 430.749 645.364 430.553 645.364ZM435.548 653.136C434.957 653.136 434.439 652.996 433.993 652.715C433.55 652.433 433.203 652.04 432.953 651.534C432.706 651.029 432.582 650.438 432.582 649.761C432.582 649.08 432.706 648.484 432.953 647.976C433.203 647.467 433.55 647.073 433.993 646.791C434.439 646.51 434.957 646.369 435.548 646.369C436.139 646.369 436.656 646.51 437.099 646.791C437.545 647.073 437.892 647.467 438.139 647.976C438.389 648.484 438.514 649.08 438.514 649.761C438.514 650.438 438.389 651.029 438.139 651.534C437.892 652.04 437.545 652.433 437.099 652.715C436.656 652.996 436.139 653.136 435.548 653.136ZM435.548 652.233C435.997 652.233 436.366 652.118 436.656 651.888C436.946 651.658 437.161 651.355 437.3 650.98C437.439 650.605 437.509 650.199 437.509 649.761C437.509 649.324 437.439 648.916 437.3 648.538C437.161 648.161 436.946 647.855 436.656 647.622C436.366 647.389 435.997 647.273 435.548 647.273C435.099 647.273 434.73 647.389 434.44 647.622C434.151 647.855 433.936 648.161 433.797 648.538C433.658 648.916 433.588 649.324 433.588 649.761C433.588 650.199 433.658 650.605 433.797 650.98C433.936 651.355 434.151 651.658 434.44 651.888C434.73 652.118 435.099 652.233 435.548 652.233ZM441.055 649.063V653H440.049V646.455H441.021V647.477H441.106C441.26 647.145 441.493 646.878 441.805 646.676C442.118 646.472 442.521 646.369 443.015 646.369C443.458 646.369 443.846 646.46 444.179 646.642C444.511 646.821 444.77 647.094 444.954 647.46C445.139 647.824 445.231 648.284 445.231 648.841V653H444.225V648.909C444.225 648.395 444.092 647.994 443.825 647.708C443.558 647.418 443.191 647.273 442.725 647.273C442.404 647.273 442.118 647.342 441.865 647.482C441.615 647.621 441.417 647.824 441.272 648.091C441.127 648.358 441.055 648.682 441.055 649.063Z" fill="#3D3D3D"/>
<path d="M478.057 644.273H479.318L482.284 651.517H482.386L485.352 644.273H486.614V653H485.625V646.369H485.54L482.812 653H481.858L479.131 646.369H479.045V653H478.057V644.273ZM490.522 653.154C490.108 653.154 489.731 653.075 489.393 652.919C489.055 652.76 488.787 652.531 488.588 652.233C488.389 651.932 488.289 651.568 488.289 651.142C488.289 650.767 488.363 650.463 488.511 650.23C488.659 649.994 488.856 649.81 489.103 649.676C489.35 649.543 489.623 649.443 489.922 649.378C490.223 649.31 490.525 649.256 490.829 649.216C491.227 649.165 491.549 649.127 491.797 649.101C492.047 649.073 492.228 649.026 492.342 648.96C492.458 648.895 492.517 648.781 492.517 648.619V648.585C492.517 648.165 492.402 647.838 492.172 647.605C491.944 647.372 491.599 647.256 491.136 647.256C490.656 647.256 490.279 647.361 490.007 647.571C489.734 647.781 489.542 648.006 489.431 648.244L488.477 647.904C488.647 647.506 488.875 647.196 489.159 646.975C489.446 646.75 489.758 646.594 490.096 646.506C490.437 646.415 490.772 646.369 491.102 646.369C491.312 646.369 491.554 646.395 491.826 646.446C492.102 646.494 492.368 646.595 492.623 646.749C492.882 646.902 493.096 647.134 493.267 647.443C493.437 647.753 493.522 648.168 493.522 648.688V653H492.517V652.114H492.466C492.397 652.256 492.284 652.408 492.125 652.57C491.966 652.732 491.754 652.869 491.49 652.983C491.225 653.097 490.903 653.154 490.522 653.154ZM490.676 652.25C491.074 652.25 491.409 652.172 491.681 652.016C491.957 651.859 492.164 651.658 492.304 651.411C492.446 651.163 492.517 650.904 492.517 650.631V649.71C492.474 649.761 492.38 649.808 492.235 649.851C492.093 649.891 491.929 649.926 491.741 649.958C491.556 649.986 491.376 650.011 491.2 650.034C491.027 650.054 490.886 650.071 490.778 650.085C490.517 650.119 490.272 650.175 490.045 650.252C489.821 650.325 489.639 650.438 489.5 650.588C489.363 650.736 489.295 650.938 489.295 651.193C489.295 651.543 489.424 651.807 489.683 651.986C489.944 652.162 490.275 652.25 490.676 652.25ZM498.205 646.455V647.307H494.812V646.455H498.205ZM495.801 644.886H496.807V651.125C496.807 651.409 496.848 651.622 496.93 651.764C497.016 651.904 497.124 651.997 497.254 652.046C497.388 652.091 497.528 652.114 497.676 652.114C497.787 652.114 497.878 652.108 497.949 652.097C498.02 652.083 498.077 652.071 498.119 652.063L498.324 652.966C498.256 652.992 498.161 653.017 498.038 653.043C497.916 653.071 497.761 653.085 497.574 653.085C497.29 653.085 497.011 653.024 496.739 652.902C496.469 652.78 496.244 652.594 496.065 652.344C495.889 652.094 495.801 651.779 495.801 651.398V644.886ZM502.391 653.136C501.761 653.136 501.217 652.997 500.759 652.719C500.305 652.438 499.954 652.046 499.707 651.543C499.462 651.037 499.34 650.449 499.34 649.779C499.34 649.108 499.462 648.517 499.707 648.006C499.954 647.492 500.298 647.091 500.738 646.804C501.181 646.514 501.698 646.369 502.289 646.369C502.63 646.369 502.967 646.426 503.299 646.54C503.631 646.654 503.934 646.838 504.207 647.094C504.479 647.347 504.697 647.682 504.859 648.1C505.021 648.517 505.102 649.031 505.102 649.642V650.068H500.056V649.199H504.079C504.079 648.83 504.005 648.5 503.857 648.21C503.712 647.921 503.505 647.692 503.235 647.524C502.968 647.357 502.653 647.273 502.289 647.273C501.888 647.273 501.542 647.372 501.249 647.571C500.96 647.767 500.737 648.023 500.58 648.338C500.424 648.654 500.346 648.992 500.346 649.352V649.932C500.346 650.426 500.431 650.845 500.602 651.189C500.775 651.53 501.015 651.79 501.322 651.969C501.629 652.145 501.985 652.233 502.391 652.233C502.656 652.233 502.894 652.196 503.107 652.122C503.323 652.046 503.509 651.932 503.665 651.781C503.822 651.628 503.942 651.438 504.028 651.21L504.999 651.483C504.897 651.813 504.725 652.102 504.484 652.352C504.242 652.6 503.944 652.793 503.589 652.932C503.234 653.068 502.835 653.136 502.391 653.136ZM506.631 653V646.455H507.603V647.443H507.671C507.79 647.119 508.006 646.857 508.319 646.655C508.631 646.453 508.984 646.352 509.376 646.352C509.45 646.352 509.542 646.354 509.653 646.357C509.763 646.359 509.847 646.364 509.904 646.369V647.392C509.87 647.384 509.792 647.371 509.67 647.354C509.55 647.334 509.424 647.324 509.29 647.324C508.972 647.324 508.688 647.391 508.438 647.524C508.191 647.655 507.995 647.837 507.85 648.07C507.708 648.3 507.637 648.563 507.637 648.858V653H506.631ZM511.096 653V646.455H512.102V653H511.096ZM511.608 645.364C511.412 645.364 511.243 645.297 511.1 645.163C510.961 645.03 510.892 644.869 510.892 644.682C510.892 644.494 510.961 644.334 511.1 644.2C511.243 644.067 511.412 644 511.608 644C511.804 644 511.971 644.067 512.11 644.2C512.252 644.334 512.324 644.494 512.324 644.682C512.324 644.869 512.252 645.03 512.11 645.163C511.971 645.297 511.804 645.364 511.608 645.364ZM515.87 653.154C515.455 653.154 515.079 653.075 514.741 652.919C514.403 652.76 514.134 652.531 513.935 652.233C513.737 651.932 513.637 651.568 513.637 651.142C513.637 650.767 513.711 650.463 513.859 650.23C514.006 649.994 514.204 649.81 514.451 649.676C514.698 649.543 514.971 649.443 515.269 649.378C515.57 649.31 515.873 649.256 516.177 649.216C516.575 649.165 516.897 649.127 517.144 649.101C517.394 649.073 517.576 649.026 517.69 648.96C517.806 648.895 517.864 648.781 517.864 648.619V648.585C517.864 648.165 517.749 647.838 517.519 647.605C517.292 647.372 516.947 647.256 516.484 647.256C516.004 647.256 515.627 647.361 515.354 647.571C515.082 647.781 514.89 648.006 514.779 648.244L513.825 647.904C513.995 647.506 514.222 647.196 514.506 646.975C514.793 646.75 515.106 646.594 515.444 646.506C515.785 646.415 516.12 646.369 516.45 646.369C516.66 646.369 516.901 646.395 517.174 646.446C517.45 646.494 517.715 646.595 517.971 646.749C518.229 646.902 518.444 647.134 518.614 647.443C518.785 647.753 518.87 648.168 518.87 648.688V653H517.864V652.114H517.813C517.745 652.256 517.631 652.408 517.472 652.57C517.313 652.732 517.102 652.869 516.837 652.983C516.573 653.097 516.251 653.154 515.87 653.154ZM516.023 652.25C516.421 652.25 516.756 652.172 517.029 652.016C517.305 651.859 517.512 651.658 517.651 651.411C517.793 651.163 517.864 650.904 517.864 650.631V649.71C517.822 649.761 517.728 649.808 517.583 649.851C517.441 649.891 517.276 649.926 517.089 649.958C516.904 649.986 516.724 650.011 516.548 650.034C516.374 650.054 516.234 650.071 516.126 650.085C515.864 650.119 515.62 650.175 515.393 650.252C515.168 650.325 514.987 650.438 514.847 650.588C514.711 650.736 514.643 650.938 514.643 651.193C514.643 651.543 514.772 651.807 515.031 651.986C515.292 652.162 515.623 652.25 516.023 652.25ZM521.711 644.273V653H520.706V644.273H521.711Z" fill="#3D3D3D"/>
<path d="M566.023 647C565.929 646.713 565.805 646.456 565.652 646.229C565.501 645.999 565.321 645.803 565.111 645.641C564.903 645.479 564.668 645.355 564.403 645.27C564.139 645.185 563.849 645.142 563.534 645.142C563.017 645.142 562.547 645.276 562.124 645.543C561.7 645.81 561.364 646.203 561.114 646.723C560.864 647.243 560.739 647.881 560.739 648.636C560.739 649.392 560.865 650.03 561.118 650.55C561.371 651.07 561.713 651.463 562.145 651.73C562.577 651.997 563.063 652.131 563.602 652.131C564.102 652.131 564.543 652.024 564.923 651.811C565.307 651.595 565.605 651.291 565.818 650.899C566.034 650.504 566.142 650.04 566.142 649.506L566.466 649.574H563.841V648.636H567.165V649.574C567.165 650.293 567.011 650.918 566.705 651.449C566.401 651.98 565.98 652.392 565.443 652.685C564.909 652.975 564.295 653.119 563.602 653.119C562.83 653.119 562.151 652.938 561.565 652.574C560.983 652.21 560.528 651.693 560.202 651.023C559.878 650.352 559.716 649.557 559.716 648.636C559.716 647.946 559.808 647.325 559.993 646.774C560.18 646.22 560.445 645.749 560.786 645.359C561.126 644.97 561.53 644.672 561.996 644.465C562.462 644.257 562.974 644.154 563.534 644.154C563.994 644.154 564.423 644.223 564.821 644.362C565.222 644.499 565.578 644.693 565.891 644.946C566.206 645.196 566.469 645.496 566.679 645.845C566.889 646.192 567.034 646.577 567.114 647H566.023ZM571.583 653.136C570.952 653.136 570.408 652.997 569.951 652.719C569.496 652.438 569.145 652.046 568.898 651.543C568.654 651.037 568.532 650.449 568.532 649.779C568.532 649.108 568.654 648.517 568.898 648.006C569.145 647.492 569.489 647.091 569.929 646.804C570.373 646.514 570.89 646.369 571.48 646.369C571.821 646.369 572.158 646.426 572.49 646.54C572.823 646.654 573.125 646.838 573.398 647.094C573.671 647.347 573.888 647.682 574.05 648.1C574.212 648.517 574.293 649.031 574.293 649.642V650.068H569.248V649.199H573.27C573.27 648.83 573.196 648.5 573.049 648.21C572.904 647.921 572.696 647.692 572.426 647.524C572.159 647.357 571.844 647.273 571.48 647.273C571.08 647.273 570.733 647.372 570.441 647.571C570.151 647.767 569.928 648.023 569.772 648.338C569.615 648.654 569.537 648.992 569.537 649.352V649.932C569.537 650.426 569.623 650.845 569.793 651.189C569.966 651.53 570.206 651.79 570.513 651.969C570.82 652.145 571.176 652.233 571.583 652.233C571.847 652.233 572.086 652.196 572.299 652.122C572.515 652.046 572.701 651.932 572.857 651.781C573.013 651.628 573.134 651.438 573.219 651.21L574.191 651.483C574.088 651.813 573.917 652.102 573.675 652.352C573.434 652.6 573.135 652.793 572.78 652.932C572.425 653.068 572.026 653.136 571.583 653.136ZM576.828 649.063V653H575.823V646.455H576.794V647.477H576.88C577.033 647.145 577.266 646.878 577.578 646.676C577.891 646.472 578.294 646.369 578.789 646.369C579.232 646.369 579.62 646.46 579.952 646.642C580.284 646.821 580.543 647.094 580.728 647.46C580.912 647.824 581.005 648.284 581.005 648.841V653H579.999V648.909C579.999 648.395 579.865 647.994 579.598 647.708C579.331 647.418 578.965 647.273 578.499 647.273C578.178 647.273 577.891 647.342 577.638 647.482C577.388 647.621 577.191 647.824 577.046 648.091C576.901 648.358 576.828 648.682 576.828 649.063ZM582.842 653V646.455H583.814V647.443H583.882C584.001 647.119 584.217 646.857 584.53 646.655C584.842 646.453 585.195 646.352 585.587 646.352C585.661 646.352 585.753 646.354 585.864 646.357C585.974 646.359 586.058 646.364 586.115 646.369V647.392C586.081 647.384 586.003 647.371 585.881 647.354C585.761 647.334 585.635 647.324 585.501 647.324C585.183 647.324 584.899 647.391 584.649 647.524C584.402 647.655 584.206 647.837 584.061 648.07C583.919 648.3 583.848 648.563 583.848 648.858V653H582.842ZM589.852 653.136C589.222 653.136 588.678 652.997 588.22 652.719C587.766 652.438 587.415 652.046 587.168 651.543C586.923 651.037 586.801 650.449 586.801 649.779C586.801 649.108 586.923 648.517 587.168 648.006C587.415 647.492 587.759 647.091 588.199 646.804C588.642 646.514 589.159 646.369 589.75 646.369C590.091 646.369 590.428 646.426 590.76 646.54C591.092 646.654 591.395 646.838 591.668 647.094C591.94 647.347 592.158 647.682 592.32 648.1C592.482 648.517 592.562 649.031 592.562 649.642V650.068H587.517V649.199H591.54C591.54 648.83 591.466 648.5 591.318 648.21C591.173 647.921 590.966 647.692 590.696 647.524C590.429 647.357 590.114 647.273 589.75 647.273C589.349 647.273 589.003 647.372 588.71 647.571C588.42 647.767 588.197 648.023 588.041 648.338C587.885 648.654 587.807 648.992 587.807 649.352V649.932C587.807 650.426 587.892 650.845 588.062 651.189C588.236 651.53 588.476 651.79 588.783 651.969C589.089 652.145 589.446 652.233 589.852 652.233C590.116 652.233 590.355 652.196 590.568 652.122C590.784 652.046 590.97 651.932 591.126 651.781C591.283 651.628 591.403 651.438 591.489 651.21L592.46 651.483C592.358 651.813 592.186 652.102 591.945 652.352C591.703 652.6 591.405 652.793 591.05 652.932C590.695 653.068 590.295 653.136 589.852 653.136Z" fill="#3D3D3D"/>
<rect x="30" y="681" width="4" height="4" transform="rotate(-180 30 681)" fill="#3D3D3D"/>
<rect x="44" y="681" width="4" height="4" transform="rotate(-180 44 681)" fill="#3D3D3D"/>
<rect x="58" y="681" width="4" height="4" transform="rotate(-180 58 681)" fill="#3D3D3D"/>
<rect x="72" y="681" width="4" height="4" transform="rotate(-180 72 681)" fill="#3D3D3D"/>
<rect x="86" y="681" width="4" height="4" transform="rotate(-180 86 681)" fill="#3D3D3D"/>
<rect x="100" y="681" width="4" height="4" transform="rotate(-180 100 681)" fill="#3D3D3D"/>
<rect x="114" y="681" width="4" height="4" transform="rotate(-180 114 681)" fill="#A0A0A0"/>
<rect x="128" y="681" width="4" height="4" transform="rotate(-180 128 681)" fill="#3D3D3D"/>
<rect x="142" y="681" width="4" height="4" transform="rotate(-180 142 681)" fill="#3D3D3D"/>
<rect x="170" y="681" width="4" height="4" transform="rotate(-180 170 681)" fill="#3D3D3D"/>
<rect x="184" y="681" width="4" height="4" transform="rotate(-180 184 681)" fill="#3D3D3D"/>
<rect x="198" y="681" width="4" height="4" transform="rotate(-180 198 681)" fill="#3D3D3D"/>
<rect x="212" y="681" width="4" height="4" transform="rotate(-180 212 681)" fill="#A0A0A0"/>
<rect x="226" y="681" width="4" height="4" transform="rotate(-180 226 681)" fill="#3D3D3D"/>
<rect x="240" y="681" width="4" height="4" transform="rotate(-180 240 681)" fill="#3D3D3D"/>
<rect x="254" y="681" width="4" height="4" transform="rotate(-180 254 681)" fill="#3D3D3D"/>
<rect x="268" y="681" width="4" height="4" transform="rotate(-180 268 681)" fill="#3D3D3D"/>
<rect x="282" y="681" width="4" height="4" transform="rotate(-180 282 681)" fill="#3D3D3D"/>
<rect x="296" y="681" width="4" height="4" transform="rotate(-180 296 681)" fill="#3D3D3D"/>
<rect x="321" y="681" width="4" height="4" transform="rotate(-180 321 681)" fill="#A0A0A0"/>
<rect x="397" y="681" width="4" height="4" transform="rotate(-180 397 681)" fill="#3D3D3D"/>
<rect x="473" y="681" width="4" height="4" transform="rotate(-180 473 681)" fill="#3D3D3D"/>
<rect x="549" y="681" width="4" height="4" transform="rotate(-180 549 681)" fill="#3D3D3D"/>
<rect x="335" y="681" width="4" height="4" transform="rotate(-180 335 681)" fill="#3D3D3D"/>
<rect x="411" y="681" width="4" height="4" transform="rotate(-180 411 681)" fill="#3D3D3D"/>
<rect x="487" y="681" width="4" height="4" transform="rotate(-180 487 681)" fill="#3D3D3D"/>
<rect x="563" y="681" width="4" height="4" transform="rotate(-180 563 681)" fill="#3D3D3D"/>
<rect x="577" y="681" width="4" height="4" transform="rotate(-180 577 681)" fill="#3D3D3D"/>
<rect x="591" y="681" width="4" height="4" transform="rotate(-180 591 681)" fill="#A0A0A0"/>
<rect x="349" y="681" width="4" height="4" transform="rotate(-180 349 681)" fill="#3D3D3D"/>
<rect x="425" y="681" width="4" height="4" transform="rotate(-180 425 681)" fill="#3D3D3D"/>
<rect x="501" y="681" width="4" height="4" transform="rotate(-180 501 681)" fill="#3D3D3D"/>
<rect x="363" y="681" width="4" height="4" transform="rotate(-180 363 681)" fill="#3D3D3D"/>
<rect x="439" y="681" width="4" height="4" transform="rotate(-180 439 681)" fill="#A0A0A0"/>
<rect x="515" y="681" width="4" height="4" transform="rotate(-180 515 681)" fill="#3D3D3D"/>
<rect x="377" y="681" width="4" height="4" transform="rotate(-180 377 681)" fill="#3D3D3D"/>
<rect x="453" y="681" width="4" height="4" transform="rotate(-180 453 681)" fill="#3D3D3D"/>
<rect x="529" y="681" width="4" height="4" transform="rotate(-180 529 681)" fill="#A0A0A0"/>
<rect x="41" y="24.0001" width="201" height="31" fill="#A0A0A0"/>
<rect x="249" y="24.0001" width="82" height="31" fill="#A0A0A0"/>
<rect x="338" y="24.0001" width="72" height="31" fill="#A0A0A0"/>
<rect x="417" y="24.0001" width="99" height="31" fill="#A0A0A0"/>
<rect x="523" y="24.0001" width="53" height="31" fill="#A0A0A0"/>
<rect x="41" y="70.0001" width="56" height="31" fill="#A0A0A0"/>
<path d="M44.9659 33.0171V31.4546H55.875V33.0171H51.3011V46.0001H49.5398V33.0171H44.9659ZM61.2159 46.2274C60.2311 46.2274 59.367 45.993 58.6236 45.5242C57.8849 45.0555 57.3073 44.3997 56.8906 43.5569C56.4787 42.7141 56.2727 41.7293 56.2727 40.6024C56.2727 39.466 56.4787 38.474 56.8906 37.6265C57.3073 36.779 57.8849 36.1208 58.6236 35.6521C59.367 35.1833 60.2311 34.949 61.2159 34.949C62.2008 34.949 63.0625 35.1833 63.8011 35.6521C64.5445 36.1208 65.1222 36.779 65.5341 37.6265C65.9508 38.474 66.1591 39.466 66.1591 40.6024C66.1591 41.7293 65.9508 42.7141 65.5341 43.5569C65.1222 44.3997 64.5445 45.0555 63.8011 45.5242C63.0625 45.993 62.2008 46.2274 61.2159 46.2274ZM61.2159 44.7217C61.964 44.7217 62.5795 44.5299 63.0625 44.1464C63.5455 43.7629 63.9029 43.2586 64.1349 42.6336C64.367 42.0086 64.483 41.3315 64.483 40.6024C64.483 39.8732 64.367 39.1937 64.1349 38.564C63.9029 37.9343 63.5455 37.4253 63.0625 37.037C62.5795 36.6488 61.964 36.4546 61.2159 36.4546C60.4678 36.4546 59.8523 36.6488 59.3693 37.037C58.8864 37.4253 58.5289 37.9343 58.2969 38.564C58.0649 39.1937 57.9489 39.8732 57.9489 40.6024C57.9489 41.3315 58.0649 42.0086 58.2969 42.6336C58.5289 43.2586 58.8864 43.7629 59.3693 44.1464C59.8523 44.5299 60.4678 44.7217 61.2159 44.7217ZM70.3938 39.4376V46.0001H68.7177V35.091H70.337V36.7955H70.479C70.7347 36.2416 71.123 35.7965 71.6438 35.4603C72.1647 35.1194 72.837 34.949 73.6609 34.949C74.3995 34.949 75.0458 35.1005 75.5998 35.4035C76.1538 35.7018 76.5846 36.1563 76.8924 36.7671C77.2002 37.3732 77.354 38.1402 77.354 39.0683V46.0001H75.6779V39.1819C75.6779 38.3249 75.4554 37.6573 75.0103 37.1791C74.5652 36.6961 73.9544 36.4546 73.1779 36.4546C72.6429 36.4546 72.1647 36.5706 71.7433 36.8026C71.3266 37.0347 70.9975 37.3732 70.756 37.8183C70.5146 38.2633 70.3938 38.8031 70.3938 39.4376ZM84.8487 46.2274C83.8639 46.2274 82.9998 45.993 82.2564 45.5242C81.5178 45.0555 80.9401 44.3997 80.5234 43.5569C80.1115 42.7141 79.9055 41.7293 79.9055 40.6024C79.9055 39.466 80.1115 38.474 80.5234 37.6265C80.9401 36.779 81.5178 36.1208 82.2564 35.6521C82.9998 35.1833 83.8639 34.949 84.8487 34.949C85.8336 34.949 86.6953 35.1833 87.4339 35.6521C88.1773 36.1208 88.755 36.779 89.1669 37.6265C89.5836 38.474 89.7919 39.466 89.7919 40.6024C89.7919 41.7293 89.5836 42.7141 89.1669 43.5569C88.755 44.3997 88.1773 45.0555 87.4339 45.5242C86.6953 45.993 85.8336 46.2274 84.8487 46.2274ZM84.8487 44.7217C85.5968 44.7217 86.2124 44.5299 86.6953 44.1464C87.1783 43.7629 87.5357 43.2586 87.7678 42.6336C87.9998 42.0086 88.1158 41.3315 88.1158 40.6024C88.1158 39.8732 87.9998 39.1937 87.7678 38.564C87.5357 37.9343 87.1783 37.4253 86.6953 37.037C86.2124 36.6488 85.5968 36.4546 84.8487 36.4546C84.1006 36.4546 83.4851 36.6488 83.0021 37.037C82.5192 37.4253 82.1617 37.9343 81.9297 38.564C81.6977 39.1937 81.5817 39.8732 81.5817 40.6024C81.5817 41.3315 81.6977 42.0086 81.9297 42.6336C82.1617 43.2586 82.5192 43.7629 83.0021 44.1464C83.4851 44.5299 84.1006 44.7217 84.8487 44.7217ZM92.3505 50.091V35.091H93.9698V36.824H94.1687C94.2918 36.6346 94.4622 36.3931 94.68 36.0995C94.9026 35.8012 95.2198 35.5361 95.6317 35.3041C96.0484 35.0673 96.6119 34.949 97.3221 34.949C98.2406 34.949 99.0503 35.1786 99.7511 35.6379C100.452 36.0972 100.999 36.7482 101.392 37.591C101.785 38.4338 101.981 39.4281 101.981 40.574C101.981 41.7293 101.785 42.7307 101.392 43.5782C100.999 44.421 100.454 45.0744 99.7582 45.5384C99.0621 45.9977 98.2596 46.2274 97.3505 46.2274C96.6497 46.2274 96.0887 46.1114 95.6673 45.8794C95.2459 45.6426 94.9215 45.3751 94.6942 45.0768C94.467 44.7738 94.2918 44.5228 94.1687 44.324H94.0266V50.091H92.3505ZM93.9982 40.5455C93.9982 41.3694 94.119 42.0962 94.3604 42.7259C94.6019 43.3509 94.9547 43.841 95.4187 44.1961C95.8827 44.5465 96.4509 44.7217 97.1232 44.7217C97.824 44.7217 98.4087 44.537 98.8775 44.1677C99.351 43.7937 99.7061 43.2918 99.9428 42.662C100.184 42.0276 100.305 41.3221 100.305 40.5455C100.305 39.7785 100.187 39.0872 99.9499 38.4717C99.7179 37.8514 99.3652 37.3614 98.8917 37.0015C98.4229 36.6369 97.8335 36.4546 97.1232 36.4546C96.4414 36.4546 95.8685 36.6275 95.4045 36.9731C94.9405 37.314 94.5901 37.7922 94.3533 38.4078C94.1166 39.0186 93.9982 39.7312 93.9982 40.5455ZM107.748 46.2558C107.057 46.2558 106.43 46.1256 105.866 45.8651C105.303 45.6 104.855 45.2188 104.524 44.7217C104.192 44.2198 104.027 43.6137 104.027 42.9035C104.027 42.2785 104.15 41.7719 104.396 41.3836C104.642 40.9906 104.971 40.6829 105.383 40.4603C105.795 40.2378 106.25 40.0721 106.747 39.9632C107.249 39.8495 107.753 39.7596 108.26 39.6933C108.922 39.608 109.46 39.5441 109.872 39.5015C110.288 39.4542 110.592 39.376 110.781 39.2671C110.975 39.1582 111.072 38.9688 111.072 38.699V38.6421C111.072 37.9414 110.88 37.3969 110.497 37.0086C110.118 36.6204 109.543 36.4262 108.771 36.4262C107.971 36.4262 107.343 36.6014 106.889 36.9518C106.434 37.3022 106.115 37.6762 105.93 38.074L104.339 37.5058C104.623 36.8429 105.002 36.3268 105.475 35.9575C105.954 35.5834 106.475 35.323 107.038 35.1762C107.606 35.0247 108.165 34.949 108.714 34.949C109.065 34.949 109.467 34.9916 109.922 35.0768C110.381 35.1573 110.824 35.3254 111.25 35.5811C111.681 35.8367 112.038 36.2226 112.322 36.7387C112.606 37.2548 112.748 37.9461 112.748 38.8126V46.0001H111.072V44.5228H110.987C110.873 44.7596 110.684 45.0129 110.419 45.2828C110.154 45.5526 109.801 45.7823 109.36 45.9717C108.92 46.1611 108.383 46.2558 107.748 46.2558ZM108.004 44.7501C108.667 44.7501 109.225 44.6199 109.68 44.3595C110.139 44.099 110.485 43.7629 110.717 43.3509C110.954 42.939 111.072 42.5058 111.072 42.0512V40.5171C111.001 40.6024 110.845 40.6805 110.603 40.7515C110.367 40.8178 110.092 40.877 109.779 40.9291C109.472 40.9764 109.171 41.019 108.877 41.0569C108.589 41.0901 108.354 41.1185 108.174 41.1421C107.739 41.199 107.332 41.2913 106.953 41.4191C106.579 41.5422 106.276 41.7293 106.044 41.9802C105.816 42.2264 105.703 42.5626 105.703 42.9887C105.703 43.5711 105.918 44.0115 106.349 44.3098C106.785 44.6033 107.336 44.7501 108.004 44.7501ZM117.484 39.4376V46.0001H115.808V31.4546H117.484V36.7955H117.626C117.881 36.2321 118.265 35.7847 118.776 35.4532C119.292 35.117 119.979 34.949 120.836 34.949C121.579 34.949 122.23 35.0981 122.789 35.3964C123.348 35.69 123.781 36.1421 124.089 36.7529C124.401 37.359 124.558 38.1308 124.558 39.0683V46.0001H122.881V39.1819C122.881 38.3154 122.656 37.6455 122.207 37.172C121.762 36.6937 121.144 36.4546 120.353 36.4546C119.804 36.4546 119.311 36.5706 118.876 36.8026C118.445 37.0347 118.104 37.3732 117.853 37.8183C117.607 38.2633 117.484 38.8031 117.484 39.4376ZM132.681 33.0171V31.4546H143.59V33.0171H139.016V46.0001H137.255V33.0171H132.681ZM149.073 46.2274C148.022 46.2274 147.115 45.9954 146.353 45.5313C145.595 45.0626 145.01 44.4092 144.598 43.5711C144.191 42.7283 143.988 41.7482 143.988 40.6308C143.988 39.5133 144.191 38.5285 144.598 37.6762C145.01 36.8192 145.583 36.1516 146.317 35.6734C147.056 35.1904 147.917 34.949 148.902 34.949C149.471 34.949 150.032 35.0437 150.586 35.233C151.14 35.4224 151.644 35.7302 152.098 36.1563C152.553 36.5777 152.915 37.1365 153.185 37.8325C153.455 38.5285 153.59 39.3855 153.59 40.4035V41.1137H145.181V39.6649H151.885C151.885 39.0493 151.762 38.5001 151.516 38.0171C151.275 37.5342 150.929 37.153 150.479 36.8737C150.034 36.5943 149.508 36.4546 148.902 36.4546C148.235 36.4546 147.657 36.6204 147.169 36.9518C146.686 37.2785 146.315 37.7046 146.054 38.2302C145.794 38.7558 145.664 39.3192 145.664 39.9205V40.8865C145.664 41.7103 145.806 42.4087 146.09 42.9816C146.379 43.5498 146.779 43.983 147.29 44.2813C147.801 44.5749 148.396 44.7217 149.073 44.7217C149.513 44.7217 149.911 44.6601 150.266 44.537C150.626 44.4092 150.936 44.2198 151.196 43.9688C151.457 43.7132 151.658 43.3959 151.8 43.0171L153.419 43.4717C153.249 44.0209 152.962 44.5039 152.56 44.9205C152.158 45.3325 151.66 45.6544 151.069 45.8865C150.477 46.1137 149.811 46.2274 149.073 46.2274ZM163.867 37.5342L162.361 37.9603C162.266 37.7094 162.127 37.4655 161.942 37.2288C161.762 36.9873 161.516 36.7884 161.203 36.6322C160.891 36.4759 160.491 36.3978 160.003 36.3978C159.336 36.3978 158.779 36.5517 158.334 36.8595C157.894 37.1625 157.674 37.5484 157.674 38.0171C157.674 38.4338 157.825 38.7629 158.128 39.0044C158.431 39.2458 158.905 39.4471 159.549 39.608L161.168 40.0058C162.143 40.2425 162.87 40.6047 163.348 41.0924C163.827 41.5754 164.066 42.198 164.066 42.9603C164.066 43.5853 163.886 44.144 163.526 44.6365C163.171 45.1289 162.674 45.5171 162.034 45.8012C161.395 46.0853 160.652 46.2274 159.804 46.2274C158.692 46.2274 157.771 45.9859 157.042 45.5029C156.312 45.02 155.851 44.3145 155.657 43.3865L157.248 42.9887C157.399 43.5758 157.685 44.0162 158.107 44.3098C158.533 44.6033 159.089 44.7501 159.776 44.7501C160.557 44.7501 161.177 44.5844 161.637 44.2529C162.101 43.9168 162.333 43.5143 162.333 43.0455C162.333 42.6668 162.2 42.3495 161.935 42.0938C161.67 41.8334 161.263 41.6393 160.713 41.5115L158.895 41.0853C157.896 40.8486 157.162 40.4816 156.694 39.9845C156.23 39.4826 155.998 38.8552 155.998 38.1024C155.998 37.4868 156.17 36.9423 156.516 36.4688C156.866 35.9954 157.342 35.6237 157.944 35.3538C158.55 35.0839 159.236 34.949 160.003 34.949C161.083 34.949 161.93 35.1857 162.546 35.6592C163.166 36.1327 163.606 36.7577 163.867 37.5342ZM171.333 35.091V36.5115H165.68V35.091H171.333ZM167.327 32.4774H169.004V42.8751C169.004 43.3486 169.072 43.7037 169.21 43.9404C169.352 44.1724 169.531 44.3287 169.749 44.4092C169.972 44.4849 170.206 44.5228 170.452 44.5228C170.637 44.5228 170.789 44.5133 170.907 44.4944C171.025 44.4707 171.12 44.4518 171.191 44.4376L171.532 45.9433C171.418 45.9859 171.26 46.0285 171.056 46.0711C170.853 46.1185 170.594 46.1421 170.282 46.1421C169.808 46.1421 169.344 46.0403 168.89 45.8367C168.44 45.6331 168.066 45.323 167.768 44.9063C167.474 44.4897 167.327 43.9641 167.327 43.3296V32.4774ZM179.707 46.0001V31.4546H184.621C185.758 31.4546 186.691 31.6488 187.42 32.037C188.149 32.4205 188.689 32.9485 189.039 33.6208C189.389 34.2932 189.565 35.0579 189.565 35.9149C189.565 36.7719 189.389 37.5318 189.039 38.1947C188.689 38.8576 188.151 39.3784 187.427 39.7572C186.702 40.1312 185.777 40.3183 184.65 40.3183H180.673V38.7274H184.593C185.37 38.7274 185.995 38.6137 186.468 38.3865C186.946 38.1592 187.292 37.8372 187.505 37.4205C187.723 36.9991 187.832 36.4973 187.832 35.9149C187.832 35.3325 187.723 34.8235 187.505 34.3879C187.287 33.9523 186.939 33.6161 186.461 33.3794C185.983 33.1379 185.351 33.0171 184.565 33.0171H181.468V46.0001H179.707ZM186.553 39.466L190.133 46.0001H188.087L184.565 39.466H186.553ZM195.483 46.2558C194.791 46.2558 194.164 46.1256 193.6 45.8651C193.037 45.6 192.59 45.2188 192.258 44.7217C191.927 44.2198 191.761 43.6137 191.761 42.9035C191.761 42.2785 191.884 41.7719 192.13 41.3836C192.377 40.9906 192.706 40.6829 193.118 40.4603C193.529 40.2378 193.984 40.0721 194.481 39.9632C194.983 39.8495 195.487 39.7596 195.994 39.6933C196.657 39.608 197.194 39.5441 197.606 39.5015C198.023 39.4542 198.326 39.376 198.515 39.2671C198.709 39.1582 198.806 38.9688 198.806 38.699V38.6421C198.806 37.9414 198.615 37.3969 198.231 37.0086C197.852 36.6204 197.277 36.4262 196.505 36.4262C195.705 36.4262 195.078 36.6014 194.623 36.9518C194.169 37.3022 193.849 37.6762 193.664 38.074L192.074 37.5058C192.358 36.8429 192.736 36.3268 193.21 35.9575C193.688 35.5834 194.209 35.323 194.772 35.1762C195.341 35.0247 195.899 34.949 196.449 34.949C196.799 34.949 197.201 34.9916 197.656 35.0768C198.115 35.1573 198.558 35.3254 198.984 35.5811C199.415 35.8367 199.772 36.2226 200.056 36.7387C200.341 37.2548 200.483 37.9461 200.483 38.8126V46.0001H198.806V44.5228H198.721C198.608 44.7596 198.418 45.0129 198.153 45.2828C197.888 45.5526 197.535 45.7823 197.095 45.9717C196.654 46.1611 196.117 46.2558 195.483 46.2558ZM195.738 44.7501C196.401 44.7501 196.96 44.6199 197.414 44.3595C197.874 44.099 198.219 43.7629 198.451 43.3509C198.688 42.939 198.806 42.5058 198.806 42.0512V40.5171C198.735 40.6024 198.579 40.6805 198.338 40.7515C198.101 40.8178 197.826 40.877 197.514 40.9291C197.206 40.9764 196.905 41.019 196.612 41.0569C196.323 41.0901 196.089 41.1185 195.909 41.1421C195.473 41.199 195.066 41.2913 194.687 41.4191C194.313 41.5422 194.01 41.7293 193.778 41.9802C193.551 42.2264 193.437 42.5626 193.437 42.9887C193.437 43.5711 193.653 44.0115 194.083 44.3098C194.519 44.6033 195.071 44.7501 195.738 44.7501ZM205.218 39.4376V46.0001H203.542V35.091H205.161V36.7955H205.303C205.559 36.2416 205.947 35.7965 206.468 35.4603C206.989 35.1194 207.661 34.949 208.485 34.949C209.224 34.949 209.87 35.1005 210.424 35.4035C210.978 35.7018 211.409 36.1563 211.717 36.7671C212.024 37.3732 212.178 38.1402 212.178 39.0683V46.0001H210.502V39.1819C210.502 38.3249 210.28 37.6573 209.835 37.1791C209.389 36.6961 208.779 36.4546 208.002 36.4546C207.467 36.4546 206.989 36.5706 206.567 36.8026C206.151 37.0347 205.822 37.3732 205.58 37.8183C205.339 38.2633 205.218 38.8031 205.218 39.4376ZM219.645 50.3183C218.835 50.3183 218.139 50.2141 217.556 50.0058C216.974 49.8022 216.489 49.5323 216.1 49.1961C215.717 48.8647 215.412 48.5096 215.184 48.1308L216.52 47.1933C216.671 47.3921 216.863 47.6194 217.095 47.8751C217.327 48.1355 217.644 48.3604 218.047 48.5498C218.454 48.7439 218.986 48.841 219.645 48.841C220.525 48.841 221.252 48.6279 221.825 48.2018C222.398 47.7757 222.684 47.108 222.684 46.199V43.983H222.542C222.419 44.1819 222.244 44.4281 222.017 44.7217C221.794 45.0105 221.472 45.2686 221.051 45.4958C220.634 45.7184 220.071 45.8296 219.36 45.8296C218.48 45.8296 217.689 45.6213 216.988 45.2046C216.292 44.788 215.741 44.1819 215.333 43.3865C214.931 42.591 214.73 41.6251 214.73 40.4887C214.73 39.3713 214.926 38.3983 215.319 37.5697C215.712 36.7364 216.259 36.0924 216.96 35.6379C217.661 35.1786 218.47 34.949 219.389 34.949C220.099 34.949 220.663 35.0673 221.079 35.3041C221.501 35.5361 221.823 35.8012 222.045 36.0995C222.272 36.3931 222.448 36.6346 222.571 36.824H222.741V35.091H224.36V46.3126C224.36 47.2501 224.147 48.0124 223.721 48.5995C223.3 49.1914 222.732 49.6246 222.017 49.8992C221.306 50.1786 220.516 50.3183 219.645 50.3183ZM219.588 44.324C220.26 44.324 220.828 44.1701 221.292 43.8623C221.756 43.5545 222.109 43.1118 222.35 42.5342C222.592 41.9565 222.713 41.2652 222.713 40.4603C222.713 39.6743 222.594 38.9807 222.358 38.3794C222.121 37.778 221.77 37.3069 221.306 36.966C220.842 36.6251 220.27 36.4546 219.588 36.4546C218.877 36.4546 218.286 36.6346 217.812 36.9944C217.343 37.3543 216.991 37.8372 216.754 38.4433C216.522 39.0493 216.406 39.7217 216.406 40.4603C216.406 41.2179 216.524 41.8879 216.761 42.4703C217.002 43.0479 217.358 43.5025 217.826 43.8339C218.3 44.1606 218.887 44.324 219.588 44.324ZM232.002 46.2274C230.951 46.2274 230.045 45.9954 229.282 45.5313C228.525 45.0626 227.94 44.4092 227.528 43.5711C227.121 42.7283 226.917 41.7482 226.917 40.6308C226.917 39.5133 227.121 38.5285 227.528 37.6762C227.94 36.8192 228.513 36.1516 229.247 35.6734C229.985 35.1904 230.847 34.949 231.832 34.949C232.4 34.949 232.961 35.0437 233.515 35.233C234.069 35.4224 234.574 35.7302 235.028 36.1563C235.483 36.5777 235.845 37.1365 236.115 37.8325C236.385 38.5285 236.52 39.3855 236.52 40.4035V41.1137H228.11V39.6649H234.815C234.815 39.0493 234.692 38.5001 234.446 38.0171C234.204 37.5342 233.859 37.153 233.409 36.8737C232.964 36.5943 232.438 36.4546 231.832 36.4546C231.164 36.4546 230.587 36.6204 230.099 36.9518C229.616 37.2785 229.244 37.7046 228.984 38.2302C228.724 38.7558 228.593 39.3192 228.593 39.9205V40.8865C228.593 41.7103 228.735 42.4087 229.02 42.9816C229.308 43.5498 229.708 43.983 230.22 44.2813C230.731 44.5749 231.325 44.7217 232.002 44.7217C232.443 44.7217 232.841 44.6601 233.196 44.537C233.556 44.4092 233.866 44.2198 234.126 43.9688C234.386 43.7132 234.588 43.3959 234.73 43.0171L236.349 43.4717C236.179 44.0209 235.892 44.5039 235.49 44.9205C235.087 45.3325 234.59 45.6544 233.998 45.8865C233.406 46.1137 232.741 46.2274 232.002 46.2274Z" fill="white"/>
<path d="M257.966 46.2274C256.981 46.2274 256.117 45.993 255.374 45.5242C254.635 45.0555 254.057 44.3997 253.641 43.5569C253.229 42.7141 253.023 41.7293 253.023 40.6024C253.023 39.466 253.229 38.474 253.641 37.6265C254.057 36.779 254.635 36.1208 255.374 35.6521C256.117 35.1833 256.981 34.949 257.966 34.949C258.951 34.949 259.813 35.1833 260.551 35.6521C261.295 36.1208 261.872 36.779 262.284 37.6265C262.701 38.474 262.909 39.466 262.909 40.6024C262.909 41.7293 262.701 42.7141 262.284 43.5569C261.872 44.3997 261.295 45.0555 260.551 45.5242C259.813 45.993 258.951 46.2274 257.966 46.2274ZM257.966 44.7217C258.714 44.7217 259.33 44.5299 259.812 44.1464C260.295 43.7629 260.653 43.2586 260.885 42.6336C261.117 42.0086 261.233 41.3315 261.233 40.6024C261.233 39.8732 261.117 39.1937 260.885 38.564C260.653 37.9343 260.295 37.4253 259.812 37.037C259.33 36.6488 258.714 36.4546 257.966 36.4546C257.218 36.4546 256.602 36.6488 256.119 37.037C255.636 37.4253 255.279 37.9343 255.047 38.564C254.815 39.1937 254.699 39.8732 254.699 40.6024C254.699 41.3315 254.815 42.0086 255.047 42.6336C255.279 43.2586 255.636 43.7629 256.119 44.1464C256.602 44.5299 257.218 44.7217 257.966 44.7217ZM269.871 50.3183C269.061 50.3183 268.365 50.2141 267.783 50.0058C267.201 49.8022 266.715 49.5323 266.327 49.1961C265.944 48.8647 265.638 48.5096 265.411 48.1308L266.746 47.1933C266.898 47.3921 267.089 47.6194 267.321 47.8751C267.553 48.1355 267.871 48.3604 268.273 48.5498C268.68 48.7439 269.213 48.841 269.871 48.841C270.752 48.841 271.479 48.6279 272.051 48.2018C272.624 47.7757 272.911 47.108 272.911 46.199V43.983H272.769C272.646 44.1819 272.471 44.4281 272.243 44.7217C272.021 45.0105 271.699 45.2686 271.277 45.4958C270.861 45.7184 270.297 45.8296 269.587 45.8296C268.706 45.8296 267.916 45.6213 267.215 45.2046C266.519 44.788 265.967 44.1819 265.56 43.3865C265.158 42.591 264.956 41.6251 264.956 40.4887C264.956 39.3713 265.153 38.3983 265.546 37.5697C265.939 36.7364 266.486 36.0924 267.186 35.6379C267.887 35.1786 268.697 34.949 269.615 34.949C270.326 34.949 270.889 35.0673 271.306 35.3041C271.727 35.5361 272.049 35.8012 272.272 36.0995C272.499 36.3931 272.674 36.6346 272.797 36.824H272.968V35.091H274.587V46.3126C274.587 47.2501 274.374 48.0124 273.948 48.5995C273.526 49.1914 272.958 49.6246 272.243 49.8992C271.533 50.1786 270.742 50.3183 269.871 50.3183ZM269.814 44.324C270.487 44.324 271.055 44.1701 271.519 43.8623C271.983 43.5545 272.336 43.1118 272.577 42.5342C272.819 41.9565 272.939 41.2652 272.939 40.4603C272.939 39.6743 272.821 38.9807 272.584 38.3794C272.347 37.778 271.997 37.3069 271.533 36.966C271.069 36.6251 270.496 36.4546 269.814 36.4546C269.104 36.4546 268.512 36.6346 268.039 36.9944C267.57 37.3543 267.217 37.8372 266.98 38.4433C266.748 39.0493 266.632 39.7217 266.632 40.4603C266.632 41.2179 266.751 41.8879 266.988 42.4703C267.229 43.0479 267.584 43.5025 268.053 43.8339C268.526 44.1606 269.114 44.324 269.814 44.324ZM284.53 41.5399V35.091H286.206V46.0001H284.53V44.1535H284.417C284.161 44.7075 283.763 45.1786 283.223 45.5669C282.684 45.9504 282.002 46.1421 281.178 46.1421C280.496 46.1421 279.89 45.993 279.36 45.6947C278.829 45.3917 278.413 44.9371 278.11 44.3311C277.807 43.7203 277.655 42.9508 277.655 42.0228V35.091H279.331V41.9092C279.331 42.7046 279.554 43.3391 279.999 43.8126C280.449 44.2861 281.022 44.5228 281.718 44.5228C282.134 44.5228 282.558 44.4163 282.989 44.2032C283.425 43.9901 283.789 43.6634 284.083 43.2231C284.381 42.7828 284.53 42.2217 284.53 41.5399ZM297.004 37.5342L295.498 37.9603C295.403 37.7094 295.263 37.4655 295.079 37.2288C294.899 36.9873 294.653 36.7884 294.34 36.6322C294.028 36.4759 293.628 36.3978 293.14 36.3978C292.472 36.3978 291.916 36.5517 291.471 36.8595C291.031 37.1625 290.81 37.5484 290.81 38.0171C290.81 38.4338 290.962 38.7629 291.265 39.0044C291.568 39.2458 292.041 39.4471 292.685 39.608L294.305 40.0058C295.28 40.2425 296.007 40.6047 296.485 41.0924C296.963 41.5754 297.202 42.198 297.202 42.9603C297.202 43.5853 297.022 44.144 296.663 44.6365C296.308 45.1289 295.81 45.5171 295.171 45.8012C294.532 46.0853 293.789 46.2274 292.941 46.2274C291.828 46.2274 290.907 45.9859 290.178 45.5029C289.449 45.02 288.987 44.3145 288.793 43.3865L290.384 42.9887C290.536 43.5758 290.822 44.0162 291.244 44.3098C291.67 44.6033 292.226 44.7501 292.913 44.7501C293.694 44.7501 294.314 44.5844 294.773 44.2529C295.237 43.9168 295.469 43.5143 295.469 43.0455C295.469 42.6668 295.337 42.3495 295.072 42.0938C294.807 41.8334 294.399 41.6393 293.85 41.5115L292.032 41.0853C291.033 40.8486 290.299 40.4816 289.83 39.9845C289.366 39.4826 289.134 38.8552 289.134 38.1024C289.134 37.4868 289.307 36.9423 289.653 36.4688C290.003 35.9954 290.479 35.6237 291.08 35.3538C291.686 35.0839 292.373 34.949 293.14 34.949C294.219 34.949 295.067 35.1857 295.683 35.6592C296.303 36.1327 296.743 36.7577 297.004 37.5342ZM304.299 46.2274C303.248 46.2274 302.342 45.9954 301.579 45.5313C300.822 45.0626 300.237 44.4092 299.825 43.5711C299.418 42.7283 299.214 41.7482 299.214 40.6308C299.214 39.5133 299.418 38.5285 299.825 37.6762C300.237 36.8192 300.81 36.1516 301.544 35.6734C302.282 35.1904 303.144 34.949 304.129 34.949C304.697 34.949 305.258 35.0437 305.812 35.233C306.366 35.4224 306.87 35.7302 307.325 36.1563C307.779 36.5777 308.142 37.1365 308.412 37.8325C308.681 38.5285 308.816 39.3855 308.816 40.4035V41.1137H300.407V39.6649H307.112C307.112 39.0493 306.989 38.5001 306.743 38.0171C306.501 37.5342 306.155 37.153 305.706 36.8737C305.261 36.5943 304.735 36.4546 304.129 36.4546C303.461 36.4546 302.884 36.6204 302.396 36.9518C301.913 37.2785 301.541 37.7046 301.281 38.2302C301.02 38.7558 300.89 39.3192 300.89 39.9205V40.8865C300.89 41.7103 301.032 42.4087 301.316 42.9816C301.605 43.5498 302.005 43.983 302.517 44.2813C303.028 44.5749 303.622 44.7217 304.299 44.7217C304.74 44.7217 305.137 44.6601 305.493 44.537C305.852 44.4092 306.163 44.2198 306.423 43.9688C306.683 43.7132 306.885 43.3959 307.027 43.0171L308.646 43.4717C308.475 44.0209 308.189 44.5039 307.787 44.9205C307.384 45.3325 306.887 45.6544 306.295 45.8865C305.703 46.1137 305.038 46.2274 304.299 46.2274ZM311.366 46.0001V35.091H312.985V36.7387H313.099C313.298 36.199 313.658 35.761 314.179 35.4248C314.699 35.0886 315.287 34.9205 315.94 34.9205C316.063 34.9205 316.217 34.9229 316.402 34.9276C316.586 34.9324 316.726 34.9395 316.821 34.949V36.6535C316.764 36.6393 316.634 36.618 316.43 36.5896C316.231 36.5564 316.02 36.5399 315.798 36.5399C315.268 36.5399 314.794 36.6511 314.377 36.8737C313.966 37.0915 313.639 37.3945 313.397 37.7828C313.161 38.1663 313.042 38.6043 313.042 39.0967V46.0001H311.366ZM326.535 37.5342L325.029 37.9603C324.934 37.7094 324.795 37.4655 324.61 37.2288C324.43 36.9873 324.184 36.7884 323.871 36.6322C323.559 36.4759 323.159 36.3978 322.671 36.3978C322.004 36.3978 321.447 36.5517 321.002 36.8595C320.562 37.1625 320.342 37.5484 320.342 38.0171C320.342 38.4338 320.493 38.7629 320.796 39.0044C321.099 39.2458 321.573 39.4471 322.217 39.608L323.836 40.0058C324.811 40.2425 325.538 40.6047 326.016 41.0924C326.495 41.5754 326.734 42.198 326.734 42.9603C326.734 43.5853 326.554 44.144 326.194 44.6365C325.839 45.1289 325.342 45.5171 324.702 45.8012C324.063 46.0853 323.32 46.2274 322.472 46.2274C321.36 46.2274 320.439 45.9859 319.71 45.5029C318.98 45.02 318.519 44.3145 318.325 43.3865L319.915 42.9887C320.067 43.5758 320.353 44.0162 320.775 44.3098C321.201 44.6033 321.757 44.7501 322.444 44.7501C323.225 44.7501 323.845 44.5844 324.305 44.2529C324.769 43.9168 325.001 43.5143 325.001 43.0455C325.001 42.6668 324.868 42.3495 324.603 42.0938C324.338 41.8334 323.931 41.6393 323.381 41.5115L321.563 41.0853C320.564 40.8486 319.83 40.4816 319.362 39.9845C318.897 39.4826 318.665 38.8552 318.665 38.1024C318.665 37.4868 318.838 36.9423 319.184 36.4688C319.534 35.9954 320.01 35.6237 320.612 35.3538C321.218 35.0839 321.904 34.949 322.671 34.949C323.751 34.949 324.598 35.1857 325.214 35.6592C325.834 36.1327 326.274 36.7577 326.535 37.5342Z" fill="white"/>
<path d="M347.938 50.3183C347.128 50.3183 346.432 50.2141 345.849 50.0058C345.267 49.8022 344.782 49.5323 344.393 49.1961C344.01 48.8647 343.705 48.5096 343.477 48.1308L344.812 47.1933C344.964 47.3921 345.156 47.6194 345.388 47.8751C345.62 48.1355 345.937 48.3604 346.339 48.5498C346.747 48.7439 347.279 48.841 347.938 48.841C348.818 48.841 349.545 48.6279 350.118 48.2018C350.691 47.7757 350.977 47.108 350.977 46.199V43.983H350.835C350.712 44.1819 350.537 44.4281 350.31 44.7217C350.087 45.0105 349.765 45.2686 349.344 45.4958C348.927 45.7184 348.364 45.8296 347.653 45.8296C346.773 45.8296 345.982 45.6213 345.281 45.2046C344.585 44.788 344.034 44.1819 343.626 43.3865C343.224 42.591 343.023 41.6251 343.023 40.4887C343.023 39.3713 343.219 38.3983 343.612 37.5697C344.005 36.7364 344.552 36.0924 345.253 35.6379C345.954 35.1786 346.763 34.949 347.682 34.949C348.392 34.949 348.955 35.0673 349.372 35.3041C349.794 35.5361 350.116 35.8012 350.338 36.0995C350.565 36.3931 350.741 36.6346 350.864 36.824H351.034V35.091H352.653V46.3126C352.653 47.2501 352.44 48.0124 352.014 48.5995C351.593 49.1914 351.025 49.6246 350.31 49.8992C349.599 50.1786 348.809 50.3183 347.938 50.3183ZM347.881 44.324C348.553 44.324 349.121 44.1701 349.585 43.8623C350.049 43.5545 350.402 43.1118 350.643 42.5342C350.885 41.9565 351.006 41.2652 351.006 40.4603C351.006 39.6743 350.887 38.9807 350.651 38.3794C350.414 37.778 350.063 37.3069 349.599 36.966C349.135 36.6251 348.563 36.4546 347.881 36.4546C347.17 36.4546 346.579 36.6346 346.105 36.9944C345.636 37.3543 345.284 37.8372 345.047 38.4433C344.815 39.0493 344.699 39.7217 344.699 40.4603C344.699 41.2179 344.817 41.8879 345.054 42.4703C345.295 43.0479 345.651 43.5025 346.119 43.8339C346.593 44.1606 347.18 44.324 347.881 44.324ZM355.722 46.0001V35.091H357.341V36.7387H357.455C357.653 36.199 358.013 35.761 358.534 35.4248C359.055 35.0886 359.642 34.9205 360.295 34.9205C360.419 34.9205 360.572 34.9229 360.757 34.9276C360.942 34.9324 361.081 34.9395 361.176 34.949V36.6535C361.119 36.6393 360.989 36.618 360.786 36.5896C360.587 36.5564 360.376 36.5399 360.153 36.5399C359.623 36.5399 359.15 36.6511 358.733 36.8737C358.321 37.0915 357.994 37.3945 357.753 37.7828C357.516 38.1663 357.398 38.6043 357.398 39.0967V46.0001H355.722ZM366.373 46.2558C365.682 46.2558 365.055 46.1256 364.491 45.8651C363.928 45.6 363.48 45.2188 363.149 44.7217C362.817 44.2198 362.652 43.6137 362.652 42.9035C362.652 42.2785 362.775 41.7719 363.021 41.3836C363.267 40.9906 363.596 40.6829 364.008 40.4603C364.42 40.2378 364.875 40.0721 365.372 39.9632C365.874 39.8495 366.378 39.7596 366.885 39.6933C367.547 39.608 368.085 39.5441 368.497 39.5015C368.913 39.4542 369.217 39.376 369.406 39.2671C369.6 39.1582 369.697 38.9688 369.697 38.699V38.6421C369.697 37.9414 369.505 37.3969 369.122 37.0086C368.743 36.6204 368.168 36.4262 367.396 36.4262C366.596 36.4262 365.968 36.6014 365.514 36.9518C365.059 37.3022 364.74 37.6762 364.555 38.074L362.964 37.5058C363.248 36.8429 363.627 36.3268 364.1 35.9575C364.579 35.5834 365.1 35.323 365.663 35.1762C366.231 35.0247 366.79 34.949 367.339 34.949C367.69 34.949 368.092 34.9916 368.547 35.0768C369.006 35.1573 369.449 35.3254 369.875 35.5811C370.306 35.8367 370.663 36.2226 370.947 36.7387C371.231 37.2548 371.373 37.9461 371.373 38.8126V46.0001H369.697V44.5228H369.612C369.498 44.7596 369.309 45.0129 369.044 45.2828C368.779 45.5526 368.426 45.7823 367.985 45.9717C367.545 46.1611 367.008 46.2558 366.373 46.2558ZM366.629 44.7501C367.292 44.7501 367.85 44.6199 368.305 44.3595C368.764 44.099 369.11 43.7629 369.342 43.3509C369.579 42.939 369.697 42.5058 369.697 42.0512V40.5171C369.626 40.6024 369.47 40.6805 369.228 40.7515C368.992 40.8178 368.717 40.877 368.404 40.9291C368.097 40.9764 367.796 41.019 367.502 41.0569C367.214 41.0901 366.979 41.1185 366.799 41.1421C366.364 41.199 365.957 41.2913 365.578 41.4191C365.204 41.5422 364.901 41.7293 364.669 41.9802C364.441 42.2264 364.328 42.5626 364.328 42.9887C364.328 43.5711 364.543 44.0115 364.974 44.3098C365.41 44.6033 365.961 44.7501 366.629 44.7501ZM382.962 35.091L378.928 46.0001H377.224L373.19 35.091H375.008L378.019 43.7842H378.133L381.144 35.091H382.962ZM385.175 46.0001V35.091H386.851V46.0001H385.175ZM386.027 33.2728C385.7 33.2728 385.419 33.1615 385.182 32.939C384.95 32.7165 384.834 32.449 384.834 32.1365C384.834 31.824 384.95 31.5564 385.182 31.3339C385.419 31.1114 385.7 31.0001 386.027 31.0001C386.354 31.0001 386.633 31.1114 386.865 31.3339C387.102 31.5564 387.22 31.824 387.22 32.1365C387.22 32.449 387.102 32.7165 386.865 32.939C386.633 33.1615 386.354 33.2728 386.027 33.2728ZM394.665 35.091V36.5115H389.012V35.091H394.665ZM390.659 32.4774H392.336V42.8751C392.336 43.3486 392.404 43.7037 392.542 43.9404C392.684 44.1724 392.864 44.3287 393.081 44.4092C393.304 44.4849 393.538 44.5228 393.784 44.5228C393.969 44.5228 394.121 44.5133 394.239 44.4944C394.357 44.4707 394.452 44.4518 394.523 44.4376L394.864 45.9433C394.75 45.9859 394.592 46.0285 394.388 46.0711C394.185 46.1185 393.926 46.1421 393.614 46.1421C393.141 46.1421 392.676 46.0403 392.222 45.8367C391.772 45.6331 391.398 45.323 391.1 44.9063C390.806 44.4897 390.659 43.9641 390.659 43.3296V32.4774ZM398.266 50.091C397.982 50.091 397.729 50.0673 397.506 50.02C397.283 49.9774 397.13 49.9348 397.044 49.8921L397.471 48.4149C397.878 48.519 398.238 48.5569 398.55 48.5285C398.863 48.5001 399.14 48.3604 399.381 48.1095C399.627 47.8633 399.852 47.4632 400.056 46.9092L400.368 46.0569L396.334 35.091H398.152L401.164 43.7842H401.277L404.289 35.091H406.107L401.476 47.591C401.268 48.1544 401.01 48.6208 400.702 48.9901C400.394 49.3642 400.037 49.6412 399.63 49.8211C399.227 50.001 398.773 50.091 398.266 50.091Z" fill="white"/>
<path d="M422.534 46.0001V35.091H424.153V36.7955H424.295C424.523 36.2132 424.89 35.761 425.396 35.439C425.903 35.1123 426.511 34.949 427.222 34.949C427.941 34.949 428.54 35.1123 429.018 35.439C429.501 35.761 429.878 36.2132 430.148 36.7955H430.261C430.541 36.2321 430.96 35.7847 431.518 35.4532C432.077 35.117 432.747 34.949 433.528 34.949C434.504 34.949 435.302 35.2544 435.922 35.8651C436.542 36.4712 436.852 37.4158 436.852 38.699V46.0001H435.176V38.699C435.176 37.894 434.956 37.3187 434.516 36.9731C434.075 36.6275 433.557 36.4546 432.96 36.4546C432.193 36.4546 431.599 36.6866 431.178 37.1507C430.756 37.6099 430.545 38.1923 430.545 38.8978V46.0001H428.841V38.5285C428.841 37.9082 428.64 37.4087 428.237 37.0299C427.835 36.6464 427.316 36.4546 426.682 36.4546C426.246 36.4546 425.839 36.5706 425.46 36.8026C425.086 37.0347 424.783 37.3566 424.551 37.7686C424.324 38.1758 424.21 38.6469 424.21 39.1819V46.0001H422.534ZM444.491 46.2274C443.44 46.2274 442.533 45.9954 441.771 45.5313C441.013 45.0626 440.428 44.4092 440.016 43.5711C439.609 42.7283 439.406 41.7482 439.406 40.6308C439.406 39.5133 439.609 38.5285 440.016 37.6762C440.428 36.8192 441.001 36.1516 441.735 35.6734C442.474 35.1904 443.335 34.949 444.32 34.949C444.888 34.949 445.45 35.0437 446.004 35.233C446.558 35.4224 447.062 35.7302 447.516 36.1563C447.971 36.5777 448.333 37.1365 448.603 37.8325C448.873 38.5285 449.008 39.3855 449.008 40.4035V41.1137H440.599V39.6649H447.303C447.303 39.0493 447.18 38.5001 446.934 38.0171C446.692 37.5342 446.347 37.153 445.897 36.8737C445.452 36.5943 444.926 36.4546 444.32 36.4546C443.653 36.4546 443.075 36.6204 442.587 36.9518C442.104 37.2785 441.733 37.7046 441.472 38.2302C441.212 38.7558 441.082 39.3192 441.082 39.9205V40.8865C441.082 41.7103 441.224 42.4087 441.508 42.9816C441.797 43.5498 442.197 43.983 442.708 44.2813C443.219 44.5749 443.814 44.7217 444.491 44.7217C444.931 44.7217 445.329 44.6601 445.684 44.537C446.044 44.4092 446.354 44.2198 446.614 43.9688C446.875 43.7132 447.076 43.3959 447.218 43.0171L448.837 43.4717C448.667 44.0209 448.38 44.5039 447.978 44.9205C447.576 45.3325 447.078 45.6544 446.487 45.8865C445.895 46.1137 445.229 46.2274 444.491 46.2274ZM453.234 31.4546V46.0001H451.558V31.4546H453.234ZM459.514 46.2558C458.823 46.2558 458.195 46.1256 457.632 45.8651C457.068 45.6 456.621 45.2188 456.289 44.7217C455.958 44.2198 455.792 43.6137 455.792 42.9035C455.792 42.2785 455.915 41.7719 456.162 41.3836C456.408 40.9906 456.737 40.6829 457.149 40.4603C457.561 40.2378 458.015 40.0721 458.512 39.9632C459.014 39.8495 459.519 39.7596 460.025 39.6933C460.688 39.608 461.225 39.5441 461.637 39.5015C462.054 39.4542 462.357 39.376 462.547 39.2671C462.741 39.1582 462.838 38.9688 462.838 38.699V38.6421C462.838 37.9414 462.646 37.3969 462.262 37.0086C461.884 36.6204 461.308 36.4262 460.537 36.4262C459.736 36.4262 459.109 36.6014 458.654 36.9518C458.2 37.3022 457.88 37.6762 457.696 38.074L456.105 37.5058C456.389 36.8429 456.768 36.3268 457.241 35.9575C457.719 35.5834 458.24 35.323 458.804 35.1762C459.372 35.0247 459.931 34.949 460.48 34.949C460.83 34.949 461.233 34.9916 461.687 35.0768C462.146 35.1573 462.589 35.3254 463.015 35.5811C463.446 35.8367 463.804 36.2226 464.088 36.7387C464.372 37.2548 464.514 37.9461 464.514 38.8126V46.0001H462.838V44.5228H462.752C462.639 44.7596 462.449 45.0129 462.184 45.2828C461.919 45.5526 461.566 45.7823 461.126 45.9717C460.686 46.1611 460.148 46.2558 459.514 46.2558ZM459.77 44.7501C460.432 44.7501 460.991 44.6199 461.446 44.3595C461.905 44.099 462.251 43.7629 462.483 43.3509C462.719 42.939 462.838 42.5058 462.838 42.0512V40.5171C462.767 40.6024 462.61 40.6805 462.369 40.7515C462.132 40.8178 461.858 40.877 461.545 40.9291C461.237 40.9764 460.937 41.019 460.643 41.0569C460.354 41.0901 460.12 41.1185 459.94 41.1421C459.504 41.199 459.097 41.2913 458.718 41.4191C458.344 41.5422 458.041 41.7293 457.809 41.9802C457.582 42.2264 457.468 42.5626 457.468 42.9887C457.468 43.5711 457.684 44.0115 458.115 44.3098C458.55 44.6033 459.102 44.7501 459.77 44.7501ZM472.317 35.091V36.5115H466.664V35.091H472.317ZM468.312 32.4774H469.988V42.8751C469.988 43.3486 470.057 43.7037 470.194 43.9404C470.336 44.1724 470.516 44.3287 470.734 44.4092C470.956 44.4849 471.191 44.5228 471.437 44.5228C471.621 44.5228 471.773 44.5133 471.891 44.4944C472.01 44.4707 472.104 44.4518 472.175 44.4376L472.516 45.9433C472.403 45.9859 472.244 46.0285 472.04 46.0711C471.837 46.1185 471.579 46.1421 471.266 46.1421C470.793 46.1421 470.329 46.0403 469.874 45.8367C469.424 45.6331 469.05 45.323 468.752 44.9063C468.459 44.4897 468.312 43.9641 468.312 43.3296V32.4774ZM479.153 46.2274C478.169 46.2274 477.304 45.993 476.561 45.5242C475.822 45.0555 475.245 44.3997 474.828 43.5569C474.416 42.7141 474.21 41.7293 474.21 40.6024C474.21 39.466 474.416 38.474 474.828 37.6265C475.245 36.779 475.822 36.1208 476.561 35.6521C477.304 35.1833 478.169 34.949 479.153 34.949C480.138 34.949 481 35.1833 481.739 35.6521C482.482 36.1208 483.06 36.779 483.472 37.6265C483.888 38.474 484.097 39.466 484.097 40.6024C484.097 41.7293 483.888 42.7141 483.472 43.5569C483.06 44.3997 482.482 45.0555 481.739 45.5242C481 45.993 480.138 46.2274 479.153 46.2274ZM479.153 44.7217C479.902 44.7217 480.517 44.5299 481 44.1464C481.483 43.7629 481.84 43.2586 482.072 42.6336C482.304 42.0086 482.42 41.3315 482.42 40.6024C482.42 39.8732 482.304 39.1937 482.072 38.564C481.84 37.9343 481.483 37.4253 481 37.037C480.517 36.6488 479.902 36.4546 479.153 36.4546C478.405 36.4546 477.79 36.6488 477.307 37.037C476.824 37.4253 476.466 37.9343 476.234 38.564C476.002 39.1937 475.886 39.8732 475.886 40.6024C475.886 41.3315 476.002 42.0086 476.234 42.6336C476.466 43.2586 476.824 43.7629 477.307 44.1464C477.79 44.5299 478.405 44.7217 479.153 44.7217ZM488.331 39.4376V46.0001H486.655V35.091H488.275V36.7955H488.417C488.672 36.2416 489.06 35.7965 489.581 35.4603C490.102 35.1194 490.775 34.949 491.598 34.949C492.337 34.949 492.983 35.1005 493.537 35.4035C494.091 35.7018 494.522 36.1563 494.83 36.7671C495.138 37.3732 495.292 38.1402 495.292 39.0683V46.0001H493.615V39.1819C493.615 38.3249 493.393 37.6573 492.948 37.1791C492.503 36.6961 491.892 36.4546 491.115 36.4546C490.58 36.4546 490.102 36.5706 489.681 36.8026C489.264 37.0347 488.935 37.3732 488.694 37.8183C488.452 38.2633 488.331 38.8031 488.331 39.4376ZM498.354 46.0001V35.091H500.031V46.0001H498.354ZM499.207 33.2728C498.88 33.2728 498.598 33.1615 498.362 32.939C498.129 32.7165 498.013 32.449 498.013 32.1365C498.013 31.824 498.129 31.5564 498.362 31.3339C498.598 31.1114 498.88 31.0001 499.207 31.0001C499.533 31.0001 499.813 31.1114 500.045 31.3339C500.281 31.5564 500.4 31.824 500.4 32.1365C500.4 32.449 500.281 32.7165 500.045 32.939C499.813 33.1615 499.533 33.2728 499.207 33.2728ZM504.777 39.4376V46.0001H503.1V35.091H504.72V36.7955H504.862C505.118 36.2416 505.506 35.7965 506.027 35.4603C506.547 35.1194 507.22 34.949 508.044 34.949C508.782 34.949 509.429 35.1005 509.983 35.4035C510.537 35.7018 510.967 36.1563 511.275 36.7671C511.583 37.3732 511.737 38.1402 511.737 39.0683V46.0001H510.061V39.1819C510.061 38.3249 509.838 37.6573 509.393 37.1791C508.948 36.6961 508.337 36.4546 507.561 36.4546C507.026 36.4546 506.547 36.5706 506.126 36.8026C505.709 37.0347 505.38 37.3732 505.139 37.8183C504.897 38.2633 504.777 38.8031 504.777 39.4376Z" fill="white"/>
<path d="M528.506 46.0001V44.7217L533.307 39.466C533.87 38.8505 534.334 38.3154 534.699 37.8609C535.063 37.4016 535.333 36.9707 535.509 36.5683C535.688 36.1611 535.778 35.7349 535.778 35.2899C535.778 34.7785 535.655 34.3358 535.409 33.9617C535.168 33.5877 534.836 33.2989 534.415 33.0953C533.993 32.8917 533.52 32.7899 532.994 32.7899C532.436 32.7899 531.948 32.9059 531.531 33.1379C531.119 33.3651 530.8 33.6847 530.572 34.0967C530.35 34.5086 530.239 34.9916 530.239 35.5455H528.562C528.562 34.6933 528.759 33.9452 529.152 33.3012C529.545 32.6573 530.08 32.1554 530.757 31.7955C531.439 31.4357 532.204 31.2558 533.051 31.2558C533.903 31.2558 534.659 31.4357 535.317 31.7955C535.975 32.1554 536.491 32.6407 536.865 33.2515C537.239 33.8623 537.426 34.5418 537.426 35.2899C537.426 35.8249 537.329 36.3481 537.135 36.8595C536.946 37.3661 536.614 37.9319 536.141 38.5569C535.672 39.1772 535.021 39.9348 534.188 40.8296L530.92 44.324V44.4376H537.682V46.0001H528.506ZM546.893 38.983V40.5455H540.53V38.983H546.893ZM554.275 46.2274C553.252 46.2274 552.371 45.9859 551.632 45.5029C550.894 45.02 550.326 44.3547 549.928 43.5072C549.53 42.6597 549.331 41.6914 549.331 40.6024C549.331 39.4944 549.535 38.5167 549.942 37.6691C550.354 36.8169 550.927 36.1516 551.661 35.6734C552.4 35.1904 553.261 34.949 554.246 34.949C555.013 34.949 555.704 35.091 556.32 35.3751C556.935 35.6592 557.44 36.0569 557.833 36.5683C558.226 37.0796 558.47 37.6762 558.564 38.358H556.888C556.76 37.8609 556.476 37.4205 556.036 37.037C555.6 36.6488 555.013 36.4546 554.275 36.4546C553.621 36.4546 553.048 36.6251 552.556 36.966C552.068 37.3022 551.687 37.778 551.412 38.3936C551.142 39.0044 551.007 39.7217 551.007 40.5455C551.007 41.3883 551.14 42.1223 551.405 42.7473C551.675 43.3723 552.054 43.8576 552.542 44.2032C553.034 44.5489 553.612 44.7217 554.275 44.7217C554.71 44.7217 555.105 44.6459 555.461 44.4944C555.816 44.3429 556.116 44.1251 556.363 43.841C556.609 43.5569 556.784 43.216 556.888 42.8183H558.564C558.47 43.4622 558.235 44.0422 557.861 44.5583C557.492 45.0697 557.002 45.4769 556.391 45.7799C555.785 46.0782 555.079 46.2274 554.275 46.2274ZM561.242 46.0001V31.4546H562.918V36.824H563.06C563.183 36.6346 563.354 36.3931 563.571 36.0995C563.794 35.8012 564.111 35.5361 564.523 35.3041C564.94 35.0673 565.503 34.949 566.213 34.949C567.132 34.949 567.942 35.1786 568.642 35.6379C569.343 36.0972 569.89 36.7482 570.283 37.591C570.676 38.4338 570.873 39.4281 570.873 40.574C570.873 41.7293 570.676 42.7307 570.283 43.5782C569.89 44.421 569.346 45.0744 568.65 45.5384C567.953 45.9977 567.151 46.2274 566.242 46.2274C565.541 46.2274 564.98 46.1114 564.559 45.8794C564.137 45.6426 563.813 45.3751 563.586 45.0768C563.358 44.7738 563.183 44.5228 563.06 44.324H562.861V46.0001H561.242ZM562.89 40.5455C562.89 41.3694 563.01 42.0962 563.252 42.7259C563.493 43.3509 563.846 43.841 564.31 44.1961C564.774 44.5465 565.342 44.7217 566.015 44.7217C566.715 44.7217 567.3 44.537 567.769 44.1677C568.242 43.7937 568.597 43.2918 568.834 42.662C569.076 42.0276 569.196 41.3221 569.196 40.5455C569.196 39.7785 569.078 39.0872 568.841 38.4717C568.609 37.8514 568.257 37.3614 567.783 37.0015C567.314 36.6369 566.725 36.4546 566.015 36.4546C565.333 36.4546 564.76 36.6275 564.296 36.9731C563.832 37.314 563.481 37.7922 563.245 38.4078C563.008 39.0186 562.89 39.7312 562.89 40.5455Z" fill="white"/>
<path d="M50.9659 92.2274C49.9432 92.2274 49.0625 91.9859 48.3239 91.5029C47.5852 91.02 47.017 90.3547 46.6193 89.5072C46.2216 88.6597 46.0227 87.6914 46.0227 86.6024C46.0227 85.4944 46.2263 84.5167 46.6335 83.6691C47.0455 82.8169 47.6184 82.1516 48.3523 81.6734C49.0909 81.1904 49.9527 80.949 50.9375 80.949C51.7045 80.949 52.3958 81.091 53.0114 81.3751C53.6269 81.6592 54.1312 82.0569 54.5241 82.5683C54.9171 83.0796 55.161 83.6762 55.2557 84.358H53.5795C53.4517 83.8609 53.1676 83.4205 52.7273 83.037C52.2917 82.6488 51.7045 82.4546 50.9659 82.4546C50.3125 82.4546 49.7396 82.6251 49.2472 82.966C48.7595 83.3022 48.3783 83.778 48.1037 84.3936C47.8338 85.0044 47.6989 85.7217 47.6989 86.5455C47.6989 87.3883 47.8314 88.1223 48.0966 88.7473C48.3665 89.3723 48.7453 89.8576 49.233 90.2032C49.7254 90.5489 50.303 90.7217 50.9659 90.7217C51.4015 90.7217 51.7969 90.6459 52.152 90.4944C52.5071 90.3429 52.8078 90.1251 53.054 89.841C53.3002 89.5569 53.4754 89.216 53.5795 88.8183H55.2557C55.161 89.4622 54.9266 90.0422 54.5526 90.5583C54.1832 91.0697 53.6932 91.4769 53.0824 91.7799C52.4763 92.0782 51.7708 92.2274 50.9659 92.2274ZM60.9162 92.2558C60.2249 92.2558 59.5975 92.1256 59.0341 91.8651C58.4706 91.6 58.0232 91.2188 57.6918 90.7217C57.3603 90.2198 57.1946 89.6137 57.1946 88.9035C57.1946 88.2785 57.3177 87.7719 57.5639 87.3836C57.8101 86.9906 58.1392 86.6829 58.5511 86.4603C58.9631 86.2378 59.4176 86.0721 59.9148 85.9632C60.4167 85.8495 60.9209 85.7596 61.4276 85.6933C62.0904 85.608 62.6278 85.5441 63.0398 85.5015C63.4564 85.4542 63.7595 85.376 63.9489 85.2671C64.143 85.1582 64.2401 84.9688 64.2401 84.699V84.6421C64.2401 83.9414 64.0483 83.3969 63.6648 83.0086C63.286 82.6204 62.7107 82.4262 61.9389 82.4262C61.1387 82.4262 60.5114 82.6014 60.0568 82.9518C59.6023 83.3022 59.2827 83.6762 59.098 84.074L57.5071 83.5058C57.7912 82.8429 58.17 82.3268 58.6435 81.9575C59.1217 81.5834 59.6425 81.323 60.206 81.1762C60.7741 81.0247 61.3329 80.949 61.8821 80.949C62.2325 80.949 62.6349 80.9916 63.0895 81.0768C63.5488 81.1573 63.9915 81.3254 64.4176 81.5811C64.8485 81.8367 65.206 82.2226 65.4901 82.7387C65.7741 83.2548 65.9162 83.9461 65.9162 84.8126V92.0001H64.2401V90.5228H64.1548C64.0412 90.7596 63.8518 91.0129 63.5866 91.2828C63.3215 91.5526 62.9688 91.7823 62.5284 91.9717C62.0881 92.1611 61.5507 92.2558 60.9162 92.2558ZM61.1719 90.7501C61.8348 90.7501 62.3935 90.6199 62.848 90.3595C63.3073 90.099 63.6529 89.7629 63.8849 89.3509C64.1217 88.939 64.2401 88.5058 64.2401 88.0512V86.5171C64.169 86.6024 64.0128 86.6805 63.7713 86.7515C63.5346 86.8178 63.2599 86.877 62.9474 86.9291C62.6397 86.9764 62.339 87.019 62.0455 87.0569C61.7566 87.0901 61.5223 87.1185 61.3423 87.1421C60.9067 87.199 60.4995 87.2913 60.1207 87.4191C59.7467 87.5422 59.4437 87.7293 59.2116 87.9802C58.9844 88.2264 58.8707 88.5626 58.8707 88.9887C58.8707 89.5711 59.0862 90.0115 59.517 90.3098C59.9527 90.6033 60.5043 90.7501 61.1719 90.7501ZM68.9755 92.0001V81.091H70.5948V82.7387H70.7085C70.9073 82.199 71.2672 81.761 71.788 81.4248C72.3088 81.0886 72.896 80.9205 73.5494 80.9205C73.6725 80.9205 73.8263 80.9229 74.011 80.9276C74.1957 80.9324 74.3353 80.9395 74.43 80.949V82.6535C74.3732 82.6393 74.243 82.618 74.0394 82.5896C73.8406 82.5564 73.6299 82.5399 73.4073 82.5399C72.877 82.5399 72.4035 82.6511 71.9869 82.8737C71.5749 83.0915 71.2482 83.3945 71.0067 83.7828C70.77 84.1663 70.6516 84.6043 70.6516 85.0967V92.0001H68.9755ZM76.4169 92.0001V81.091H78.0362V82.7387H78.1499C78.3487 82.199 78.7086 81.761 79.2294 81.4248C79.7502 81.0886 80.3374 80.9205 80.9908 80.9205C81.1139 80.9205 81.2678 80.9229 81.4524 80.9276C81.6371 80.9324 81.7768 80.9395 81.8714 80.949V82.6535C81.8146 82.6393 81.6844 82.618 81.4808 82.5896C81.282 82.5564 81.0713 82.5399 80.8487 82.5399C80.3184 82.5399 79.8449 82.6511 79.4283 82.8737C79.0163 83.0915 78.6896 83.3945 78.4482 83.7828C78.2114 84.1663 78.093 84.6043 78.093 85.0967V92.0001H76.4169ZM85.2699 96.091C84.9858 96.091 84.7325 96.0673 84.5099 96.02C84.2874 95.9774 84.1335 95.9348 84.0483 95.8921L84.4744 94.4149C84.8816 94.519 85.2415 94.5569 85.554 94.5285C85.8665 94.5001 86.1435 94.3604 86.3849 94.1095C86.6312 93.8633 86.8561 93.4632 87.0597 92.9092L87.3722 92.0569L83.3381 81.091H85.1562L88.1676 89.7842H88.2812L91.2926 81.091H93.1108L88.4801 93.591C88.2718 94.1544 88.0137 94.6208 87.706 94.9901C87.3982 95.3642 87.0407 95.6412 86.6335 95.8211C86.2311 96.001 85.7765 96.091 85.2699 96.091Z" fill="white"/>
</svg>
