<svg width="600" height="50" viewBox="0 0 600 50" fill="none" xmlns="http://www.w3.org/2000/svg">
<g clip-path="url(#clip0_523_663)">
<rect y="25" width="600" height="25" fill="#A0A0A0"/>
<rect x="22" y="45" width="14" height="14" transform="rotate(-180 22 45)" fill="#3D3D3D"/>
<rect x="141" y="45" width="14" height="14" transform="rotate(-180 141 45)" fill="#3D3D3D"/>
<rect x="262" y="45" width="14" height="14" transform="rotate(-180 262 45)" fill="#3D3D3D"/>
<rect x="383" y="45" width="14" height="14" transform="rotate(-180 383 45)" fill="#D9D9D9"/>
<rect x="504" y="45" width="14" height="14" transform="rotate(-180 504 45)" fill="#3D3D3D"/>
<rect x="40" y="45" width="14" height="14" transform="rotate(-180 40 45)" fill="#3D3D3D"/>
<rect x="159" y="45" width="14" height="14" transform="rotate(-180 159 45)" fill="#3D3D3D"/>
<rect x="280" y="45" width="14" height="14" transform="rotate(-180 280 45)" fill="#D9D9D9"/>
<rect x="401" y="45" width="14" height="14" transform="rotate(-180 401 45)" fill="#3D3D3D"/>
<rect x="522" y="45" width="14" height="14" transform="rotate(-180 522 45)" fill="#3D3D3D"/>
<rect x="58" y="45" width="14" height="14" transform="rotate(-180 58 45)" fill="#3D3D3D"/>
<rect x="177" y="45" width="14" height="14" transform="rotate(-180 177 45)" fill="#D9D9D9"/>
<rect x="298" y="45" width="14" height="14" transform="rotate(-180 298 45)" fill="#3D3D3D"/>
<rect x="419" y="45" width="14" height="14" transform="rotate(-180 419 45)" fill="#3D3D3D"/>
<rect x="540" y="45" width="14" height="14" transform="rotate(-180 540 45)" fill="#3D3D3D"/>
<rect x="76" y="45" width="14" height="14" transform="rotate(-180 76 45)" fill="#D9D9D9"/>
<rect x="195" y="45" width="14" height="14" transform="rotate(-180 195 45)" fill="#3D3D3D"/>
<rect x="316" y="45" width="14" height="14" transform="rotate(-180 316 45)" fill="#3D3D3D"/>
<rect x="437" y="45" width="14" height="14" transform="rotate(-180 437 45)" fill="#3D3D3D"/>
<rect x="558" y="45" width="14" height="14" transform="rotate(-180 558 45)" fill="#3D3D3D"/>
<rect x="94" y="45" width="14" height="14" transform="rotate(-180 94 45)" fill="#3D3D3D"/>
<rect x="213" y="45" width="14" height="14" transform="rotate(-180 213 45)" fill="#3D3D3D"/>
<rect x="334" y="45" width="14" height="14" transform="rotate(-180 334 45)" fill="#3D3D3D"/>
<rect x="455" y="45" width="14" height="14" transform="rotate(-180 455 45)" fill="#3D3D3D"/>
<rect x="576" y="45" width="14" height="14" transform="rotate(-180 576 45)" fill="#D9D9D9"/>
<rect x="112" y="45" width="14" height="14" transform="rotate(-180 112 45)" fill="#3D3D3D"/>
<rect x="231" y="45" width="14" height="14" transform="rotate(-180 231 45)" fill="#3D3D3D"/>
<rect x="352" y="45" width="14" height="14" transform="rotate(-180 352 45)" fill="#3D3D3D"/>
<rect x="473" y="45" width="14" height="14" transform="rotate(-180 473 45)" fill="#3D3D3D"/>
<rect x="594" y="45" width="14" height="14" transform="rotate(-180 594 45)" fill="#3D3D3D"/>
<rect width="117" height="21" transform="translate(483)" fill="#A0A0A0"/>
<path d="M525.768 8.3C525.624 7.86004 525.435 7.46581 525.2 7.11733C524.969 6.76449 524.692 6.46392 524.37 6.21563C524.052 5.96733 523.69 5.77784 523.285 5.64716C522.88 5.51648 522.436 5.45114 521.952 5.45114C521.159 5.45114 520.439 5.65587 519.789 6.06534C519.14 6.47481 518.624 7.07813 518.241 7.87528C517.858 8.67244 517.666 9.65038 517.666 10.8091C517.666 11.9678 517.86 12.9457 518.247 13.7429C518.635 14.5401 519.16 15.1434 519.822 15.5528C520.484 15.9623 521.229 16.167 522.057 16.167C522.823 16.167 523.499 16.0037 524.082 15.677C524.67 15.3459 525.128 14.8798 525.455 14.2787C525.786 13.6732 525.951 12.961 525.951 12.142L526.448 12.2466H522.423V10.8091H527.519V12.2466C527.519 13.3487 527.284 14.307 526.814 15.1216C526.348 15.9362 525.703 16.5678 524.88 17.0165C524.061 17.4608 523.12 17.683 522.057 17.683C520.872 17.683 519.831 17.4042 518.934 16.8466C518.041 16.289 517.344 15.4962 516.843 14.4682C516.346 13.4402 516.098 12.2205 516.098 10.8091C516.098 9.75057 516.239 8.79877 516.522 7.95369C516.81 7.10426 517.215 6.38116 517.738 5.78438C518.261 5.1876 518.879 4.73021 519.593 4.41222C520.308 4.09422 521.094 3.93523 521.952 3.93523C522.658 3.93523 523.316 4.04195 523.926 4.2554C524.54 4.46449 525.086 4.76288 525.566 5.15057C526.049 5.5339 526.452 5.99347 526.774 6.52926C527.097 7.0607 527.319 7.65095 527.441 8.3H525.768ZM534.294 17.7091C533.326 17.7091 532.492 17.4956 531.791 17.0688C531.094 16.6375 530.556 16.0364 530.177 15.2653C529.802 14.49 529.615 13.5883 529.615 12.5602C529.615 11.5322 529.802 10.6261 530.177 9.84205C530.556 9.0536 531.083 8.43939 531.758 7.99943C532.438 7.55511 533.231 7.33295 534.137 7.33295C534.659 7.33295 535.176 7.42008 535.685 7.59432C536.195 7.76856 536.659 8.0517 537.077 8.44375C537.495 8.83144 537.828 9.34545 538.077 9.9858C538.325 10.6261 538.449 11.4146 538.449 12.3511V13.0045H530.713V11.6716H536.881C536.881 11.1053 536.768 10.6 536.541 10.1557C536.319 9.71136 536.001 9.3607 535.587 9.10369C535.178 8.84669 534.694 8.71818 534.137 8.71818C533.523 8.71818 532.991 8.87064 532.542 9.17557C532.098 9.47614 531.756 9.86818 531.517 10.3517C531.277 10.8352 531.157 11.3536 531.157 11.9068V12.7955C531.157 13.5534 531.288 14.1959 531.549 14.723C531.815 15.2457 532.183 15.6443 532.653 15.9188C533.124 16.1888 533.671 16.3239 534.294 16.3239C534.699 16.3239 535.065 16.2672 535.391 16.154C535.722 16.0364 536.008 15.8621 536.247 15.6313C536.487 15.396 536.672 15.1042 536.803 14.7557L538.292 15.1739C538.136 15.6792 537.872 16.1235 537.502 16.5068C537.132 16.8858 536.674 17.182 536.13 17.3955C535.585 17.6045 534.973 17.7091 534.294 17.7091ZM542.337 11.4625V17.5H540.795V7.46364H542.285V9.03182H542.415C542.651 8.52216 543.008 8.11269 543.487 7.80341C543.966 7.48977 544.585 7.33295 545.343 7.33295C546.022 7.33295 546.617 7.47235 547.126 7.75114C547.636 8.02557 548.033 8.44375 548.316 9.00568C548.599 9.56326 548.74 10.2689 548.74 11.1227V17.5H547.198V11.2273C547.198 10.4388 546.994 9.82462 546.584 9.38466C546.175 8.94034 545.613 8.71818 544.898 8.71818C544.406 8.71818 543.966 8.82491 543.578 9.03835C543.195 9.2518 542.892 9.56326 542.67 9.97273C542.448 10.3822 542.337 10.8788 542.337 11.4625ZM551.558 17.5V7.46364H553.048V8.97955H553.153C553.336 8.48295 553.667 8.08002 554.146 7.77074C554.625 7.46146 555.165 7.30682 555.766 7.30682C555.879 7.30682 556.021 7.309 556.191 7.31335C556.361 7.31771 556.489 7.32424 556.576 7.33295V8.90114C556.524 8.88807 556.404 8.86847 556.217 8.84233C556.034 8.81184 555.84 8.79659 555.636 8.79659C555.148 8.79659 554.712 8.89896 554.329 9.10369C553.95 9.30407 553.649 9.58286 553.427 9.94006C553.209 10.2929 553.1 10.6958 553.1 11.1489V17.5H551.558ZM562.307 17.7091C561.34 17.7091 560.506 17.4956 559.804 17.0688C559.107 16.6375 558.569 16.0364 558.19 15.2653C557.816 14.49 557.628 13.5883 557.628 12.5602C557.628 11.5322 557.816 10.6261 558.19 9.84205C558.569 9.0536 559.096 8.43939 559.772 7.99943C560.451 7.55511 561.244 7.33295 562.15 7.33295C562.673 7.33295 563.189 7.42008 563.699 7.59432C564.208 7.76856 564.672 8.0517 565.09 8.44375C565.509 8.83144 565.842 9.34545 566.09 9.9858C566.338 10.6261 566.462 11.4146 566.462 12.3511V13.0045H558.726V11.6716H564.894C564.894 11.1053 564.781 10.6 564.555 10.1557C564.332 9.71136 564.014 9.3607 563.601 9.10369C563.191 8.84669 562.708 8.71818 562.15 8.71818C561.536 8.71818 561.004 8.87064 560.556 9.17557C560.111 9.47614 559.769 9.86818 559.53 10.3517C559.29 10.8352 559.17 11.3536 559.17 11.9068V12.7955C559.17 13.5534 559.301 14.1959 559.562 14.723C559.828 15.2457 560.196 15.6443 560.667 15.9188C561.137 16.1888 561.684 16.3239 562.307 16.3239C562.712 16.3239 563.078 16.2672 563.405 16.154C563.736 16.0364 564.021 15.8621 564.261 15.6313C564.5 15.396 564.685 15.1042 564.816 14.7557L566.306 15.1739C566.149 15.6792 565.885 16.1235 565.515 16.5068C565.145 16.8858 564.687 17.182 564.143 17.3955C563.598 17.6045 562.986 17.7091 562.307 17.7091Z" fill="#3D3D3D"/>
<rect width="117" height="21" transform="translate(362)" fill="#A0A0A0"/>
<path d="M387.12 4.11818H389.055L393.602 15.2261H393.759L398.307 4.11818H400.241V17.5H398.725V7.33295H398.594L394.412 17.5H392.949L388.767 7.33295H388.636V17.5H387.12V4.11818ZM406.234 17.7352C405.598 17.7352 405.021 17.6154 404.503 17.3759C403.984 17.1319 403.573 16.7813 403.268 16.3239C402.963 15.8621 402.81 15.3045 402.81 14.6511C402.81 14.0761 402.924 13.61 403.15 13.2528C403.377 12.8913 403.679 12.6081 404.058 12.4034C404.437 12.1987 404.856 12.0462 405.313 11.946C405.775 11.8415 406.239 11.7587 406.705 11.6977C407.315 11.6193 407.809 11.5605 408.188 11.5213C408.571 11.4777 408.85 11.4059 409.024 11.3057C409.203 11.2055 409.292 11.0312 409.292 10.783V10.7307C409.292 10.086 409.116 9.58504 408.763 9.22784C408.415 8.87064 407.885 8.69205 407.175 8.69205C406.439 8.69205 405.862 8.85322 405.444 9.17557C405.025 9.49792 404.731 9.84205 404.562 10.208L403.098 9.68523C403.359 9.07538 403.708 8.60057 404.143 8.2608C404.583 7.91667 405.063 7.67708 405.581 7.54205C406.104 7.40265 406.618 7.33295 407.123 7.33295C407.445 7.33295 407.816 7.37216 408.234 7.45057C408.656 7.52462 409.064 7.67926 409.456 7.91449C409.852 8.14972 410.181 8.50474 410.442 8.97955C410.704 9.45436 410.834 10.0903 410.834 10.8875V17.5H409.292V16.1409H409.214C409.109 16.3587 408.935 16.5918 408.691 16.8401C408.447 17.0884 408.123 17.2996 407.718 17.4739C407.312 17.6481 406.818 17.7352 406.234 17.7352ZM406.47 16.35C407.079 16.35 407.593 16.2302 408.012 15.9906C408.434 15.751 408.752 15.4418 408.966 15.0628C409.183 14.6838 409.292 14.2852 409.292 13.867V12.4557C409.227 12.5341 409.083 12.606 408.861 12.6713C408.643 12.7323 408.391 12.7867 408.103 12.8347C407.82 12.8782 407.543 12.9174 407.273 12.9523C407.008 12.9828 406.792 13.0089 406.626 13.0307C406.226 13.083 405.851 13.1679 405.502 13.2855C405.158 13.3988 404.88 13.5708 404.666 13.8017C404.457 14.0282 404.352 14.3375 404.352 14.7295C404.352 15.2653 404.551 15.6705 404.947 15.9449C405.348 16.215 405.855 16.35 406.47 16.35ZM418.014 7.46364V8.77045H412.812V7.46364H418.014ZM414.328 5.05909H415.87V14.625C415.87 15.0606 415.934 15.3873 416.06 15.6051C416.191 15.8186 416.356 15.9623 416.557 16.0364C416.761 16.1061 416.977 16.1409 417.203 16.1409C417.373 16.1409 417.513 16.1322 417.622 16.1148C417.73 16.093 417.818 16.0756 417.883 16.0625L418.197 17.4477C418.092 17.4869 417.946 17.5261 417.759 17.5653C417.571 17.6089 417.334 17.6307 417.047 17.6307C416.611 17.6307 416.184 17.537 415.766 17.3497C415.352 17.1624 415.008 16.8771 414.734 16.4938C414.463 16.1104 414.328 15.6269 414.328 15.0432V5.05909ZM424.433 17.7091C423.466 17.7091 422.632 17.4956 421.931 17.0688C421.234 16.6375 420.696 16.0364 420.317 15.2653C419.942 14.49 419.755 13.5883 419.755 12.5602C419.755 11.5322 419.942 10.6261 420.317 9.84205C420.696 9.0536 421.223 8.43939 421.898 7.99943C422.578 7.55511 423.371 7.33295 424.277 7.33295C424.799 7.33295 425.315 7.42008 425.825 7.59432C426.335 7.76856 426.799 8.0517 427.217 8.44375C427.635 8.83144 427.968 9.34545 428.217 9.9858C428.465 10.6261 428.589 11.4146 428.589 12.3511V13.0045H420.853V11.6716H427.021C427.021 11.1053 426.908 10.6 426.681 10.1557C426.459 9.71136 426.141 9.3607 425.727 9.10369C425.318 8.84669 424.834 8.71818 424.277 8.71818C423.662 8.71818 423.131 8.87064 422.682 9.17557C422.238 9.47614 421.896 9.86818 421.656 10.3517C421.417 10.8352 421.297 11.3536 421.297 11.9068V12.7955C421.297 13.5534 421.428 14.1959 421.689 14.723C421.955 15.2457 422.323 15.6443 422.793 15.9188C423.264 16.1888 423.81 16.3239 424.433 16.3239C424.838 16.3239 425.204 16.2672 425.531 16.154C425.862 16.0364 426.147 15.8621 426.387 15.6313C426.627 15.396 426.812 15.1042 426.942 14.7557L428.432 15.1739C428.275 15.6792 428.012 16.1235 427.642 16.5068C427.271 16.8858 426.814 17.182 426.269 17.3955C425.725 17.6045 425.113 17.7091 424.433 17.7091ZM430.935 17.5V7.46364H432.425V8.97955H432.529C432.712 8.48295 433.043 8.08002 433.522 7.77074C434.001 7.46146 434.542 7.30682 435.143 7.30682C435.256 7.30682 435.398 7.309 435.567 7.31335C435.737 7.31771 435.866 7.32424 435.953 7.33295V8.90114C435.901 8.88807 435.781 8.86847 435.594 8.84233C435.411 8.81184 435.217 8.79659 435.012 8.79659C434.524 8.79659 434.089 8.89896 433.705 9.10369C433.326 9.30407 433.026 9.58286 432.804 9.94006C432.586 10.2929 432.477 10.6958 432.477 11.1489V17.5H430.935ZM437.781 17.5V7.46364H439.323V17.5H437.781ZM438.565 5.79091C438.264 5.79091 438.005 5.68854 437.787 5.48381C437.574 5.27907 437.467 5.03295 437.467 4.74545C437.467 4.45795 437.574 4.21184 437.787 4.0071C438.005 3.80237 438.264 3.7 438.565 3.7C438.866 3.7 439.123 3.80237 439.336 4.0071C439.554 4.21184 439.663 4.45795 439.663 4.74545C439.663 5.03295 439.554 5.27907 439.336 5.48381C439.123 5.68854 438.866 5.79091 438.565 5.79091ZM445.101 17.7352C444.465 17.7352 443.888 17.6154 443.369 17.3759C442.851 17.1319 442.439 16.7813 442.134 16.3239C441.829 15.8621 441.677 15.3045 441.677 14.6511C441.677 14.0761 441.79 13.61 442.017 13.2528C442.243 12.8913 442.546 12.6081 442.925 12.4034C443.304 12.1987 443.722 12.0462 444.179 11.946C444.641 11.8415 445.105 11.7587 445.571 11.6977C446.181 11.6193 446.675 11.5605 447.054 11.5213C447.438 11.4777 447.717 11.4059 447.891 11.3057C448.069 11.2055 448.159 11.0312 448.159 10.783V10.7307C448.159 10.086 447.982 9.58504 447.629 9.22784C447.281 8.87064 446.752 8.69205 446.042 8.69205C445.305 8.69205 444.728 8.85322 444.31 9.17557C443.892 9.49792 443.598 9.84205 443.428 10.208L441.964 9.68523C442.226 9.07538 442.574 8.60057 443.01 8.2608C443.45 7.91667 443.929 7.67708 444.447 7.54205C444.97 7.40265 445.484 7.33295 445.989 7.33295C446.312 7.33295 446.682 7.37216 447.1 7.45057C447.523 7.52462 447.93 7.67926 448.322 7.91449C448.718 8.14972 449.047 8.50474 449.309 8.97955C449.57 9.45436 449.701 10.0903 449.701 10.8875V17.5H448.159V16.1409H448.08C447.976 16.3587 447.801 16.5918 447.558 16.8401C447.314 17.0884 446.989 17.2996 446.584 17.4739C446.179 17.6481 445.684 17.7352 445.101 17.7352ZM445.336 16.35C445.946 16.35 446.46 16.2302 446.878 15.9906C447.301 15.751 447.619 15.4418 447.832 15.0628C448.05 14.6838 448.159 14.2852 448.159 13.867V12.4557C448.093 12.5341 447.95 12.606 447.727 12.6713C447.51 12.7323 447.257 12.7867 446.969 12.8347C446.686 12.8782 446.41 12.9174 446.14 12.9523C445.874 12.9828 445.658 13.0089 445.493 13.0307C445.092 13.083 444.717 13.1679 444.369 13.2855C444.025 13.3988 443.746 13.5708 443.533 13.8017C443.323 14.0282 443.219 14.3375 443.219 14.7295C443.219 15.2653 443.417 15.6705 443.813 15.9449C444.214 16.215 444.722 16.35 445.336 16.35ZM454.057 4.11818V17.5H452.515V4.11818H454.057Z" fill="#3D3D3D"/>
<rect width="116" height="21" transform="translate(242)" fill="#A0A0A0"/>
<path d="M285.62 17.5V4.11818H293.697V5.55568H287.241V10.0773H293.278V11.5148H287.241V16.0625H293.801V17.5H285.62ZM297.95 11.4625V17.5H296.408V7.46364H297.898V9.03182H298.029C298.264 8.52216 298.621 8.11269 299.1 7.80341C299.579 7.48977 300.198 7.33295 300.956 7.33295C301.636 7.33295 302.23 7.47235 302.74 7.75114C303.249 8.02557 303.646 8.44375 303.929 9.00568C304.212 9.56326 304.354 10.2689 304.354 11.1227V17.5H302.812V11.2273C302.812 10.4388 302.607 9.82462 302.197 9.38466C301.788 8.94034 301.226 8.71818 300.512 8.71818C300.019 8.71818 299.579 8.82491 299.192 9.03835C298.808 9.2518 298.506 9.56326 298.284 9.97273C298.061 10.3822 297.95 10.8788 297.95 11.4625ZM315.019 7.46364L311.308 17.5H309.739L306.028 7.46364H307.701L310.471 15.4614H310.576L313.346 7.46364H315.019Z" fill="#3D3D3D"/>
<rect width="117" height="21" transform="translate(121)" fill="#A0A0A0"/>
<path d="M168.389 7.8H166.768C166.672 7.3339 166.505 6.92443 166.265 6.57159C166.03 6.21875 165.742 5.92254 165.403 5.68295C165.067 5.43902 164.695 5.25606 164.285 5.13409C163.876 5.01212 163.449 4.95114 163.005 4.95114C162.194 4.95114 161.46 5.15587 160.803 5.56534C160.149 5.97481 159.629 6.57813 159.241 7.37528C158.858 8.17244 158.666 9.15038 158.666 10.3091C158.666 11.4678 158.858 12.4457 159.241 13.2429C159.629 14.0401 160.149 14.6434 160.803 15.0528C161.46 15.4623 162.194 15.667 163.005 15.667C163.449 15.667 163.876 15.6061 164.285 15.4841C164.695 15.3621 165.067 15.1813 165.403 14.9418C165.742 14.6978 166.03 14.3994 166.265 14.0466C166.505 13.6894 166.672 13.2799 166.768 12.8182H168.389C168.267 13.5021 168.045 14.1141 167.722 14.6543C167.4 15.1944 166.999 15.654 166.52 16.033C166.041 16.4076 165.503 16.6929 164.906 16.8889C164.314 17.0849 163.68 17.183 163.005 17.183C161.863 17.183 160.848 16.9042 159.96 16.3466C159.071 15.789 158.372 14.9962 157.862 13.9682C157.353 12.9402 157.098 11.7205 157.098 10.3091C157.098 8.89773 157.353 7.67803 157.862 6.65C158.372 5.62197 159.071 4.82917 159.96 4.27159C160.848 3.71402 161.863 3.43523 163.005 3.43523C163.68 3.43523 164.314 3.53324 164.906 3.72926C165.503 3.92528 166.041 4.21278 166.52 4.59176C166.999 4.96638 167.4 5.42377 167.722 5.96392C168.045 6.49972 168.267 7.11174 168.389 7.8ZM172.34 3.61818V17H170.798V3.61818H172.34ZM178.118 17.2352C177.482 17.2352 176.905 17.1154 176.386 16.8759C175.868 16.6319 175.456 16.2813 175.151 15.8239C174.846 15.3621 174.694 14.8045 174.694 14.1511C174.694 13.5761 174.807 13.11 175.034 12.7528C175.26 12.3913 175.563 12.1081 175.942 11.9034C176.321 11.6987 176.739 11.5462 177.197 11.446C177.658 11.3415 178.122 11.2587 178.588 11.1977C179.198 11.1193 179.693 11.0605 180.072 11.0213C180.455 10.9777 180.734 10.9059 180.908 10.8057C181.087 10.7055 181.176 10.5312 181.176 10.283V10.2307C181.176 9.58598 180.999 9.08504 180.647 8.72784C180.298 8.37064 179.769 8.19205 179.059 8.19205C178.323 8.19205 177.745 8.35322 177.327 8.67557C176.909 8.99792 176.615 9.34205 176.445 9.70795L174.982 9.18523C175.243 8.57538 175.591 8.10057 176.027 7.7608C176.467 7.41667 176.946 7.17708 177.464 7.04205C177.987 6.90265 178.501 6.83295 179.007 6.83295C179.329 6.83295 179.699 6.87216 180.117 6.95057C180.54 7.02462 180.947 7.17926 181.339 7.41449C181.736 7.64972 182.064 8.00474 182.326 8.47955C182.587 8.95436 182.718 9.59034 182.718 10.3875V17H181.176V15.6409H181.097C180.993 15.8587 180.819 16.0918 180.575 16.3401C180.331 16.5884 180.006 16.7996 179.601 16.9739C179.196 17.1481 178.702 17.2352 178.118 17.2352ZM178.353 15.85C178.963 15.85 179.477 15.7302 179.895 15.4906C180.318 15.251 180.636 14.9418 180.849 14.5628C181.067 14.1838 181.176 13.7852 181.176 13.367V11.9557C181.111 12.0341 180.967 12.106 180.745 12.1713C180.527 12.2323 180.274 12.2867 179.987 12.3347C179.704 12.3782 179.427 12.4174 179.157 12.4523C178.891 12.4828 178.675 12.5089 178.51 12.5307C178.109 12.583 177.735 12.6679 177.386 12.7855C177.042 12.8988 176.763 13.0708 176.55 13.3017C176.341 13.5282 176.236 13.8375 176.236 14.2295C176.236 14.7653 176.434 15.1705 176.831 15.4449C177.231 15.715 177.739 15.85 178.353 15.85ZM192.642 9.21136L191.256 9.60341C191.169 9.37254 191.041 9.1482 190.871 8.9304C190.705 8.70824 190.479 8.52528 190.191 8.38153C189.904 8.23778 189.536 8.16591 189.087 8.16591C188.473 8.16591 187.961 8.30748 187.551 8.59063C187.146 8.86941 186.944 9.22443 186.944 9.65568C186.944 10.039 187.083 10.3418 187.362 10.5639C187.641 10.7861 188.076 10.9712 188.669 11.1193L190.159 11.4852C191.056 11.703 191.725 12.0363 192.165 12.4849C192.605 12.9293 192.825 13.5021 192.825 14.2034C192.825 14.7784 192.659 15.2924 192.328 15.7455C192.001 16.1985 191.544 16.5557 190.956 16.817C190.368 17.0784 189.684 17.2091 188.904 17.2091C187.88 17.2091 187.033 16.9869 186.362 16.5426C185.691 16.0983 185.267 15.4492 185.088 14.5955L186.552 14.2295C186.691 14.7697 186.955 15.1748 187.342 15.4449C187.734 15.715 188.246 15.85 188.878 15.85C189.597 15.85 190.167 15.6975 190.59 15.3926C191.017 15.0833 191.23 14.7131 191.23 14.2818C191.23 13.9333 191.108 13.6415 190.864 13.4063C190.62 13.1667 190.246 12.9881 189.74 12.8705L188.068 12.4784C187.149 12.2606 186.473 11.923 186.042 11.4656C185.615 11.0039 185.402 10.4267 185.402 9.73409C185.402 9.1678 185.561 8.66686 185.879 8.23125C186.201 7.79564 186.639 7.45369 187.192 7.2054C187.75 6.9571 188.381 6.83295 189.087 6.83295C190.08 6.83295 190.86 7.05076 191.426 7.48636C191.997 7.92197 192.402 8.49697 192.642 9.21136ZM202.255 9.21136L200.87 9.60341C200.782 9.37254 200.654 9.1482 200.484 8.9304C200.319 8.70824 200.092 8.52528 199.805 8.38153C199.517 8.23778 199.149 8.16591 198.7 8.16591C198.086 8.16591 197.574 8.30748 197.165 8.59063C196.76 8.86941 196.557 9.22443 196.557 9.65568C196.557 10.039 196.696 10.3418 196.975 10.5639C197.254 10.7861 197.69 10.9712 198.282 11.1193L199.772 11.4852C200.669 11.703 201.338 12.0363 201.778 12.4849C202.218 12.9293 202.438 13.5021 202.438 14.2034C202.438 14.7784 202.272 15.2924 201.941 15.7455C201.614 16.1985 201.157 16.5557 200.569 16.817C199.981 17.0784 199.297 17.2091 198.517 17.2091C197.494 17.2091 196.646 16.9869 195.976 16.5426C195.305 16.0983 194.88 15.4492 194.701 14.5955L196.165 14.2295C196.304 14.7697 196.568 15.1748 196.956 15.4449C197.348 15.715 197.86 15.85 198.491 15.85C199.21 15.85 199.781 15.6975 200.203 15.3926C200.63 15.0833 200.843 14.7131 200.843 14.2818C200.843 13.9333 200.721 13.6415 200.478 13.4063C200.234 13.1667 199.859 12.9881 199.354 12.8705L197.681 12.4784C196.762 12.2606 196.087 11.923 195.655 11.4656C195.229 11.0039 195.015 10.4267 195.015 9.73409C195.015 9.1678 195.174 8.66686 195.492 8.23125C195.814 7.79564 196.252 7.45369 196.805 7.2054C197.363 6.9571 197.995 6.83295 198.7 6.83295C199.693 6.83295 200.473 7.05076 201.039 7.48636C201.61 7.92197 202.015 8.49697 202.255 9.21136Z" fill="#3D3D3D"/>
<rect width="117" height="21" fill="#A0A0A0"/>
<path d="M19.1693 17H17.4705L22.3841 3.61818H24.0568L28.9705 17H27.2716L23.2727 5.73523H23.1682L19.1693 17ZM19.7966 11.7727H26.6443V13.2102H19.7966V11.7727ZM35.0537 17.2091C34.0866 17.2091 33.2525 16.9956 32.5511 16.5688C31.8542 16.1375 31.3162 15.5364 30.9372 14.7653C30.5626 13.99 30.3753 13.0883 30.3753 12.0602C30.3753 11.0322 30.5626 10.1261 30.9372 9.34205C31.3162 8.5536 31.8433 7.93939 32.5185 7.49943C33.198 7.05511 33.9908 6.83295 34.8969 6.83295C35.4196 6.83295 35.9358 6.92008 36.4455 7.09432C36.9551 7.26856 37.419 7.5517 37.8372 7.94375C38.2554 8.33144 38.5886 8.84545 38.8369 9.4858C39.0852 10.1261 39.2094 10.9146 39.2094 11.8511V12.5045H31.473V11.1716H37.6412C37.6412 10.6053 37.5279 10.1 37.3014 9.65568C37.0793 9.21136 36.7613 8.8607 36.3474 8.60369C35.938 8.34669 35.4545 8.21818 34.8969 8.21818C34.2827 8.21818 33.7512 8.37064 33.3026 8.67557C32.8582 8.97614 32.5163 9.36818 32.2767 9.8517C32.0371 10.3352 31.9173 10.8536 31.9173 11.4068V12.2955C31.9173 13.0534 32.048 13.6959 32.3094 14.223C32.5751 14.7457 32.9432 15.1443 33.4136 15.4188C33.8841 15.6888 34.4308 15.8239 35.0537 15.8239C35.4588 15.8239 35.8247 15.7672 36.1514 15.654C36.4825 15.5364 36.7678 15.3621 37.0074 15.1313C37.247 14.896 37.4321 14.6042 37.5628 14.2557L39.0526 14.6739C38.8957 15.1792 38.6322 15.6235 38.2619 16.0068C37.8917 16.3858 37.4343 16.682 36.8898 16.8955C36.3453 17.1045 35.7332 17.2091 35.0537 17.2091ZM48.6642 9.21136L47.279 9.60341C47.1919 9.37254 47.0634 9.1482 46.8935 8.9304C46.7279 8.70824 46.5014 8.52528 46.2139 8.38153C45.9264 8.23778 45.5583 8.16591 45.1097 8.16591C44.4955 8.16591 43.9836 8.30748 43.5741 8.59063C43.169 8.86941 42.9665 9.22443 42.9665 9.65568C42.9665 10.039 43.1059 10.3418 43.3847 10.5639C43.6634 10.7861 44.0991 10.9712 44.6915 11.1193L46.1812 11.4852C47.0786 11.703 47.7473 12.0363 48.1872 12.4849C48.6272 12.9293 48.8472 13.5021 48.8472 14.2034C48.8472 14.7784 48.6816 15.2924 48.3506 15.7455C48.0239 16.1985 47.5665 16.5557 46.9784 16.817C46.3903 17.0784 45.7064 17.2091 44.9267 17.2091C43.903 17.2091 43.0558 16.9869 42.3849 16.5426C41.7141 16.0983 41.2894 15.4492 41.1108 14.5955L42.5744 14.2295C42.7138 14.7697 42.9774 15.1748 43.3651 15.4449C43.7571 15.715 44.2689 15.85 44.9006 15.85C45.6193 15.85 46.19 15.6975 46.6125 15.3926C47.0394 15.0833 47.2528 14.7131 47.2528 14.2818C47.2528 13.9333 47.1309 13.6415 46.8869 13.4063C46.643 13.1667 46.2684 12.9881 45.7631 12.8705L44.0903 12.4784C43.1712 12.2606 42.496 11.923 42.0648 11.4656C41.6379 11.0039 41.4244 10.4267 41.4244 9.73409C41.4244 9.1678 41.5834 8.66686 41.9014 8.23125C42.2238 7.79564 42.6616 7.45369 43.2148 7.2054C43.7723 6.9571 44.404 6.83295 45.1097 6.83295C46.1028 6.83295 46.8826 7.05076 47.4489 7.48636C48.0195 7.92197 48.4246 8.49697 48.6642 9.21136ZM55.5332 6.96364V8.27045H50.332V6.96364H55.5332ZM51.8479 4.55909H53.39V14.125C53.39 14.5606 53.4531 14.8873 53.5795 15.1051C53.7102 15.3186 53.8757 15.4623 54.0761 15.5364C54.2808 15.6061 54.4964 15.6409 54.7229 15.6409C54.8928 15.6409 55.0322 15.6322 55.1411 15.6148C55.25 15.593 55.3371 15.5756 55.4025 15.5625L55.7161 16.9477C55.6116 16.9869 55.4656 17.0261 55.2783 17.0653C55.091 17.1089 54.8536 17.1307 54.5661 17.1307C54.1305 17.1307 53.7036 17.037 53.2854 16.8497C52.8716 16.6624 52.5275 16.3771 52.2531 15.9938C51.983 15.6104 51.8479 15.1269 51.8479 14.5432V4.55909ZM59.6104 10.9625V17H58.0684V3.61818H59.6104V8.53182H59.7411C59.9763 8.01345 60.3292 7.6018 60.7996 7.29688C61.2745 6.98759 61.9061 6.83295 62.6945 6.83295C63.3784 6.83295 63.9774 6.97017 64.4914 7.2446C65.0054 7.51468 65.404 7.93068 65.6871 8.49261C65.9746 9.05019 66.1184 9.76023 66.1184 10.6227V17H64.5763V10.7273C64.5763 9.93011 64.3694 9.31373 63.9556 8.87813C63.5461 8.43816 62.9777 8.21818 62.2502 8.21818C61.7449 8.21818 61.2919 8.32491 60.8911 8.53835C60.4947 8.7518 60.1811 9.06326 59.9502 9.47273C59.7237 9.8822 59.6104 10.3788 59.6104 10.9625ZM73.1474 17.2091C72.1804 17.2091 71.3462 16.9956 70.6449 16.5688C69.9479 16.1375 69.4099 15.5364 69.031 14.7653C68.6563 13.99 68.469 13.0883 68.469 12.0602C68.469 11.0322 68.6563 10.1261 69.031 9.34205C69.4099 8.5536 69.937 7.93939 70.6122 7.49943C71.2918 7.05511 72.0846 6.83295 72.9906 6.83295C73.5133 6.83295 74.0295 6.92008 74.5392 7.09432C75.0489 7.26856 75.5128 7.5517 75.931 7.94375C76.3491 8.33144 76.6824 8.84545 76.9307 9.4858C77.179 10.1261 77.3031 10.9146 77.3031 11.8511V12.5045H69.5668V11.1716H75.7349C75.7349 10.6053 75.6217 10.1 75.3952 9.65568C75.173 9.21136 74.855 8.8607 74.4412 8.60369C74.0317 8.34669 73.5482 8.21818 72.9906 8.21818C72.3764 8.21818 71.845 8.37064 71.3963 8.67557C70.952 8.97614 70.61 9.36818 70.3705 9.8517C70.1309 10.3352 70.0111 10.8536 70.0111 11.4068V12.2955C70.0111 13.0534 70.1418 13.6959 70.4031 14.223C70.6688 14.7457 71.0369 15.1443 71.5074 15.4188C71.9778 15.6888 72.5245 15.8239 73.1474 15.8239C73.5526 15.8239 73.9185 15.7672 74.2452 15.654C74.5762 15.5364 74.8616 15.3621 75.1011 15.1313C75.3407 14.896 75.5258 14.6042 75.6565 14.2557L77.1463 14.6739C76.9895 15.1792 76.7259 15.6235 76.3557 16.0068C75.9854 16.3858 75.528 16.682 74.9835 16.8955C74.439 17.1045 73.827 17.2091 73.1474 17.2091ZM84.0136 6.96364V8.27045H78.8125V6.96364H84.0136ZM80.3284 4.55909H81.8705V14.125C81.8705 14.5606 81.9336 14.8873 82.0599 15.1051C82.1906 15.3186 82.3562 15.4623 82.5565 15.5364C82.7613 15.6061 82.9769 15.6409 83.2034 15.6409C83.3733 15.6409 83.5127 15.6322 83.6216 15.6148C83.7305 15.593 83.8176 15.5756 83.883 15.5625L84.1966 16.9477C84.092 16.9869 83.9461 17.0261 83.7588 17.0653C83.5715 17.1089 83.3341 17.1307 83.0466 17.1307C82.611 17.1307 82.1841 17.037 81.7659 16.8497C81.3521 16.6624 81.008 16.3771 80.7335 15.9938C80.4634 15.6104 80.3284 15.1269 80.3284 14.5432V4.55909ZM86.3332 17V6.96364H87.8753V17H86.3332ZM87.1173 5.29091C86.8168 5.29091 86.5576 5.18854 86.3398 4.98381C86.1263 4.77907 86.0196 4.53295 86.0196 4.24545C86.0196 3.95795 86.1263 3.71184 86.3398 3.5071C86.5576 3.30237 86.8168 3.2 87.1173 3.2C87.4179 3.2 87.6749 3.30237 87.8884 3.5071C88.1062 3.71184 88.2151 3.95795 88.2151 4.24545C88.2151 4.53295 88.1062 4.77907 87.8884 4.98381C87.6749 5.18854 87.4179 5.29091 87.1173 5.29091ZM94.7769 17.2091C93.836 17.2091 93.0258 16.9869 92.3462 16.5426C91.6667 16.0983 91.144 15.4863 90.778 14.7065C90.4121 13.9268 90.2292 13.036 90.2292 12.0341C90.2292 11.0148 90.4165 10.1152 90.7911 9.33551C91.1701 8.55142 91.6972 7.93939 92.3724 7.49943C93.0519 7.05511 93.8447 6.83295 94.7508 6.83295C95.4565 6.83295 96.0924 6.96364 96.6587 7.225C97.225 7.48636 97.6889 7.85227 98.0505 8.32273C98.412 8.79318 98.6364 9.34205 98.7235 9.96932H97.1815C97.0638 9.51193 96.8025 9.10682 96.3974 8.75398C95.9966 8.39678 95.4565 8.21818 94.7769 8.21818C94.1758 8.21818 93.6487 8.375 93.1957 8.68864C92.747 8.99792 92.3963 9.4357 92.1437 10.002C91.8954 10.5639 91.7712 11.2239 91.7712 11.9818C91.7712 12.7572 91.8932 13.4324 92.1371 14.0074C92.3854 14.5824 92.7339 15.0289 93.1826 15.3469C93.6356 15.6649 94.1671 15.8239 94.7769 15.8239C95.1777 15.8239 95.5414 15.7542 95.8681 15.6148C96.1948 15.4754 96.4714 15.275 96.6979 15.0136C96.9245 14.7523 97.0856 14.4386 97.1815 14.0727H98.7235C98.6364 14.6652 98.4208 15.1988 98.0766 15.6736C97.7369 16.144 97.286 16.5187 96.7241 16.7974C96.1665 17.0719 95.5174 17.2091 94.7769 17.2091Z" fill="#3D3D3D"/>
</g>
<defs>
<clipPath id="clip0_523_663">
<rect width="600" height="50" fill="white"/>
</clipPath>
</defs>
</svg>
